G04*
G04 #@! TF.GenerationSoftware,Altium Limited,Altium Designer,21.5.1 (32)*
G04*
G04 Layer_Physical_Order=1*
G04 Layer_Color=255*
%FSLAX44Y44*%
%MOMM*%
G71*
G04*
G04 #@! TF.SameCoordinates,0903D884-DAF8-42DF-BE81-14F24C034F1F*
G04*
G04*
G04 #@! TF.FilePolarity,Positive*
G04*
G01*
G75*
%ADD13R,1.2500X1.0500*%
%ADD14R,1.2500X1.2500*%
%ADD22C,1.0160*%
%ADD23C,0.1270*%
%ADD24C,0.7620*%
%ADD25R,1.5000X1.5000*%
%ADD26C,1.5000*%
%ADD27C,1.5240*%
%ADD28R,1.5240X1.5240*%
%ADD29R,1.5000X1.5000*%
%ADD30C,0.6000*%
G36*
X497961Y2039D02*
X293107D01*
X292854Y3309D01*
X293202Y3453D01*
X294529Y4471D01*
X295547Y5798D01*
X296187Y7342D01*
X296405Y9000D01*
Y30250D01*
X298250D01*
Y44750D01*
X296405D01*
Y56750D01*
X298250D01*
Y73250D01*
X296405D01*
Y86750D01*
X298250D01*
Y103250D01*
X296405D01*
Y115250D01*
X298250D01*
Y129750D01*
X281750D01*
Y115250D01*
X283595D01*
Y103250D01*
X281750D01*
Y86750D01*
X283595D01*
Y73250D01*
X281750D01*
Y56750D01*
X283595D01*
Y44750D01*
X281750D01*
Y30250D01*
X283595D01*
Y9000D01*
X283813Y7342D01*
X284453Y5798D01*
X285471Y4471D01*
X286798Y3453D01*
X287146Y3309D01*
X286893Y2039D01*
X2039D01*
Y507961D01*
X11592D01*
X11759Y506691D01*
X11287Y506564D01*
X9093Y505298D01*
X7302Y503507D01*
X6036Y501313D01*
X5380Y498867D01*
Y496334D01*
X6036Y493887D01*
X7302Y491693D01*
X9093Y489902D01*
X11287Y488636D01*
X13734Y487980D01*
X16266D01*
X18713Y488636D01*
X20907Y489902D01*
X22698Y491693D01*
X23964Y493887D01*
X24620Y496334D01*
Y498867D01*
X23964Y501313D01*
X22698Y503507D01*
X20907Y505298D01*
X18713Y506564D01*
X18241Y506691D01*
X18408Y507961D01*
X189392D01*
X189559Y506691D01*
X189087Y506564D01*
X186893Y505298D01*
X185102Y503507D01*
X183836Y501313D01*
X183180Y498867D01*
Y496334D01*
X183836Y493887D01*
X185102Y491693D01*
X186893Y489902D01*
X189087Y488636D01*
X191534Y487980D01*
X194067D01*
X196513Y488636D01*
X198707Y489902D01*
X200498Y491693D01*
X201764Y493887D01*
X202420Y496334D01*
Y498867D01*
X201764Y501313D01*
X200498Y503507D01*
X198707Y505298D01*
X196513Y506564D01*
X196041Y506691D01*
X196208Y507961D01*
X497961D01*
X497961Y2039D01*
D02*
G37*
%LPC*%
G36*
X492100Y497500D02*
X473100D01*
Y478500D01*
X492100D01*
Y497500D01*
D02*
G37*
G36*
X251251Y489500D02*
X248749D01*
X246333Y488853D01*
X244167Y487602D01*
X242398Y485833D01*
X241147Y483667D01*
X240500Y481251D01*
Y478749D01*
X240695Y478020D01*
X201955Y439280D01*
X200544D01*
X200058Y440453D01*
X200498Y440893D01*
X201764Y443087D01*
X202420Y445533D01*
Y448066D01*
X201764Y450513D01*
X200498Y452707D01*
X198707Y454498D01*
X196513Y455764D01*
X194067Y456420D01*
X191534D01*
X189087Y455764D01*
X186893Y454498D01*
X185102Y452707D01*
X183836Y450513D01*
X183180Y448066D01*
Y445533D01*
X183836Y443087D01*
X185102Y440893D01*
X185919Y440076D01*
X185742Y439496D01*
X185411Y438788D01*
X183877Y437762D01*
X106337Y360223D01*
X105215Y358543D01*
X104820Y356561D01*
Y112145D01*
X17078Y24403D01*
X16266Y24620D01*
X13734D01*
X11287Y23964D01*
X9093Y22698D01*
X7302Y20907D01*
X6036Y18713D01*
X5380Y16266D01*
Y13734D01*
X6036Y11287D01*
X7302Y9093D01*
X9093Y7302D01*
X11287Y6036D01*
X13734Y5380D01*
X16266D01*
X18713Y6036D01*
X20907Y7302D01*
X22698Y9093D01*
X23964Y11287D01*
X24620Y13734D01*
Y16266D01*
X24403Y17078D01*
X113663Y106337D01*
X114785Y108018D01*
X115180Y110000D01*
Y354415D01*
X182007Y421242D01*
X183180Y420756D01*
Y420134D01*
X183836Y417687D01*
X185102Y415493D01*
X186893Y413702D01*
X189087Y412436D01*
X191534Y411780D01*
X194067D01*
X196513Y412436D01*
X198707Y413702D01*
X200498Y415493D01*
X201764Y417687D01*
X202420Y420134D01*
Y422667D01*
X201764Y425113D01*
X200498Y427307D01*
X200058Y427747D01*
X200544Y428921D01*
X204100D01*
X206082Y429315D01*
X207763Y430438D01*
X248020Y470695D01*
X248749Y470500D01*
X251251D01*
X253667Y471147D01*
X255833Y472398D01*
X257602Y474167D01*
X258853Y476333D01*
X259500Y478749D01*
Y481251D01*
X258853Y483667D01*
X257602Y485833D01*
X255833Y487602D01*
X253667Y488853D01*
X251251Y489500D01*
D02*
G37*
G36*
X194067Y481820D02*
X191534D01*
X189087Y481164D01*
X186893Y479898D01*
X185102Y478107D01*
X183836Y475913D01*
X183180Y473466D01*
Y470933D01*
X183836Y468487D01*
X185102Y466293D01*
X186893Y464502D01*
X189087Y463236D01*
X191534Y462580D01*
X194067D01*
X196513Y463236D01*
X198707Y464502D01*
X200498Y466293D01*
X201764Y468487D01*
X202420Y470933D01*
Y473466D01*
X201764Y475913D01*
X200498Y478107D01*
X198707Y479898D01*
X196513Y481164D01*
X194067Y481820D01*
D02*
G37*
G36*
X16266D02*
X13734D01*
X11287Y481164D01*
X9093Y479898D01*
X7302Y478107D01*
X6036Y475913D01*
X5380Y473466D01*
Y470933D01*
X6036Y468487D01*
X7302Y466293D01*
X9093Y464502D01*
X11287Y463236D01*
X13734Y462580D01*
X16266D01*
X18713Y463236D01*
X20907Y464502D01*
X22698Y466293D01*
X23964Y468487D01*
X24620Y470933D01*
Y473466D01*
X23964Y475913D01*
X22698Y478107D01*
X20907Y479898D01*
X18713Y481164D01*
X16266Y481820D01*
D02*
G37*
G36*
X252540Y463755D02*
Y457140D01*
X259154D01*
X258853Y458267D01*
X257602Y460433D01*
X255833Y462202D01*
X253667Y463453D01*
X252540Y463755D01*
D02*
G37*
G36*
X247460D02*
X246333Y463453D01*
X244167Y462202D01*
X242398Y460433D01*
X241147Y458267D01*
X240846Y457140D01*
X247460D01*
Y463755D01*
D02*
G37*
G36*
X259154Y452060D02*
X252540D01*
Y445446D01*
X253667Y445747D01*
X255833Y446998D01*
X257602Y448767D01*
X258853Y450933D01*
X259154Y452060D01*
D02*
G37*
G36*
X247460D02*
X240846D01*
X241147Y450933D01*
X242398Y448767D01*
X244167Y446998D01*
X246333Y445747D01*
X247460Y445446D01*
Y452060D01*
D02*
G37*
G36*
X16266Y456420D02*
X13734D01*
X11287Y455764D01*
X9093Y454498D01*
X7302Y452707D01*
X6036Y450513D01*
X5380Y448066D01*
Y445533D01*
X6036Y443087D01*
X7302Y440893D01*
X9093Y439102D01*
X11287Y437836D01*
X13734Y437180D01*
X16266D01*
X18713Y437836D01*
X20907Y439102D01*
X22698Y440893D01*
X23964Y443087D01*
X24620Y445533D01*
Y448066D01*
X23964Y450513D01*
X22698Y452707D01*
X20907Y454498D01*
X18713Y455764D01*
X16266Y456420D01*
D02*
G37*
G36*
X458451Y497500D02*
X455949D01*
X453533Y496853D01*
X451367Y495602D01*
X449598Y493833D01*
X448347Y491667D01*
X447700Y489251D01*
Y487558D01*
X395747Y435605D01*
X259500D01*
Y438700D01*
X240500D01*
Y419700D01*
X259500D01*
Y422795D01*
X398400D01*
X400058Y423013D01*
X401602Y423653D01*
X402929Y424671D01*
X456758Y478500D01*
X458451D01*
X460867Y479147D01*
X463033Y480398D01*
X464802Y482167D01*
X466053Y484333D01*
X466700Y486749D01*
Y489251D01*
X466053Y491667D01*
X464802Y493833D01*
X463033Y495602D01*
X460867Y496853D01*
X458451Y497500D01*
D02*
G37*
G36*
X16266Y431020D02*
X13734D01*
X11287Y430364D01*
X9093Y429098D01*
X7302Y427307D01*
X6036Y425113D01*
X5380Y422667D01*
Y420134D01*
X6036Y417687D01*
X7302Y415493D01*
X9093Y413702D01*
X11287Y412436D01*
X13734Y411780D01*
X16266D01*
X18713Y412436D01*
X20907Y413702D01*
X22698Y415493D01*
X23964Y417687D01*
X24620Y420134D01*
Y422667D01*
X23964Y425113D01*
X22698Y427307D01*
X20907Y429098D01*
X18713Y430364D01*
X16266Y431020D01*
D02*
G37*
G36*
X194067Y405620D02*
X191534D01*
X189087Y404964D01*
X186893Y403698D01*
X185102Y401907D01*
X183836Y399713D01*
X183180Y397267D01*
Y394734D01*
X183836Y392287D01*
X185102Y390093D01*
X186893Y388302D01*
X189087Y387036D01*
X191534Y386380D01*
X194067D01*
X196513Y387036D01*
X198707Y388302D01*
X200498Y390093D01*
X201764Y392287D01*
X202420Y394734D01*
Y397267D01*
X201764Y399713D01*
X200498Y401907D01*
X198707Y403698D01*
X196513Y404964D01*
X194067Y405620D01*
D02*
G37*
G36*
X16266Y405620D02*
X13734D01*
X11287Y404964D01*
X9093Y403698D01*
X7302Y401907D01*
X6036Y399713D01*
X5380Y397267D01*
Y394734D01*
X6036Y392287D01*
X7302Y390093D01*
X9093Y388302D01*
X11287Y387036D01*
X13734Y386380D01*
X16266D01*
X18713Y387036D01*
X20907Y388302D01*
X22698Y390093D01*
X23964Y392287D01*
X24620Y394734D01*
Y397267D01*
X23964Y399713D01*
X22698Y401907D01*
X20907Y403698D01*
X18713Y404964D01*
X16266Y405620D01*
D02*
G37*
G36*
Y380220D02*
X13734D01*
X11287Y379564D01*
X9093Y378298D01*
X7302Y376507D01*
X6036Y374313D01*
X5380Y371866D01*
Y369333D01*
X6036Y366887D01*
X7302Y364693D01*
X9093Y362902D01*
X11287Y361636D01*
X13734Y360980D01*
X16266D01*
X18713Y361636D01*
X20907Y362902D01*
X22698Y364693D01*
X23964Y366887D01*
X24620Y369333D01*
Y371866D01*
X23964Y374313D01*
X22698Y376507D01*
X20907Y378298D01*
X18713Y379564D01*
X16266Y380220D01*
D02*
G37*
G36*
X194067Y380220D02*
X191534D01*
X189087Y379564D01*
X186893Y378298D01*
X185102Y376507D01*
X183836Y374313D01*
X183180Y371866D01*
Y369333D01*
X183836Y366887D01*
X185102Y364693D01*
X186893Y362902D01*
X189087Y361636D01*
X191534Y360980D01*
X194067D01*
X196513Y361636D01*
X198707Y362902D01*
X200498Y364693D01*
X201764Y366887D01*
X202420Y369333D01*
Y371866D01*
X201764Y374313D01*
X200498Y376507D01*
X198707Y378298D01*
X196513Y379564D01*
X194067Y380220D01*
D02*
G37*
G36*
Y354820D02*
X191534D01*
X189087Y354164D01*
X186893Y352898D01*
X185102Y351107D01*
X183836Y348913D01*
X183180Y346466D01*
Y343933D01*
X183836Y341487D01*
X185102Y339293D01*
X186893Y337502D01*
X189087Y336236D01*
X191534Y335580D01*
X194067D01*
X196513Y336236D01*
X198707Y337502D01*
X200498Y339293D01*
X201764Y341487D01*
X202420Y343933D01*
Y346466D01*
X201764Y348913D01*
X200498Y351107D01*
X198707Y352898D01*
X196513Y354164D01*
X194067Y354820D01*
D02*
G37*
G36*
X16266D02*
X13734D01*
X11287Y354164D01*
X9093Y352898D01*
X7302Y351107D01*
X6036Y348913D01*
X5380Y346466D01*
Y343933D01*
X6036Y341487D01*
X7302Y339293D01*
X9093Y337502D01*
X11287Y336236D01*
X13734Y335580D01*
X16266D01*
X18713Y336236D01*
X20907Y337502D01*
X22698Y339293D01*
X23964Y341487D01*
X24620Y343933D01*
Y346466D01*
X23964Y348913D01*
X22698Y351107D01*
X20907Y352898D01*
X18713Y354164D01*
X16266Y354820D01*
D02*
G37*
G36*
X302051Y344100D02*
X299549D01*
X297133Y343453D01*
X294967Y342202D01*
X293198Y340433D01*
X291947Y338267D01*
X291300Y335851D01*
Y333349D01*
X291947Y330933D01*
X293198Y328767D01*
X294967Y326998D01*
X297133Y325747D01*
X299549Y325100D01*
X302051D01*
X304467Y325747D01*
X306633Y326998D01*
X308402Y328767D01*
X309653Y330933D01*
X310300Y333349D01*
Y335851D01*
X309653Y338267D01*
X308402Y340433D01*
X306633Y342202D01*
X304467Y343453D01*
X302051Y344100D01*
D02*
G37*
G36*
X194067Y329420D02*
X191534D01*
X189087Y328764D01*
X186893Y327498D01*
X185102Y325707D01*
X183836Y323513D01*
X183180Y321067D01*
Y318533D01*
X183836Y316087D01*
X185102Y313893D01*
X186893Y312102D01*
X189087Y310836D01*
X191534Y310180D01*
X194067D01*
X196513Y310836D01*
X198707Y312102D01*
X200498Y313893D01*
X201764Y316087D01*
X202420Y318533D01*
Y321067D01*
X201764Y323513D01*
X200498Y325707D01*
X198707Y327498D01*
X196513Y328764D01*
X194067Y329420D01*
D02*
G37*
G36*
X16266Y329420D02*
X13734D01*
X11287Y328764D01*
X9093Y327498D01*
X7302Y325707D01*
X6036Y323513D01*
X5380Y321067D01*
Y318533D01*
X6036Y316087D01*
X7302Y313893D01*
X9093Y312102D01*
X11287Y310836D01*
X13734Y310180D01*
X16266D01*
X18713Y310836D01*
X20907Y312102D01*
X22698Y313893D01*
X23964Y316087D01*
X24620Y318533D01*
Y321067D01*
X23964Y323513D01*
X22698Y325707D01*
X20907Y327498D01*
X18713Y328764D01*
X16266Y329420D01*
D02*
G37*
G36*
X194067Y304020D02*
X191534D01*
X189087Y303364D01*
X186893Y302098D01*
X185102Y300307D01*
X183836Y298113D01*
X183180Y295667D01*
Y293134D01*
X183836Y290687D01*
X185102Y288493D01*
X186893Y286702D01*
X189087Y285436D01*
X191534Y284780D01*
X194067D01*
X196513Y285436D01*
X198707Y286702D01*
X200498Y288493D01*
X201764Y290687D01*
X202420Y293134D01*
Y295667D01*
X201764Y298113D01*
X200498Y300307D01*
X198707Y302098D01*
X196513Y303364D01*
X194067Y304020D01*
D02*
G37*
G36*
X16266D02*
X13734D01*
X11287Y303364D01*
X9093Y302098D01*
X7302Y300307D01*
X6036Y298113D01*
X5380Y295667D01*
Y293134D01*
X6036Y290687D01*
X7302Y288493D01*
X9093Y286702D01*
X11287Y285436D01*
X13734Y284780D01*
X16266D01*
X18713Y285436D01*
X20907Y286702D01*
X22698Y288493D01*
X23964Y290687D01*
X24620Y293134D01*
Y295667D01*
X23964Y298113D01*
X22698Y300307D01*
X20907Y302098D01*
X18713Y303364D01*
X16266Y304020D01*
D02*
G37*
G36*
X259500Y318700D02*
X240500D01*
Y302447D01*
X202925Y264872D01*
X201845Y265588D01*
X202420Y267733D01*
Y270266D01*
X201764Y272713D01*
X200498Y274907D01*
X198707Y276698D01*
X196513Y277964D01*
X194067Y278620D01*
X191534D01*
X189087Y277964D01*
X186893Y276698D01*
X185102Y274907D01*
X183836Y272713D01*
X183180Y270266D01*
Y267733D01*
X183836Y265287D01*
X185102Y263093D01*
X186893Y261302D01*
X188781Y260212D01*
X188440Y258942D01*
X179000D01*
X178257Y258794D01*
X177627Y258373D01*
X177626Y258373D01*
X160627Y241373D01*
X160205Y240743D01*
X160058Y240000D01*
Y147400D01*
X160205Y146657D01*
X160627Y146027D01*
X184752Y121901D01*
X183836Y120313D01*
X183180Y117866D01*
Y115333D01*
X183836Y112887D01*
X185102Y110693D01*
X186893Y108902D01*
X189087Y107636D01*
X191534Y106980D01*
X194067D01*
X196513Y107636D01*
X198707Y108902D01*
X200498Y110693D01*
X201764Y112887D01*
X202420Y115333D01*
Y117866D01*
X201764Y120313D01*
X200498Y122507D01*
X198707Y124298D01*
X196513Y125564D01*
X194067Y126220D01*
X191534D01*
X189087Y125564D01*
X187499Y124648D01*
X163942Y148204D01*
Y239195D01*
X179804Y255058D01*
X197800D01*
X198543Y255205D01*
X199173Y255627D01*
X243247Y299700D01*
X259500D01*
Y318700D01*
D02*
G37*
G36*
X16266Y278620D02*
X13734D01*
X11287Y277964D01*
X9093Y276698D01*
X7302Y274907D01*
X6036Y272713D01*
X5380Y270266D01*
Y267733D01*
X6036Y265287D01*
X7302Y263093D01*
X9093Y261302D01*
X11287Y260036D01*
X13734Y259380D01*
X16266D01*
X18713Y260036D01*
X20907Y261302D01*
X22698Y263093D01*
X23964Y265287D01*
X24620Y267733D01*
Y270266D01*
X23964Y272713D01*
X22698Y274907D01*
X20907Y276698D01*
X18713Y277964D01*
X16266Y278620D01*
D02*
G37*
G36*
X16266Y253220D02*
X13734D01*
X11287Y252564D01*
X9093Y251298D01*
X7302Y249507D01*
X6036Y247313D01*
X5380Y244867D01*
Y242334D01*
X6036Y239887D01*
X7302Y237693D01*
X9093Y235902D01*
X11287Y234636D01*
X13734Y233980D01*
X16266D01*
X18713Y234636D01*
X20907Y235902D01*
X22698Y237693D01*
X23964Y239887D01*
X24620Y242334D01*
Y244867D01*
X23964Y247313D01*
X22698Y249507D01*
X20907Y251298D01*
X18713Y252564D01*
X16266Y253220D01*
D02*
G37*
G36*
X463790Y238790D02*
X456270D01*
Y231270D01*
X463790D01*
Y238790D01*
D02*
G37*
G36*
X453730D02*
X446210D01*
Y231270D01*
X453730D01*
Y238790D01*
D02*
G37*
G36*
X343790D02*
X336270D01*
Y231270D01*
X343790D01*
Y238790D01*
D02*
G37*
G36*
X333730D02*
X326210D01*
Y231270D01*
X333730D01*
Y238790D01*
D02*
G37*
G36*
X316000Y377942D02*
X291400D01*
X290657Y377794D01*
X290027Y377373D01*
X280613Y367960D01*
X279067Y368853D01*
X276651Y369500D01*
X274149D01*
X271733Y368853D01*
X269567Y367602D01*
X267798Y365833D01*
X266547Y363667D01*
X265900Y361251D01*
Y358749D01*
X266547Y356333D01*
X267798Y354167D01*
X269567Y352398D01*
X270612Y351795D01*
X271049Y350104D01*
X270953Y349942D01*
X262805D01*
X257960Y354787D01*
X258853Y356333D01*
X259500Y358749D01*
Y361251D01*
X258853Y363667D01*
X257602Y365833D01*
X255833Y367602D01*
X253667Y368853D01*
X251251Y369500D01*
X248749D01*
X246333Y368853D01*
X244167Y367602D01*
X242398Y365833D01*
X241147Y363667D01*
X240500Y361251D01*
Y358749D01*
X241147Y356333D01*
X242398Y354167D01*
X244167Y352398D01*
X246333Y351147D01*
X248749Y350500D01*
X251251D01*
X253667Y351147D01*
X255213Y352040D01*
X260627Y346627D01*
X260627Y346627D01*
X261257Y346205D01*
X262000Y346058D01*
X276196D01*
X277048Y345206D01*
X276357Y344100D01*
X274149D01*
X271733Y343453D01*
X269567Y342202D01*
X267798Y340433D01*
X266547Y338267D01*
X265900Y335851D01*
Y333349D01*
X266547Y330933D01*
X267798Y328767D01*
X269567Y326998D01*
X271733Y325747D01*
X274149Y325100D01*
X276651D01*
X279067Y325747D01*
X281233Y326998D01*
X283002Y328767D01*
X284253Y330933D01*
X284788Y332930D01*
X286058Y332763D01*
Y318971D01*
X284900Y318700D01*
X284788Y318700D01*
X265900D01*
Y299700D01*
X266593D01*
Y296339D01*
X203195Y232942D01*
X195101D01*
X194933Y234212D01*
X196513Y234636D01*
X198707Y235902D01*
X200498Y237693D01*
X201764Y239887D01*
X202420Y242334D01*
Y244867D01*
X201764Y247313D01*
X200498Y249507D01*
X198707Y251298D01*
X196513Y252564D01*
X194067Y253220D01*
X191534D01*
X189087Y252564D01*
X186893Y251298D01*
X185102Y249507D01*
X183836Y247313D01*
X183180Y244867D01*
Y242334D01*
X183836Y239887D01*
X185102Y237693D01*
X186893Y235902D01*
X189087Y234636D01*
X190667Y234212D01*
X190499Y232942D01*
X184000D01*
X183257Y232794D01*
X182627Y232373D01*
X170627Y220373D01*
X170206Y219743D01*
X170058Y219000D01*
Y162800D01*
X170206Y162057D01*
X170627Y161427D01*
X184752Y147301D01*
X183836Y145713D01*
X183180Y143266D01*
Y140733D01*
X183836Y138287D01*
X185102Y136093D01*
X186893Y134302D01*
X189087Y133036D01*
X191534Y132380D01*
X194067D01*
X196513Y133036D01*
X198707Y134302D01*
X200498Y136093D01*
X201764Y138287D01*
X202420Y140733D01*
Y143266D01*
X201764Y145713D01*
X200498Y147907D01*
X198707Y149698D01*
X196513Y150964D01*
X194067Y151620D01*
X191534D01*
X189087Y150964D01*
X187499Y150048D01*
X173942Y163605D01*
Y218195D01*
X184804Y229058D01*
X191455D01*
X191534Y227820D01*
X189087Y227164D01*
X186893Y225898D01*
X185102Y224107D01*
X183836Y221913D01*
X183180Y219466D01*
Y216933D01*
X183836Y214487D01*
X185102Y212293D01*
X186893Y210502D01*
X189087Y209236D01*
X191534Y208580D01*
X194067D01*
X196513Y209236D01*
X198707Y210502D01*
X200498Y212293D01*
X201764Y214487D01*
X202420Y216933D01*
Y219466D01*
X201764Y221913D01*
X200498Y224107D01*
X198707Y225898D01*
X196513Y227164D01*
X194067Y227820D01*
X194144Y229058D01*
X204000D01*
X204743Y229205D01*
X205373Y229627D01*
X269908Y294162D01*
X270329Y294792D01*
X270477Y295535D01*
Y299700D01*
X284788D01*
X284900Y299700D01*
X286058Y299429D01*
Y290805D01*
X239377Y244123D01*
X238955Y243493D01*
X238808Y242750D01*
Y238250D01*
X232500D01*
Y221750D01*
X249000D01*
Y238250D01*
X242692D01*
Y241945D01*
X289373Y288626D01*
X289373Y288627D01*
X289795Y289257D01*
X289942Y290000D01*
Y337000D01*
X289795Y337743D01*
X289373Y338373D01*
X278373Y349373D01*
X278081Y349569D01*
X278164Y350861D01*
X278184Y350911D01*
X279067Y351147D01*
X281233Y352398D01*
X283002Y354167D01*
X284253Y356333D01*
X284900Y358749D01*
Y361251D01*
X284253Y363667D01*
X283360Y365213D01*
X292205Y374058D01*
X315195D01*
X358808Y330446D01*
Y238250D01*
X352500D01*
Y221750D01*
X369000D01*
Y238250D01*
X362692D01*
Y331250D01*
X362544Y331993D01*
X362123Y332623D01*
X317373Y377373D01*
X316743Y377794D01*
X316000Y377942D01*
D02*
G37*
G36*
X463790Y228730D02*
X456270D01*
Y221210D01*
X463790D01*
Y228730D01*
D02*
G37*
G36*
X453730D02*
X446210D01*
Y221210D01*
X453730D01*
Y228730D01*
D02*
G37*
G36*
X343790D02*
X336270D01*
Y221210D01*
X343790D01*
Y228730D01*
D02*
G37*
G36*
X333730D02*
X326210D01*
Y221210D01*
X333730D01*
Y228730D01*
D02*
G37*
G36*
X16266Y227820D02*
X13734D01*
X11287Y227164D01*
X9093Y225898D01*
X7302Y224107D01*
X6036Y221913D01*
X5380Y219466D01*
Y216933D01*
X6036Y214487D01*
X7302Y212293D01*
X9093Y210502D01*
X11287Y209236D01*
X13734Y208580D01*
X16266D01*
X18713Y209236D01*
X20907Y210502D01*
X22698Y212293D01*
X23964Y214487D01*
X24620Y216933D01*
Y219466D01*
X23964Y221913D01*
X22698Y224107D01*
X20907Y225898D01*
X18713Y227164D01*
X16266Y227820D01*
D02*
G37*
G36*
X310300Y318700D02*
X291300D01*
Y299700D01*
X298858D01*
Y283605D01*
X265627Y250373D01*
X265205Y249743D01*
X265058Y249000D01*
Y225805D01*
X246195Y206942D01*
X230400D01*
X230400Y206942D01*
X229657Y206794D01*
X229027Y206373D01*
X229027Y206373D01*
X198101Y175448D01*
X196513Y176364D01*
X194067Y177020D01*
X191534D01*
X189087Y176364D01*
X186893Y175098D01*
X185102Y173307D01*
X183836Y171113D01*
X183180Y168666D01*
Y166133D01*
X183836Y163687D01*
X185102Y161493D01*
X186893Y159702D01*
X189087Y158436D01*
X191534Y157780D01*
X194067D01*
X196513Y158436D01*
X198707Y159702D01*
X200498Y161493D01*
X201764Y163687D01*
X202420Y166133D01*
Y168666D01*
X201764Y171113D01*
X200848Y172701D01*
X231204Y203058D01*
X247000D01*
X247743Y203206D01*
X248373Y203627D01*
X268373Y223626D01*
X268373Y223627D01*
X268794Y224257D01*
X268942Y225000D01*
X268942Y225000D01*
Y248195D01*
X302173Y281427D01*
X302595Y282057D01*
X302742Y282800D01*
X302742Y282800D01*
Y299700D01*
X310300D01*
Y318700D01*
D02*
G37*
G36*
X463790Y208790D02*
X456270D01*
Y201270D01*
X463790D01*
Y208790D01*
D02*
G37*
G36*
X453730D02*
X446210D01*
Y201270D01*
X453730D01*
Y208790D01*
D02*
G37*
G36*
X343790D02*
X336270D01*
Y201270D01*
X343790D01*
Y208790D01*
D02*
G37*
G36*
X333730D02*
X326210D01*
Y201270D01*
X333730D01*
Y208790D01*
D02*
G37*
G36*
X463790Y198730D02*
X456270D01*
Y191210D01*
X463790D01*
Y198730D01*
D02*
G37*
G36*
X453730D02*
X446210D01*
Y191210D01*
X453730D01*
Y198730D01*
D02*
G37*
G36*
X343790D02*
X336270D01*
Y191210D01*
X343790D01*
Y198730D01*
D02*
G37*
G36*
X333730D02*
X326210D01*
Y191210D01*
X333730D01*
Y198730D01*
D02*
G37*
G36*
X194067Y202420D02*
X191534D01*
X189087Y201764D01*
X186893Y200498D01*
X185102Y198707D01*
X183836Y196513D01*
X183180Y194067D01*
Y191534D01*
X183836Y189087D01*
X185102Y186893D01*
X186893Y185102D01*
X189087Y183836D01*
X191534Y183180D01*
X194067D01*
X196513Y183836D01*
X198707Y185102D01*
X200498Y186893D01*
X201764Y189087D01*
X202420Y191534D01*
Y194067D01*
X201764Y196513D01*
X200498Y198707D01*
X198707Y200498D01*
X196513Y201764D01*
X194067Y202420D01*
D02*
G37*
G36*
X16266Y202420D02*
X13734D01*
X11287Y201764D01*
X9093Y200498D01*
X7302Y198707D01*
X6036Y196513D01*
X5380Y194067D01*
Y191534D01*
X6036Y189087D01*
X7302Y186893D01*
X9093Y185102D01*
X11287Y183836D01*
X13734Y183180D01*
X16266D01*
X18713Y183836D01*
X20907Y185102D01*
X22698Y186893D01*
X23964Y189087D01*
X24620Y191534D01*
Y194067D01*
X23964Y196513D01*
X22698Y198707D01*
X20907Y200498D01*
X18713Y201764D01*
X16266Y202420D01*
D02*
G37*
G36*
X463790Y178790D02*
X456270D01*
Y171270D01*
X463790D01*
Y178790D01*
D02*
G37*
G36*
X453730D02*
X446210D01*
Y171270D01*
X453730D01*
Y178790D01*
D02*
G37*
G36*
X343790D02*
X336270D01*
Y171270D01*
X343790D01*
Y178790D01*
D02*
G37*
G36*
X333730D02*
X326210D01*
Y171270D01*
X333730D01*
Y178790D01*
D02*
G37*
G36*
X323000Y396942D02*
X249000D01*
X248257Y396795D01*
X247627Y396373D01*
X229627Y378373D01*
X229205Y377743D01*
X229058Y377000D01*
Y353600D01*
X229205Y352857D01*
X229627Y352227D01*
X242040Y339813D01*
X241147Y338267D01*
X240500Y335851D01*
Y333349D01*
X241147Y330933D01*
X242398Y328767D01*
X244167Y326998D01*
X246333Y325747D01*
X248749Y325100D01*
X251251D01*
X253667Y325747D01*
X255833Y326998D01*
X257602Y328767D01*
X258853Y330933D01*
X259500Y333349D01*
Y335851D01*
X258853Y338267D01*
X257602Y340433D01*
X255833Y342202D01*
X253667Y343453D01*
X251251Y344100D01*
X248749D01*
X246333Y343453D01*
X244787Y342560D01*
X232942Y354404D01*
Y376195D01*
X249804Y393058D01*
X322196D01*
X373058Y342196D01*
Y185055D01*
X366253Y178250D01*
X352500D01*
Y161750D01*
X369000D01*
Y175503D01*
X376373Y182877D01*
X376795Y183507D01*
X376942Y184250D01*
Y343000D01*
X376795Y343743D01*
X376373Y344373D01*
X324373Y396373D01*
X323743Y396795D01*
X323000Y396942D01*
D02*
G37*
G36*
X463790Y168730D02*
X456270D01*
Y161210D01*
X463790D01*
Y168730D01*
D02*
G37*
G36*
X453730D02*
X446210D01*
Y161210D01*
X453730D01*
Y168730D01*
D02*
G37*
G36*
X343790D02*
X336270D01*
Y161210D01*
X343790D01*
Y168730D01*
D02*
G37*
G36*
X333730D02*
X326210D01*
Y161210D01*
X333730D01*
Y168730D01*
D02*
G37*
G36*
X16266Y177020D02*
X13734D01*
X11287Y176364D01*
X9093Y175098D01*
X7302Y173307D01*
X6036Y171113D01*
X5380Y168666D01*
Y166133D01*
X6036Y163687D01*
X7302Y161493D01*
X9093Y159702D01*
X11287Y158436D01*
X13734Y157780D01*
X16266D01*
X18713Y158436D01*
X20907Y159702D01*
X22698Y161493D01*
X23964Y163687D01*
X24620Y166133D01*
Y168666D01*
X23964Y171113D01*
X22698Y173307D01*
X20907Y175098D01*
X18713Y176364D01*
X16266Y177020D01*
D02*
G37*
G36*
X410000Y276405D02*
X408342Y276187D01*
X406798Y275547D01*
X405471Y274529D01*
X404453Y273202D01*
X403813Y271658D01*
X403595Y270000D01*
Y249750D01*
X401750D01*
Y235250D01*
X403595D01*
Y223250D01*
X401750D01*
Y206750D01*
X403595D01*
Y193250D01*
X401750D01*
Y176750D01*
X403595D01*
Y164750D01*
X401750D01*
Y150250D01*
X418250D01*
Y164750D01*
X416405D01*
Y176750D01*
X418250D01*
Y193250D01*
X416405D01*
Y206750D01*
X418250D01*
Y223250D01*
X416405D01*
Y235250D01*
X418250D01*
Y249750D01*
X416405D01*
Y270000D01*
X416186Y271658D01*
X415547Y273202D01*
X414529Y274529D01*
X413202Y275547D01*
X411658Y276187D01*
X410000Y276405D01*
D02*
G37*
G36*
X301000Y275405D02*
X299342Y275187D01*
X297798Y274547D01*
X296471Y273529D01*
X285471Y262529D01*
X284453Y261202D01*
X283813Y259658D01*
X283595Y258000D01*
Y249750D01*
X281750D01*
Y235250D01*
X283595D01*
Y223250D01*
X281750D01*
Y206750D01*
X283595D01*
Y193250D01*
X281750D01*
Y176750D01*
X283595D01*
Y164750D01*
X281750D01*
Y150250D01*
X298250D01*
Y164750D01*
X296405D01*
Y176750D01*
X298250D01*
Y193250D01*
X296405D01*
Y206750D01*
X298250D01*
Y223250D01*
X296405D01*
Y235250D01*
X298250D01*
Y249750D01*
X296405D01*
Y255347D01*
X305529Y264471D01*
X306547Y265798D01*
X307187Y267342D01*
X307405Y269000D01*
X307187Y270658D01*
X306547Y272202D01*
X305529Y273529D01*
X304202Y274547D01*
X302658Y275187D01*
X301000Y275405D01*
D02*
G37*
G36*
X16266Y151620D02*
X13734D01*
X11287Y150964D01*
X9093Y149698D01*
X7302Y147907D01*
X6036Y145713D01*
X5380Y143266D01*
Y140733D01*
X6036Y138287D01*
X7302Y136093D01*
X9093Y134302D01*
X11287Y133036D01*
X13734Y132380D01*
X16266D01*
X18713Y133036D01*
X20907Y134302D01*
X22698Y136093D01*
X23964Y138287D01*
X24620Y140733D01*
Y143266D01*
X23964Y145713D01*
X22698Y147907D01*
X20907Y149698D01*
X18713Y150964D01*
X16266Y151620D01*
D02*
G37*
G36*
X463790Y118790D02*
X456270D01*
Y111270D01*
X463790D01*
Y118790D01*
D02*
G37*
G36*
X453730D02*
X446210D01*
Y111270D01*
X453730D01*
Y118790D01*
D02*
G37*
G36*
X343790D02*
X336270D01*
Y111270D01*
X343790D01*
Y118790D01*
D02*
G37*
G36*
X333730D02*
X326210D01*
Y111270D01*
X333730D01*
Y118790D01*
D02*
G37*
G36*
X16266Y126220D02*
X13734D01*
X11287Y125564D01*
X9093Y124298D01*
X7302Y122507D01*
X6036Y120313D01*
X5380Y117866D01*
Y115333D01*
X6036Y112887D01*
X7302Y110693D01*
X9093Y108902D01*
X11287Y107636D01*
X13734Y106980D01*
X16266D01*
X18713Y107636D01*
X20907Y108902D01*
X22698Y110693D01*
X23964Y112887D01*
X24620Y115333D01*
Y117866D01*
X23964Y120313D01*
X22698Y122507D01*
X20907Y124298D01*
X18713Y125564D01*
X16266Y126220D01*
D02*
G37*
G36*
X369000Y118250D02*
X352500D01*
Y101750D01*
X369000D01*
Y118250D01*
D02*
G37*
G36*
X302051Y369500D02*
X299549D01*
X297133Y368853D01*
X294967Y367602D01*
X293198Y365833D01*
X291947Y363667D01*
X291300Y361251D01*
Y358749D01*
X291947Y356333D01*
X293198Y354167D01*
X294967Y352398D01*
X297133Y351147D01*
X299549Y350500D01*
X302051D01*
X304467Y351147D01*
X306013Y352040D01*
X324058Y333995D01*
Y284804D01*
X311627Y272373D01*
X311206Y271743D01*
X311058Y271000D01*
Y152804D01*
X299195Y140942D01*
X269750D01*
X269007Y140794D01*
X268377Y140373D01*
X246253Y118250D01*
X232500D01*
Y101750D01*
X249000D01*
Y115503D01*
X270555Y137058D01*
X300000D01*
X300743Y137205D01*
X301373Y137627D01*
X314373Y150627D01*
X314795Y151257D01*
X314942Y152000D01*
Y270195D01*
X327373Y282627D01*
X327794Y283257D01*
X327942Y284000D01*
Y334800D01*
X327794Y335543D01*
X327373Y336173D01*
X308760Y354787D01*
X309653Y356333D01*
X310300Y358749D01*
Y361251D01*
X309653Y363667D01*
X308402Y365833D01*
X306633Y367602D01*
X304467Y368853D01*
X302051Y369500D01*
D02*
G37*
G36*
X463790Y108730D02*
X456270D01*
Y101210D01*
X463790D01*
Y108730D01*
D02*
G37*
G36*
X453730D02*
X446210D01*
Y101210D01*
X453730D01*
Y108730D01*
D02*
G37*
G36*
X343790D02*
X336270D01*
Y101210D01*
X343790D01*
Y108730D01*
D02*
G37*
G36*
X333730D02*
X326210D01*
Y101210D01*
X333730D01*
Y108730D01*
D02*
G37*
G36*
X249000Y178250D02*
X232500D01*
Y164497D01*
X216627Y148623D01*
X216206Y147993D01*
X216058Y147250D01*
Y117205D01*
X198101Y99248D01*
X196513Y100164D01*
X194067Y100820D01*
X191534D01*
X189087Y100164D01*
X186893Y98898D01*
X185102Y97107D01*
X183836Y94913D01*
X183180Y92466D01*
Y89934D01*
X183836Y87487D01*
X185102Y85293D01*
X186893Y83502D01*
X189087Y82236D01*
X191534Y81580D01*
X194067D01*
X196513Y82236D01*
X198707Y83502D01*
X200498Y85293D01*
X201764Y87487D01*
X202420Y89934D01*
Y92466D01*
X201764Y94913D01*
X200848Y96501D01*
X219373Y115027D01*
X219795Y115657D01*
X219942Y116400D01*
Y146446D01*
X235247Y161750D01*
X249000D01*
Y178250D01*
D02*
G37*
G36*
X16266Y100820D02*
X13734D01*
X11287Y100164D01*
X9093Y98898D01*
X7302Y97107D01*
X6036Y94913D01*
X5380Y92466D01*
Y89934D01*
X6036Y87487D01*
X7302Y85293D01*
X9093Y83502D01*
X11287Y82236D01*
X13734Y81580D01*
X16266D01*
X18713Y82236D01*
X20907Y83502D01*
X22698Y85293D01*
X23964Y87487D01*
X24620Y89934D01*
Y92466D01*
X23964Y94913D01*
X22698Y97107D01*
X20907Y98898D01*
X18713Y100164D01*
X16266Y100820D01*
D02*
G37*
G36*
X463790Y88790D02*
X456270D01*
Y81270D01*
X463790D01*
Y88790D01*
D02*
G37*
G36*
X453730D02*
X446210D01*
Y81270D01*
X453730D01*
Y88790D01*
D02*
G37*
G36*
X343790D02*
X336270D01*
Y81270D01*
X343790D01*
Y88790D01*
D02*
G37*
G36*
X333730D02*
X326210D01*
Y81270D01*
X333730D01*
Y88790D01*
D02*
G37*
G36*
X463790Y78730D02*
X456270D01*
Y71210D01*
X463790D01*
Y78730D01*
D02*
G37*
G36*
X453730D02*
X446210D01*
Y71210D01*
X453730D01*
Y78730D01*
D02*
G37*
G36*
X343790D02*
X336270D01*
Y71210D01*
X343790D01*
Y78730D01*
D02*
G37*
G36*
X333730D02*
X326210D01*
Y71210D01*
X333730D01*
Y78730D01*
D02*
G37*
G36*
X194067Y75420D02*
X191534D01*
X189087Y74764D01*
X186893Y73498D01*
X185102Y71707D01*
X183836Y69513D01*
X183180Y67066D01*
Y64534D01*
X183836Y62087D01*
X185102Y59893D01*
X186893Y58102D01*
X189087Y56836D01*
X191534Y56180D01*
X194067D01*
X196513Y56836D01*
X198707Y58102D01*
X200498Y59893D01*
X201764Y62087D01*
X202420Y64534D01*
Y67066D01*
X201764Y69513D01*
X200498Y71707D01*
X198707Y73498D01*
X196513Y74764D01*
X194067Y75420D01*
D02*
G37*
G36*
X16266D02*
X13734D01*
X11287Y74764D01*
X9093Y73498D01*
X7302Y71707D01*
X6036Y69513D01*
X5380Y67066D01*
Y64534D01*
X6036Y62087D01*
X7302Y59893D01*
X9093Y58102D01*
X11287Y56836D01*
X13734Y56180D01*
X16266D01*
X18713Y56836D01*
X20907Y58102D01*
X22698Y59893D01*
X23964Y62087D01*
X24620Y64534D01*
Y67066D01*
X23964Y69513D01*
X22698Y71707D01*
X20907Y73498D01*
X18713Y74764D01*
X16266Y75420D01*
D02*
G37*
G36*
X463790Y58790D02*
X456270D01*
Y51270D01*
X463790D01*
Y58790D01*
D02*
G37*
G36*
X453730D02*
X446210D01*
Y51270D01*
X453730D01*
Y58790D01*
D02*
G37*
G36*
X343790D02*
X336270D01*
Y51270D01*
X343790D01*
Y58790D01*
D02*
G37*
G36*
X333730D02*
X326210D01*
Y51270D01*
X333730D01*
Y58790D01*
D02*
G37*
G36*
X387995Y316000D02*
X386005D01*
X384168Y315239D01*
X382761Y313832D01*
X382000Y311995D01*
Y310005D01*
X382761Y308168D01*
X384168Y306761D01*
X385058Y306393D01*
Y77055D01*
X366253Y58250D01*
X352500D01*
Y41750D01*
X369000D01*
Y55503D01*
X388373Y74877D01*
X388794Y75507D01*
X388942Y76250D01*
Y306393D01*
X389832Y306761D01*
X391239Y308168D01*
X392000Y310005D01*
Y311995D01*
X391239Y313832D01*
X389832Y315239D01*
X387995Y316000D01*
D02*
G37*
G36*
X219995Y96000D02*
X218005D01*
X216168Y95239D01*
X214761Y93832D01*
X214000Y91995D01*
Y90005D01*
X214761Y88168D01*
X216168Y86761D01*
X217058Y86393D01*
Y71750D01*
X217206Y71007D01*
X217627Y70377D01*
X232500Y55503D01*
Y41750D01*
X249000D01*
Y58250D01*
X235247D01*
X220942Y72554D01*
Y86393D01*
X221832Y86761D01*
X223239Y88168D01*
X224000Y90005D01*
Y91995D01*
X223239Y93832D01*
X221832Y95239D01*
X219995Y96000D01*
D02*
G37*
G36*
X463790Y48730D02*
X456270D01*
Y41210D01*
X463790D01*
Y48730D01*
D02*
G37*
G36*
X453730D02*
X446210D01*
Y41210D01*
X453730D01*
Y48730D01*
D02*
G37*
G36*
X343790D02*
X336270D01*
Y41210D01*
X343790D01*
Y48730D01*
D02*
G37*
G36*
X333730D02*
X326210D01*
Y41210D01*
X333730D01*
Y48730D01*
D02*
G37*
G36*
X194067Y50020D02*
X191534D01*
X189087Y49364D01*
X186893Y48098D01*
X185102Y46307D01*
X183836Y44113D01*
X183180Y41666D01*
Y39134D01*
X183836Y36687D01*
X185102Y34493D01*
X186893Y32702D01*
X189087Y31436D01*
X191534Y30780D01*
X194067D01*
X196513Y31436D01*
X198707Y32702D01*
X200498Y34493D01*
X201764Y36687D01*
X202420Y39134D01*
Y41666D01*
X201764Y44113D01*
X200498Y46307D01*
X198707Y48098D01*
X196513Y49364D01*
X194067Y50020D01*
D02*
G37*
G36*
X16266Y50020D02*
X13734D01*
X11287Y49364D01*
X9093Y48098D01*
X7302Y46307D01*
X6036Y44113D01*
X5380Y41666D01*
Y39134D01*
X6036Y36687D01*
X7302Y34493D01*
X9093Y32702D01*
X11287Y31436D01*
X13734Y30780D01*
X16266D01*
X18713Y31436D01*
X20907Y32702D01*
X22698Y34493D01*
X23964Y36687D01*
X24620Y39134D01*
Y41666D01*
X23964Y44113D01*
X22698Y46307D01*
X20907Y48098D01*
X18713Y49364D01*
X16266Y50020D01*
D02*
G37*
G36*
X202420Y24620D02*
X183180D01*
Y5380D01*
X202420D01*
Y24620D01*
D02*
G37*
G36*
X418250Y129750D02*
X401750D01*
Y115250D01*
X403595D01*
Y103250D01*
X401750D01*
Y86750D01*
X403595D01*
Y73250D01*
X401750D01*
Y56750D01*
X403595D01*
Y44750D01*
X401750D01*
Y30250D01*
X403595D01*
Y10000D01*
X403813Y8342D01*
X404453Y6798D01*
X405471Y5471D01*
X406798Y4453D01*
X408342Y3814D01*
X410000Y3595D01*
X411658Y3814D01*
X413202Y4453D01*
X414529Y5471D01*
X415547Y6798D01*
X416186Y8342D01*
X416405Y10000D01*
Y30250D01*
X418250D01*
Y44750D01*
X416405D01*
Y56750D01*
X418250D01*
Y73250D01*
X416405D01*
Y86750D01*
X418250D01*
Y103250D01*
X416405D01*
Y115250D01*
X418250D01*
Y129750D01*
D02*
G37*
%LPD*%
D13*
X290000Y157500D02*
D03*
Y242500D02*
D03*
X410000Y157500D02*
D03*
Y242500D02*
D03*
X290000Y37500D02*
D03*
Y122500D02*
D03*
X410000Y37500D02*
D03*
Y122500D02*
D03*
D14*
X335000Y230000D02*
D03*
Y170000D02*
D03*
Y200000D02*
D03*
X290000Y185000D02*
D03*
Y215000D02*
D03*
X240750Y230000D02*
D03*
Y170000D02*
D03*
X455000Y230000D02*
D03*
Y170000D02*
D03*
Y200000D02*
D03*
X410000Y185000D02*
D03*
Y215000D02*
D03*
X360750Y230000D02*
D03*
Y170000D02*
D03*
X335000Y110000D02*
D03*
Y50000D02*
D03*
Y80000D02*
D03*
X290000Y65000D02*
D03*
Y95000D02*
D03*
X240750Y110000D02*
D03*
Y50000D02*
D03*
X455000Y110000D02*
D03*
Y50000D02*
D03*
Y80000D02*
D03*
X410000Y65000D02*
D03*
Y95000D02*
D03*
X360750Y110000D02*
D03*
Y50000D02*
D03*
D22*
X410000Y242500D02*
Y270000D01*
X290000Y258000D02*
X301000Y269000D01*
X290000Y242500D02*
Y258000D01*
Y9000D02*
Y37500D01*
X410000Y95000D02*
Y122500D01*
Y65000D02*
Y95000D01*
Y37500D02*
Y65000D01*
Y10000D02*
Y37500D01*
Y215000D02*
Y242500D01*
Y185000D02*
Y215000D01*
Y157500D02*
Y185000D01*
X290000Y215000D02*
Y242500D01*
Y185000D02*
Y215000D01*
Y157500D02*
Y185000D01*
Y95000D02*
Y122500D01*
Y65000D02*
Y95000D01*
Y37500D02*
Y65000D01*
X398400Y429200D02*
X457200Y488000D01*
X250000Y429200D02*
X398400D01*
D23*
X219000Y71750D02*
Y91000D01*
Y71750D02*
X240750Y50000D01*
X387000Y76250D02*
Y311000D01*
X360750Y50000D02*
X387000Y76250D01*
X231000Y353600D02*
Y377000D01*
Y353600D02*
X250000Y334600D01*
X231000Y377000D02*
X249000Y395000D01*
X323000D01*
X375000Y343000D01*
Y184250D02*
Y343000D01*
X360750Y170000D02*
X375000Y184250D01*
X192800Y91200D02*
X218000Y116400D01*
Y147250D01*
X240750Y170000D01*
X326000Y284000D02*
Y334800D01*
X300800Y360000D02*
X326000Y334800D01*
X313000Y271000D02*
X326000Y284000D01*
X313000Y152000D02*
Y271000D01*
X300000Y139000D02*
X313000Y152000D01*
X269750Y139000D02*
X300000D01*
X240750Y110000D02*
X269750Y139000D01*
X250000Y360000D02*
X262000Y348000D01*
X277000D01*
X288000Y337000D01*
Y290000D02*
Y337000D01*
X240750Y242750D02*
X288000Y290000D01*
X240750Y230000D02*
Y242750D01*
X316000Y376000D02*
X360750Y331250D01*
Y230000D02*
Y331250D01*
X291400Y376000D02*
X316000D01*
X275400Y360000D02*
X291400Y376000D01*
X179000Y257000D02*
X197800D01*
X250000Y309200D01*
X162000Y240000D02*
X179000Y257000D01*
X162000Y147400D02*
Y240000D01*
Y147400D02*
X192800Y116600D01*
X268535Y295535D02*
Y302335D01*
X204000Y231000D02*
X268535Y295535D01*
Y302335D02*
X275400Y309200D01*
X184000Y231000D02*
X204000D01*
X172000Y219000D02*
X184000Y231000D01*
X172000Y162800D02*
Y219000D01*
Y162800D02*
X192800Y142000D01*
X300800Y282800D02*
Y309200D01*
X267000Y249000D02*
X300800Y282800D01*
X267000Y225000D02*
Y249000D01*
X247000Y205000D02*
X267000Y225000D01*
X230400Y205000D02*
X247000D01*
X192800Y167400D02*
X230400Y205000D01*
D24*
X110000Y356561D02*
X187540Y434100D01*
X204100Y434100D02*
X250000Y480000D01*
X198060Y434100D02*
X204100D01*
X198060Y434100D02*
X198060Y434100D01*
X187540Y434100D02*
X198060D01*
X110000Y110000D02*
Y356561D01*
X15000Y15000D02*
X110000Y110000D01*
D25*
X250000Y429200D02*
D03*
Y309200D02*
D03*
X275400D02*
D03*
X300800D02*
D03*
D26*
X250000Y454600D02*
D03*
Y480000D02*
D03*
Y334600D02*
D03*
Y360000D02*
D03*
X275400Y334600D02*
D03*
Y360000D02*
D03*
X457200Y488000D02*
D03*
X300800Y334600D02*
D03*
Y360000D02*
D03*
D27*
X15000Y15000D02*
D03*
Y40400D02*
D03*
Y65800D02*
D03*
Y91200D02*
D03*
Y116600D02*
D03*
Y142000D02*
D03*
Y167400D02*
D03*
Y192800D02*
D03*
Y218200D02*
D03*
Y243600D02*
D03*
X15000Y269000D02*
D03*
X15000Y294400D02*
D03*
Y319800D02*
D03*
Y345200D02*
D03*
Y370600D02*
D03*
Y396000D02*
D03*
Y421400D02*
D03*
Y446800D02*
D03*
Y472200D02*
D03*
X15000Y497600D02*
D03*
X192800D02*
D03*
Y472200D02*
D03*
Y446800D02*
D03*
Y421400D02*
D03*
Y396000D02*
D03*
Y370600D02*
D03*
Y345200D02*
D03*
Y319800D02*
D03*
Y294400D02*
D03*
Y269000D02*
D03*
Y243600D02*
D03*
Y218200D02*
D03*
Y192800D02*
D03*
Y167400D02*
D03*
Y142000D02*
D03*
Y116600D02*
D03*
Y91200D02*
D03*
Y65800D02*
D03*
Y40400D02*
D03*
D28*
Y15000D02*
D03*
D29*
X482600Y488000D02*
D03*
D30*
X290000Y15000D02*
D03*
X410000Y16000D02*
D03*
Y264000D02*
D03*
X297000Y265000D02*
D03*
X410000Y270000D02*
D03*
X301000Y269000D02*
D03*
X290000Y9000D02*
D03*
X410000Y10000D02*
D03*
X219000Y91000D02*
D03*
X387000Y311000D02*
D03*
M02*
