G04*
G04 #@! TF.GenerationSoftware,Altium Limited,Altium Designer,21.5.1 (32)*
G04*
G04 Layer_Color=16711935*
%FSLAX44Y44*%
%MOMM*%
G71*
G04*
G04 #@! TF.SameCoordinates,0903D884-DAF8-42DF-BE81-14F24C034F1F*
G04*
G04*
G04 #@! TF.FilePolarity,Negative*
G04*
G01*
G75*
%ADD17R,1.6000X1.6000*%
%ADD18C,1.6000*%
%ADD19C,1.6240*%
%ADD20R,1.6240X1.6240*%
%ADD21R,1.6000X1.6000*%
D17*
X250000Y429200D02*
D03*
Y309200D02*
D03*
X275400D02*
D03*
X300800D02*
D03*
D18*
X250000Y454600D02*
D03*
Y480000D02*
D03*
Y334600D02*
D03*
Y360000D02*
D03*
X275400Y334600D02*
D03*
Y360000D02*
D03*
X457200Y488000D02*
D03*
X300800Y334600D02*
D03*
Y360000D02*
D03*
D19*
X15000Y15000D02*
D03*
Y40400D02*
D03*
Y65800D02*
D03*
Y91200D02*
D03*
Y116600D02*
D03*
Y142000D02*
D03*
Y167400D02*
D03*
Y192800D02*
D03*
Y218200D02*
D03*
Y243600D02*
D03*
X15000Y269000D02*
D03*
X15000Y294400D02*
D03*
Y319800D02*
D03*
Y345200D02*
D03*
Y370600D02*
D03*
Y396000D02*
D03*
Y421400D02*
D03*
Y446800D02*
D03*
Y472200D02*
D03*
X15000Y497600D02*
D03*
X192800D02*
D03*
Y472200D02*
D03*
Y446800D02*
D03*
Y421400D02*
D03*
Y396000D02*
D03*
Y370600D02*
D03*
Y345200D02*
D03*
Y319800D02*
D03*
Y294400D02*
D03*
Y269000D02*
D03*
Y243600D02*
D03*
Y218200D02*
D03*
Y192800D02*
D03*
Y167400D02*
D03*
Y142000D02*
D03*
Y116600D02*
D03*
Y91200D02*
D03*
Y65800D02*
D03*
Y40400D02*
D03*
D20*
Y15000D02*
D03*
D21*
X482600Y488000D02*
D03*
M02*
