M48
;Layer_Color=9474304
;FILE_FORMAT=4:4
METRIC,LZ
;TYPE=PLATED
T1F00S00C0.3000
T2F00S00C0.9000
T3F00S00C1.0160
%
T01
X0029Y00009
Y00015
X0041Y00016
Y0001
X00219Y00091
X00297Y00265
X00301Y00269
X0041Y0027
Y00264
X00387Y00311
T02
X0025Y003092
Y003346
Y0036
X002754
Y003346
Y003092
X003008
Y003346
Y0036
X0025Y004292
Y004546
Y0048
X004572Y00488
X004826
T03
X00015Y00015
Y000404
Y000658
Y000912
Y001166
Y00142
Y001674
X001928
Y00142
Y001166
Y000912
Y000658
Y000404
Y00015
Y001928
Y002182
Y002436
Y00269
Y002944
Y003198
Y003452
Y003706
Y00396
Y004214
Y004468
Y004722
Y004976
X00015
X00015Y004722
Y004468
Y004214
Y00396
Y003706
Y003452
Y003198
Y002944
X00015Y00269
X00015Y002436
Y002182
Y001928
M30
