G04*
G04 #@! TF.GenerationSoftware,Altium Limited,Altium Designer,21.5.1 (32)*
G04*
G04 Layer_Physical_Order=1*
G04 Layer_Color=255*
%FSLAX44Y44*%
%MOMM*%
G71*
G04*
G04 #@! TF.SameCoordinates,A6E62D76-81F8-4FAA-A2E2-D8AED4B4A1C6*
G04*
G04*
G04 #@! TF.FilePolarity,Positive*
G04*
G01*
G75*
%ADD13R,1.2500X1.0500*%
%ADD14R,1.2500X1.2500*%
%ADD22C,0.1270*%
%ADD23C,1.0160*%
%ADD24C,0.7620*%
%ADD25R,1.5000X1.5000*%
%ADD26C,1.5000*%
%ADD27C,1.5240*%
%ADD28R,1.5240X1.5240*%
%ADD29R,1.5000X1.5000*%
%ADD30C,0.6000*%
G36*
X497961Y2039D02*
X293107D01*
X292854Y3309D01*
X293202Y3453D01*
X294529Y4471D01*
X295547Y5798D01*
X296187Y7342D01*
X296405Y9000D01*
Y30250D01*
X298250D01*
Y44750D01*
X296405D01*
Y56750D01*
X298250D01*
Y73250D01*
X296405D01*
Y86750D01*
X298250D01*
Y103250D01*
X296405D01*
Y115250D01*
X298250D01*
Y129750D01*
X281750D01*
Y115250D01*
X283595D01*
Y103250D01*
X281750D01*
Y86750D01*
X283595D01*
Y73250D01*
X281750D01*
Y56750D01*
X283595D01*
Y44750D01*
X281750D01*
Y30250D01*
X283595D01*
Y9000D01*
X283813Y7342D01*
X284453Y5798D01*
X285471Y4471D01*
X286798Y3453D01*
X287146Y3309D01*
X286893Y2039D01*
X2039D01*
Y507961D01*
X11592D01*
X11759Y506691D01*
X11287Y506564D01*
X9093Y505298D01*
X7302Y503507D01*
X6036Y501313D01*
X5380Y498867D01*
Y496334D01*
X6036Y493887D01*
X7302Y491693D01*
X9093Y489902D01*
X11287Y488636D01*
X13734Y487980D01*
X16266D01*
X18713Y488636D01*
X20907Y489902D01*
X22698Y491693D01*
X23964Y493887D01*
X24620Y496334D01*
Y498867D01*
X23964Y501313D01*
X22698Y503507D01*
X20907Y505298D01*
X18713Y506564D01*
X18241Y506691D01*
X18408Y507961D01*
X189392D01*
X189559Y506691D01*
X189087Y506564D01*
X186893Y505298D01*
X185102Y503507D01*
X183836Y501313D01*
X183180Y498867D01*
Y496334D01*
X183836Y493887D01*
X185102Y491693D01*
X186893Y489902D01*
X189087Y488636D01*
X191534Y487980D01*
X194067D01*
X196513Y488636D01*
X198707Y489902D01*
X200498Y491693D01*
X201764Y493887D01*
X202420Y496334D01*
Y498867D01*
X201764Y501313D01*
X200498Y503507D01*
X198707Y505298D01*
X196513Y506564D01*
X196041Y506691D01*
X196208Y507961D01*
X497961D01*
X497961Y2039D01*
D02*
G37*
%LPC*%
G36*
X492100Y497500D02*
X473100D01*
Y478500D01*
X492100D01*
Y497500D01*
D02*
G37*
G36*
X251251Y489500D02*
X248749D01*
X246333Y488853D01*
X244167Y487602D01*
X242398Y485833D01*
X241147Y483667D01*
X240500Y481251D01*
Y478749D01*
X240695Y478020D01*
X201955Y439280D01*
X200544D01*
X200058Y440453D01*
X200498Y440893D01*
X201764Y443087D01*
X202420Y445533D01*
Y448066D01*
X201764Y450513D01*
X200498Y452707D01*
X198707Y454498D01*
X196513Y455764D01*
X194067Y456420D01*
X191534D01*
X189087Y455764D01*
X186893Y454498D01*
X185102Y452707D01*
X183836Y450513D01*
X183180Y448066D01*
Y445533D01*
X183836Y443087D01*
X185102Y440893D01*
X185919Y440076D01*
X185742Y439496D01*
X185411Y438788D01*
X183877Y437762D01*
X106337Y360223D01*
X105215Y358543D01*
X104820Y356561D01*
Y112145D01*
X17078Y24403D01*
X16266Y24620D01*
X13734D01*
X11287Y23964D01*
X9093Y22698D01*
X7302Y20907D01*
X6036Y18713D01*
X5380Y16266D01*
Y13734D01*
X6036Y11287D01*
X7302Y9093D01*
X9093Y7302D01*
X11287Y6036D01*
X13734Y5380D01*
X16266D01*
X18713Y6036D01*
X20907Y7302D01*
X22698Y9093D01*
X23964Y11287D01*
X24620Y13734D01*
Y16266D01*
X24403Y17078D01*
X113663Y106337D01*
X114785Y108018D01*
X115180Y110000D01*
Y354415D01*
X182007Y421242D01*
X183180Y420756D01*
Y420134D01*
X183836Y417687D01*
X185102Y415493D01*
X186893Y413702D01*
X189087Y412436D01*
X191534Y411780D01*
X194067D01*
X196513Y412436D01*
X198707Y413702D01*
X200498Y415493D01*
X201764Y417687D01*
X202420Y420134D01*
Y422667D01*
X201764Y425113D01*
X200498Y427307D01*
X200058Y427747D01*
X200544Y428921D01*
X204100D01*
X206082Y429315D01*
X207763Y430438D01*
X248020Y470695D01*
X248749Y470500D01*
X251251D01*
X253667Y471147D01*
X255833Y472398D01*
X257602Y474167D01*
X258853Y476333D01*
X259500Y478749D01*
Y481251D01*
X258853Y483667D01*
X257602Y485833D01*
X255833Y487602D01*
X253667Y488853D01*
X251251Y489500D01*
D02*
G37*
G36*
X194067Y481820D02*
X191534D01*
X189087Y481164D01*
X186893Y479898D01*
X185102Y478107D01*
X183836Y475913D01*
X183180Y473466D01*
Y470933D01*
X183836Y468487D01*
X185102Y466293D01*
X186893Y464502D01*
X189087Y463236D01*
X191534Y462580D01*
X194067D01*
X196513Y463236D01*
X198707Y464502D01*
X200498Y466293D01*
X201764Y468487D01*
X202420Y470933D01*
Y473466D01*
X201764Y475913D01*
X200498Y478107D01*
X198707Y479898D01*
X196513Y481164D01*
X194067Y481820D01*
D02*
G37*
G36*
X16266D02*
X13734D01*
X11287Y481164D01*
X9093Y479898D01*
X7302Y478107D01*
X6036Y475913D01*
X5380Y473466D01*
Y470933D01*
X6036Y468487D01*
X7302Y466293D01*
X9093Y464502D01*
X11287Y463236D01*
X13734Y462580D01*
X16266D01*
X18713Y463236D01*
X20907Y464502D01*
X22698Y466293D01*
X23964Y468487D01*
X24620Y470933D01*
Y473466D01*
X23964Y475913D01*
X22698Y478107D01*
X20907Y479898D01*
X18713Y481164D01*
X16266Y481820D01*
D02*
G37*
G36*
X252540Y463755D02*
Y457140D01*
X259154D01*
X258853Y458267D01*
X257602Y460433D01*
X255833Y462202D01*
X253667Y463453D01*
X252540Y463755D01*
D02*
G37*
G36*
X247460D02*
X246333Y463453D01*
X244167Y462202D01*
X242398Y460433D01*
X241147Y458267D01*
X240846Y457140D01*
X247460D01*
Y463755D01*
D02*
G37*
G36*
X259154Y452060D02*
X252540D01*
Y445446D01*
X253667Y445747D01*
X255833Y446998D01*
X257602Y448767D01*
X258853Y450933D01*
X259154Y452060D01*
D02*
G37*
G36*
X247460D02*
X240846D01*
X241147Y450933D01*
X242398Y448767D01*
X244167Y446998D01*
X246333Y445747D01*
X247460Y445446D01*
Y452060D01*
D02*
G37*
G36*
X16266Y456420D02*
X13734D01*
X11287Y455764D01*
X9093Y454498D01*
X7302Y452707D01*
X6036Y450513D01*
X5380Y448066D01*
Y445533D01*
X6036Y443087D01*
X7302Y440893D01*
X9093Y439102D01*
X11287Y437836D01*
X13734Y437180D01*
X16266D01*
X18713Y437836D01*
X20907Y439102D01*
X22698Y440893D01*
X23964Y443087D01*
X24620Y445533D01*
Y448066D01*
X23964Y450513D01*
X22698Y452707D01*
X20907Y454498D01*
X18713Y455764D01*
X16266Y456420D01*
D02*
G37*
G36*
X458451Y497500D02*
X455949D01*
X453533Y496853D01*
X451367Y495602D01*
X449598Y493833D01*
X448347Y491667D01*
X447700Y489251D01*
Y487558D01*
X395747Y435605D01*
X259500D01*
Y438700D01*
X240500D01*
Y419700D01*
X259500D01*
Y422795D01*
X398400D01*
X400058Y423013D01*
X401602Y423653D01*
X402929Y424671D01*
X456758Y478500D01*
X458451D01*
X460867Y479147D01*
X463033Y480398D01*
X464802Y482167D01*
X466053Y484333D01*
X466700Y486749D01*
Y489251D01*
X466053Y491667D01*
X464802Y493833D01*
X463033Y495602D01*
X460867Y496853D01*
X458451Y497500D01*
D02*
G37*
G36*
X16266Y431020D02*
X13734D01*
X11287Y430364D01*
X9093Y429098D01*
X7302Y427307D01*
X6036Y425113D01*
X5380Y422667D01*
Y420134D01*
X6036Y417687D01*
X7302Y415493D01*
X9093Y413702D01*
X11287Y412436D01*
X13734Y411780D01*
X16266D01*
X18713Y412436D01*
X20907Y413702D01*
X22698Y415493D01*
X23964Y417687D01*
X24620Y420134D01*
Y422667D01*
X23964Y425113D01*
X22698Y427307D01*
X20907Y429098D01*
X18713Y430364D01*
X16266Y431020D01*
D02*
G37*
G36*
X354814Y401111D02*
X353853D01*
X353587Y400951D01*
X352317Y400951D01*
X349048Y400951D01*
Y400471D01*
X349071D01*
X349194Y400365D01*
X349208Y400311D01*
X349349Y400197D01*
X349368Y400150D01*
X349496Y400054D01*
X349528Y399990D01*
X349529Y399990D01*
X350244Y399417D01*
X350489Y399189D01*
X351290Y398549D01*
X351426Y398481D01*
X351931Y398228D01*
X352397Y398073D01*
X352411Y398068D01*
X353532Y397748D01*
X354173Y397588D01*
X354814Y397428D01*
Y397428D01*
X355774D01*
Y397268D01*
X357081D01*
X358177Y396787D01*
X358653Y395679D01*
X358657Y395666D01*
Y395186D01*
X360337Y395186D01*
X361540Y395025D01*
X362141D01*
X362341Y394865D01*
X362679D01*
X363523Y393933D01*
X363130Y393215D01*
X362821Y392783D01*
D01*
X362021Y391982D01*
X362021D01*
Y391822D01*
X361861D01*
Y391822D01*
X361092Y391182D01*
X361060D01*
Y391182D01*
X360739Y390861D01*
X360739D01*
X360739Y390209D01*
X360739Y389900D01*
X360419Y389580D01*
X360419Y389580D01*
X360259Y389420D01*
X360259D01*
Y388939D01*
X361540D01*
X361541Y388939D01*
X362817Y388729D01*
X362958Y388565D01*
X362821Y387338D01*
X362715Y387018D01*
X362661Y387017D01*
X362629Y386825D01*
X362501Y386697D01*
X362501Y386697D01*
X362231Y386158D01*
X361930Y385685D01*
X361700Y385416D01*
X361380Y384935D01*
X361220Y384775D01*
X360579Y383975D01*
X360259Y383654D01*
X360208Y383494D01*
X359939D01*
X359885Y383334D01*
X359779D01*
X359746Y383174D01*
X359618D01*
X359594Y383006D01*
X359427Y382376D01*
X359138Y381732D01*
Y381572D01*
X359126Y381536D01*
X358706Y381043D01*
X358441Y380818D01*
X358138Y380611D01*
X357216D01*
Y380131D01*
X357456Y380131D01*
X357536Y379970D01*
X357989Y379970D01*
X358177Y379810D01*
X358446D01*
X358779Y379387D01*
X358956Y379006D01*
X358703Y377852D01*
X358532Y377749D01*
X358497Y377728D01*
X357536Y377088D01*
X356736Y376607D01*
X356415Y376447D01*
X355791Y376197D01*
X354963Y375953D01*
X354411Y375806D01*
X354173Y375807D01*
X353532Y375646D01*
X353532Y375326D01*
X353372Y374205D01*
X352948Y373693D01*
X351931Y373084D01*
D01*
X351368Y372924D01*
X349849Y372924D01*
X349736Y372773D01*
X349688Y372763D01*
X349688Y372763D01*
X349369Y372284D01*
X349368Y372283D01*
X349368Y372283D01*
X348888Y371642D01*
X348887Y371641D01*
X348142Y370736D01*
X347842Y370437D01*
X346973Y369646D01*
X346646Y369400D01*
X346645Y369399D01*
X346025Y368933D01*
X346005Y368920D01*
X345965Y368759D01*
X345845Y368759D01*
Y368279D01*
X347126D01*
X347960Y368340D01*
X348624Y367860D01*
X348933Y367165D01*
X348567Y366357D01*
D01*
X348247Y366037D01*
X348247Y366037D01*
X347927Y365716D01*
X347927D01*
Y365716D01*
X347767Y365556D01*
X347767D01*
Y365396D01*
X347607D01*
Y365236D01*
X347446D01*
Y365076D01*
X347286D01*
Y364916D01*
X347126D01*
Y364756D01*
X346806D01*
Y364595D01*
X346646D01*
Y364435D01*
X346485D01*
Y364275D01*
X346325D01*
Y364115D01*
X346165D01*
Y364115D01*
X345781Y363795D01*
X345685D01*
Y363795D01*
X344884Y363154D01*
X344403Y362834D01*
X344325Y362755D01*
X344169Y362662D01*
D01*
X343908Y362506D01*
X343602Y362353D01*
X342802Y361873D01*
Y361392D01*
X344403Y361392D01*
X344563Y361552D01*
X344788Y361552D01*
X345685Y361552D01*
Y361712D01*
X346165D01*
Y361873D01*
X347446D01*
X347446Y361873D01*
X348247Y362033D01*
X348888Y362193D01*
X349734Y362475D01*
X349929Y362449D01*
X350649Y361873D01*
X350672D01*
X350767Y361792D01*
X351450Y360912D01*
X351450Y360911D01*
X351034Y360288D01*
X350329Y359310D01*
X350329D01*
X349840Y358577D01*
X349468Y358019D01*
X349208Y357709D01*
X348888Y357228D01*
X348888Y356748D01*
X349528D01*
X349849Y356908D01*
X349849D01*
X350489Y357228D01*
X351450Y357709D01*
X351450Y357869D01*
X351771D01*
Y358029D01*
X352091D01*
Y358189D01*
X352411D01*
Y358349D01*
X352732D01*
Y358509D01*
X353052D01*
Y358670D01*
X353212D01*
Y358830D01*
X353532D01*
Y358990D01*
X353853D01*
Y359150D01*
X354173D01*
Y359310D01*
X354493D01*
Y359470D01*
X354654D01*
Y359630D01*
X354974Y359630D01*
Y359791D01*
X355294D01*
Y359951D01*
X355454D01*
Y360111D01*
X355774D01*
Y360271D01*
X355935D01*
Y360431D01*
X356255D01*
Y360591D01*
X356575D01*
Y360752D01*
X356735D01*
Y360912D01*
X357056D01*
Y361072D01*
X357216D01*
Y361232D01*
X357536D01*
Y361392D01*
X357857D01*
Y361392D01*
X358457Y361873D01*
X358497D01*
Y361873D01*
X358657Y362033D01*
X358657Y362033D01*
X359181Y362534D01*
X359340Y362613D01*
X359914Y362771D01*
X360877Y361916D01*
X360889Y361479D01*
X360636Y360494D01*
X360419Y359951D01*
Y359951D01*
X360259Y359631D01*
X360259D01*
X360259Y359630D01*
X360099Y359310D01*
X359979Y358830D01*
X359939Y358830D01*
X359939Y358670D01*
X359939Y358349D01*
X360579D01*
X360579Y358456D01*
X360900Y358509D01*
X360900Y358669D01*
X361220Y358670D01*
X361220Y358830D01*
X361380Y358830D01*
X361380Y358990D01*
X361424Y358990D01*
X361700Y358990D01*
Y359150D01*
X362021D01*
Y359150D01*
X362288Y359310D01*
X362341D01*
Y359310D01*
X362609Y359488D01*
X363273Y359601D01*
X364263Y358703D01*
Y358358D01*
X364402D01*
Y358518D01*
X364562D01*
Y358678D01*
X364882D01*
X364882Y358518D01*
X364722D01*
Y358358D01*
X364562D01*
Y358199D01*
Y358038D01*
Y357878D01*
X364402D01*
Y357719D01*
Y357559D01*
X364257D01*
X364242Y357542D01*
Y357398D01*
Y357239D01*
Y357079D01*
X364082D01*
Y356918D01*
Y356759D01*
X363922D01*
Y356599D01*
Y356439D01*
X363782D01*
Y356107D01*
X364082Y356007D01*
Y356119D01*
X364242D01*
Y356279D01*
X364562D01*
Y356439D01*
X364722D01*
Y356279D01*
Y356119D01*
X364562Y356119D01*
Y355959D01*
X364402D01*
X364402Y355807D01*
X364423Y355787D01*
X364423Y355787D01*
X364562D01*
Y355799D01*
X364798D01*
X364938Y355830D01*
X365202Y355888D01*
Y355959D01*
X366162D01*
Y356119D01*
X366642D01*
X366642Y356279D01*
X366962D01*
Y356439D01*
X367122D01*
Y356599D01*
X367282D01*
Y356759D01*
X367442D01*
Y356918D01*
X367602D01*
Y356759D01*
Y356599D01*
X367442D01*
Y356439D01*
X367282D01*
Y356279D01*
X367122D01*
Y356119D01*
Y355959D01*
X366962D01*
Y355799D01*
Y355639D01*
Y355479D01*
X366802D01*
Y355345D01*
X366825Y355306D01*
Y355306D01*
X367282Y355306D01*
Y355319D01*
X367356D01*
X367442Y355340D01*
Y355479D01*
X367762D01*
Y355420D01*
X367868Y355447D01*
X368014Y355466D01*
X368402D01*
Y355479D01*
X368612D01*
X368882Y355614D01*
Y355639D01*
X368944D01*
X369362Y355778D01*
Y355799D01*
X369424D01*
X369682Y355885D01*
Y355959D01*
X369869D01*
Y356040D01*
X370023Y356107D01*
X370162D01*
Y356119D01*
X370349D01*
Y356267D01*
X370669D01*
Y356427D01*
X371310D01*
Y356587D01*
X371630D01*
Y356748D01*
X371790D01*
Y356908D01*
X372111D01*
Y356908D01*
X372911Y357548D01*
X373392Y357869D01*
X374033Y358349D01*
X374433Y358670D01*
X374513Y358670D01*
X374673Y358830D01*
X374673D01*
X374833Y358990D01*
X374833Y359470D01*
X375780Y359895D01*
X376115Y359951D01*
X376716Y360111D01*
X376915D01*
X376915Y360111D01*
X377517Y360271D01*
X377556Y360271D01*
X378197Y360431D01*
X379400Y360591D01*
X380279Y360591D01*
Y360591D01*
X380759D01*
Y360591D01*
X383001D01*
X383162Y360431D01*
X383802Y360271D01*
X385036Y360091D01*
X385564Y359951D01*
X386204Y359791D01*
X386525D01*
X386673Y359885D01*
X386800Y359896D01*
Y359958D01*
X387806D01*
Y360431D01*
X387817Y360438D01*
X387761D01*
Y360598D01*
X387600D01*
Y360758D01*
X387440D01*
Y360918D01*
X387121D01*
Y361078D01*
X386960D01*
Y361238D01*
X386800D01*
Y361398D01*
X386641Y361398D01*
Y361558D01*
X386960D01*
Y361398D01*
X387121D01*
Y361238D01*
X387440D01*
Y361078D01*
X389263D01*
X389360Y361119D01*
Y361238D01*
X389520D01*
Y361398D01*
X389200D01*
Y361558D01*
X388880D01*
X388880Y361718D01*
X388560D01*
X388560Y361878D01*
X388400D01*
Y362038D01*
X388240D01*
X388240Y362198D01*
X388400D01*
Y362038D01*
X388880D01*
Y361878D01*
X389360Y361878D01*
Y361718D01*
X389840D01*
X389840Y361558D01*
X391009D01*
Y361873D01*
X391022Y361878D01*
X390800D01*
Y362038D01*
X390640D01*
Y362198D01*
X390320D01*
Y362358D01*
X390160D01*
Y362518D01*
X389840D01*
Y362678D01*
X389520D01*
Y362838D01*
Y362998D01*
X389680D01*
Y362838D01*
X390000D01*
Y362678D01*
X390480D01*
Y362518D01*
X390960D01*
Y362358D01*
X392080D01*
Y362198D01*
X393737D01*
X393892Y362353D01*
X395920Y362353D01*
Y362358D01*
X396141D01*
X396354Y362518D01*
X396240D01*
Y362678D01*
X396080D01*
Y362838D01*
X395920D01*
Y362998D01*
X395760D01*
Y363158D01*
X395440D01*
Y363318D01*
X395280D01*
Y363478D01*
X395120D01*
Y363638D01*
X394800D01*
Y363798D01*
X394640D01*
Y363958D01*
X394800D01*
Y363798D01*
X395120D01*
Y363638D01*
X395440D01*
Y363478D01*
X395760D01*
Y363318D01*
X395920D01*
Y363158D01*
X396240D01*
Y362998D01*
X396560D01*
Y362838D01*
X397104D01*
X397424Y362998D01*
X397360D01*
Y363158D01*
X397040D01*
Y363318D01*
X396880D01*
Y363478D01*
X396560D01*
Y363638D01*
X396400D01*
Y363798D01*
X396240D01*
Y363958D01*
X396080D01*
Y364118D01*
X396400D01*
Y363958D01*
X396560D01*
Y363798D01*
X396720D01*
Y363638D01*
X397040D01*
Y363478D01*
X397200D01*
Y363318D01*
X397680D01*
Y363158D01*
X398479D01*
Y363154D01*
X398697D01*
X399119Y363295D01*
Y363318D01*
X398960D01*
Y363478D01*
X398800D01*
Y363638D01*
X398479D01*
Y363798D01*
X398320D01*
Y363958D01*
X398000D01*
Y364118D01*
X397840D01*
Y364278D01*
X397680D01*
Y364438D01*
X397520D01*
Y364598D01*
X397680D01*
Y364438D01*
X398000D01*
Y364278D01*
X398320D01*
Y364118D01*
X398479D01*
Y363958D01*
X398639D01*
Y363798D01*
X398960D01*
Y363638D01*
X399599D01*
Y363478D01*
X400239D01*
Y363368D01*
X400739Y363318D01*
X401420D01*
Y363634D01*
X401519Y363719D01*
Y363798D01*
X401359D01*
Y363958D01*
X401199D01*
Y364118D01*
X400879D01*
Y364278D01*
X400719D01*
Y364438D01*
X400559D01*
Y364598D01*
X400239D01*
Y364758D01*
X399919D01*
Y364918D01*
X399759Y364918D01*
Y365078D01*
X399599Y365078D01*
Y365238D01*
X399759D01*
X399759Y365078D01*
X400079Y365078D01*
Y364918D01*
X400399D01*
Y364758D01*
X400719D01*
Y364598D01*
X401199Y364598D01*
Y364438D01*
X402864D01*
X403021Y364595D01*
X404559Y364595D01*
Y364598D01*
X405272D01*
X405762Y364738D01*
X406159Y364743D01*
Y364758D01*
X405679D01*
Y364918D01*
X405519D01*
Y365078D01*
X405199D01*
Y365238D01*
X405039D01*
Y365398D01*
X404879D01*
Y365558D01*
X404559D01*
Y365718D01*
X404399D01*
Y365878D01*
X404559D01*
Y365718D01*
X404879D01*
Y365558D01*
X405199D01*
Y365398D01*
X405519D01*
Y365238D01*
X405679D01*
Y365078D01*
X406159D01*
Y364918D01*
X406799D01*
Y364758D01*
X407986D01*
Y364901D01*
X408079Y364970D01*
Y365078D01*
X407919Y365078D01*
Y365238D01*
Y365398D01*
X407759D01*
Y365558D01*
X407919D01*
Y365398D01*
X408079D01*
Y365238D01*
X408239D01*
Y365398D01*
Y365558D01*
Y365718D01*
X408079D01*
Y365878D01*
Y366038D01*
Y366198D01*
Y366358D01*
X407919D01*
Y366518D01*
X407759D01*
Y366678D01*
Y366838D01*
X407599D01*
Y366998D01*
X407759D01*
Y366838D01*
X408079D01*
Y366678D01*
Y366518D01*
X408239D01*
Y366358D01*
X408559Y366358D01*
Y366198D01*
X408719D01*
Y366038D01*
X409039Y366038D01*
Y365878D01*
X409519D01*
Y365719D01*
X409552Y365718D01*
X409839D01*
Y365591D01*
X409905Y365558D01*
X410159D01*
Y365556D01*
X410228D01*
X410479Y365656D01*
Y365718D01*
Y365878D01*
X410318D01*
Y366038D01*
Y366198D01*
X410159D01*
Y366358D01*
X409999D01*
Y366518D01*
Y366678D01*
X409839D01*
Y366838D01*
Y366998D01*
X409679D01*
Y367158D01*
X409839D01*
Y366998D01*
X409999Y366998D01*
Y366838D01*
Y366678D01*
X410159D01*
Y366518D01*
X410318D01*
Y366358D01*
X410479Y366358D01*
X410479Y366198D01*
X410639D01*
Y366038D01*
X410959D01*
Y365878D01*
X411191D01*
X411438Y366026D01*
Y366038D01*
X411278D01*
Y366198D01*
Y366358D01*
Y366518D01*
X411119D01*
Y366678D01*
Y366838D01*
X410959D01*
Y366998D01*
Y367158D01*
X410798Y367158D01*
Y367318D01*
Y367478D01*
X410959D01*
Y367318D01*
X411119D01*
Y367158D01*
X411278Y367158D01*
X411278Y366998D01*
X411438D01*
Y366838D01*
X411598Y366838D01*
Y366678D01*
X411758D01*
Y366518D01*
X412078D01*
Y366358D01*
X412398D01*
Y366357D01*
X412470D01*
X412718Y366440D01*
Y366518D01*
X412558D01*
Y366678D01*
Y366838D01*
Y366998D01*
X412398D01*
Y367158D01*
Y367318D01*
Y367478D01*
X412238D01*
Y367638D01*
X412078D01*
Y367798D01*
Y367958D01*
X412398D01*
Y367798D01*
Y367638D01*
X412558Y367638D01*
Y367478D01*
Y367318D01*
X412718D01*
Y367158D01*
X412878Y367158D01*
Y366998D01*
X413198D01*
Y366838D01*
X413358D01*
Y366678D01*
X413838D01*
Y366634D01*
X413998Y366554D01*
Y366678D01*
X413838D01*
Y366838D01*
Y366998D01*
X413678D01*
Y367158D01*
Y367318D01*
X413518D01*
Y367478D01*
X413678D01*
Y367318D01*
X413838D01*
Y367158D01*
X413998Y367158D01*
Y366998D01*
X414158D01*
Y366838D01*
Y366678D01*
X414318D01*
Y366518D01*
X414478D01*
Y366358D01*
X414798Y366358D01*
Y366198D01*
X415278D01*
Y366038D01*
X415758Y366038D01*
Y365878D01*
X416238D01*
Y365738D01*
X416309Y365718D01*
X416646D01*
X416806Y365738D01*
X416878Y365737D01*
Y365878D01*
X416718D01*
X416718Y366038D01*
Y366198D01*
X416718Y366358D01*
X416558Y366358D01*
Y366518D01*
Y366678D01*
X416398D01*
Y366838D01*
X416238D01*
Y366998D01*
Y367158D01*
X416078D01*
Y367318D01*
Y367478D01*
X415918D01*
Y367638D01*
X415758Y367638D01*
Y367798D01*
X415758Y367958D01*
X415918D01*
Y367798D01*
X416078D01*
Y367638D01*
X416238D01*
Y367478D01*
Y367318D01*
X416398D01*
Y367158D01*
X416558D01*
Y366998D01*
X416718Y366998D01*
Y366838D01*
X416878D01*
Y366678D01*
X417038D01*
Y366518D01*
X417198D01*
Y366358D01*
X417358D01*
X417358Y366198D01*
X417678D01*
Y366038D01*
X417838D01*
Y365878D01*
X418158D01*
Y365718D01*
X418478D01*
Y365558D01*
X418798D01*
Y365398D01*
X419118D01*
Y365238D01*
X419438D01*
Y365078D01*
X419758D01*
Y364996D01*
X419838Y364980D01*
Y364918D01*
X420398D01*
Y365078D01*
X420238D01*
Y365238D01*
Y365398D01*
Y365558D01*
Y365718D01*
Y365878D01*
X420078D01*
Y366038D01*
Y366198D01*
X419918D01*
Y366358D01*
Y366518D01*
Y366678D01*
X419758D01*
Y366838D01*
Y366998D01*
X419918D01*
Y366838D01*
X420078D01*
Y366678D01*
Y366518D01*
X420238D01*
Y366358D01*
Y366198D01*
X420398D01*
Y366038D01*
Y365878D01*
X420558D01*
Y365718D01*
X420718D01*
Y365558D01*
X420878D01*
Y365398D01*
Y365238D01*
X421198D01*
Y365078D01*
X421358D01*
Y364918D01*
X421518D01*
Y364758D01*
X421678D01*
X421678Y364598D01*
X421838D01*
Y364438D01*
X421998D01*
Y364330D01*
X422076Y364278D01*
X422477D01*
Y364438D01*
Y364598D01*
Y364758D01*
Y364918D01*
Y365078D01*
Y365238D01*
Y365398D01*
Y365558D01*
X422477Y365718D01*
X422477Y365878D01*
X422637D01*
X422637Y365718D01*
X422637Y365558D01*
Y365398D01*
X422798D01*
Y365238D01*
Y365078D01*
Y364918D01*
Y364758D01*
X422957D01*
X422957Y364598D01*
X422957Y364438D01*
X423117D01*
Y364278D01*
X423277D01*
Y364118D01*
Y363958D01*
X423438D01*
Y363798D01*
X423597D01*
X423597Y363638D01*
Y363478D01*
X423757D01*
Y363318D01*
X423917D01*
Y363158D01*
X424077D01*
Y362998D01*
X424237D01*
Y362838D01*
Y362834D01*
X424482Y362834D01*
X424557Y362784D01*
Y362838D01*
Y362998D01*
Y363158D01*
X424717D01*
X424717Y363318D01*
Y363478D01*
Y363638D01*
Y363798D01*
Y363958D01*
Y364118D01*
Y364278D01*
X424877D01*
Y364438D01*
Y364598D01*
X425037D01*
Y364438D01*
Y364278D01*
Y364118D01*
Y363958D01*
Y363798D01*
Y363638D01*
Y363478D01*
Y363318D01*
X425197D01*
Y363158D01*
Y362998D01*
Y362838D01*
X425357D01*
Y362678D01*
Y362518D01*
Y362358D01*
X425517D01*
Y362198D01*
X425677D01*
Y362038D01*
Y361878D01*
X425837D01*
Y361718D01*
Y361712D01*
X425947Y361712D01*
X425997Y361662D01*
Y361718D01*
X426157D01*
Y361878D01*
Y362038D01*
X426317D01*
Y362198D01*
Y362358D01*
Y362518D01*
Y362678D01*
Y362838D01*
Y362998D01*
Y363158D01*
Y363318D01*
Y363478D01*
X426477D01*
Y363638D01*
X426317D01*
Y363798D01*
X426637D01*
Y363638D01*
Y363478D01*
Y363318D01*
Y363158D01*
Y362998D01*
Y362838D01*
Y362678D01*
Y362518D01*
Y362358D01*
Y362198D01*
Y362038D01*
Y361878D01*
Y361718D01*
Y361558D01*
Y361398D01*
X426797D01*
Y361238D01*
Y361078D01*
Y360918D01*
X426957D01*
Y360758D01*
Y360598D01*
Y360534D01*
X426989Y360438D01*
X427117D01*
Y360278D01*
Y360271D01*
X427365D01*
X427437Y360163D01*
Y360278D01*
Y360438D01*
Y360598D01*
Y360758D01*
Y360918D01*
Y361078D01*
Y361238D01*
X427597D01*
Y361398D01*
Y361558D01*
X427757D01*
Y361398D01*
Y361238D01*
Y361078D01*
X427757Y360918D01*
Y360758D01*
X427757Y360598D01*
Y360438D01*
Y360278D01*
Y360118D01*
X427597D01*
Y359958D01*
Y359923D01*
X427757Y359683D01*
Y359798D01*
Y359958D01*
X427917D01*
Y359798D01*
Y359638D01*
Y359478D01*
X428077D01*
Y359318D01*
Y359255D01*
X428166Y359186D01*
Y359158D01*
X428237D01*
Y358998D01*
Y358871D01*
X428257Y358838D01*
X428397D01*
Y358678D01*
Y358563D01*
X428427Y358518D01*
X428557D01*
Y358358D01*
Y358278D01*
X428637Y358199D01*
X428717D01*
Y358189D01*
X428807Y358189D01*
X428877Y358169D01*
Y358199D01*
X429037D01*
Y358358D01*
Y358518D01*
Y358678D01*
X429197D01*
X429197Y358838D01*
Y358998D01*
Y359158D01*
Y359318D01*
X429357Y359318D01*
Y359478D01*
Y359638D01*
Y359798D01*
Y359958D01*
Y360118D01*
Y360278D01*
Y360438D01*
Y360598D01*
Y360758D01*
X429517D01*
Y360918D01*
X429677D01*
Y360758D01*
Y360598D01*
Y360438D01*
Y360278D01*
X429677Y360118D01*
X429677Y359958D01*
Y359798D01*
Y359638D01*
Y359478D01*
X429677Y359318D01*
X429677Y359158D01*
Y358998D01*
Y358838D01*
X429677Y358678D01*
X429837D01*
Y358518D01*
Y358358D01*
Y358199D01*
X429997D01*
Y358038D01*
X429997Y357878D01*
X429997Y357730D01*
X430003Y357719D01*
X430157D01*
Y357559D01*
Y357410D01*
X430163Y357398D01*
X430317D01*
Y357239D01*
Y357090D01*
X430403Y356918D01*
X430477D01*
Y356908D01*
X430728D01*
X430797Y356794D01*
Y356918D01*
X430957D01*
X430957Y357079D01*
Y357239D01*
Y357398D01*
Y357559D01*
Y357719D01*
Y357878D01*
X431117D01*
Y357719D01*
Y357559D01*
Y357398D01*
Y357239D01*
Y357079D01*
Y356918D01*
Y356759D01*
Y356599D01*
Y356439D01*
Y356279D01*
Y356261D01*
X431202Y356119D01*
X431277D01*
Y356107D01*
X431529Y356107D01*
X431720Y355959D01*
X431757D01*
Y356119D01*
X431757Y356279D01*
Y356439D01*
Y356599D01*
Y356759D01*
Y356918D01*
X431917D01*
Y356759D01*
Y356599D01*
Y356439D01*
Y356279D01*
Y356119D01*
Y355959D01*
X432077D01*
Y355799D01*
Y355682D01*
X432237Y355558D01*
Y355639D01*
Y355799D01*
Y355959D01*
Y356119D01*
X432397D01*
Y356279D01*
Y356439D01*
X432557D01*
Y356279D01*
Y356119D01*
Y355959D01*
Y355799D01*
Y355639D01*
Y355479D01*
Y355319D01*
Y355159D01*
Y354999D01*
Y354839D01*
Y354737D01*
X432600Y354679D01*
X432717D01*
Y354524D01*
X432720Y354519D01*
X432877D01*
Y354359D01*
Y354279D01*
X432957Y354199D01*
X433037D01*
Y354169D01*
X433348Y354091D01*
X433357Y354076D01*
Y354199D01*
X433517D01*
Y354039D01*
X433677D01*
Y353879D01*
Y353719D01*
X433837D01*
Y353559D01*
Y353399D01*
X433997D01*
Y353239D01*
Y353079D01*
X434156D01*
Y352919D01*
X434316D01*
Y352759D01*
Y352599D01*
X434477D01*
Y352439D01*
Y352279D01*
X434636D01*
X434636Y352119D01*
Y351959D01*
Y351814D01*
X434644Y351799D01*
X434796D01*
Y351639D01*
Y351494D01*
X434804Y351479D01*
X434957D01*
X434957Y351319D01*
X434957Y351174D01*
X434964Y351159D01*
X435117D01*
Y350999D01*
Y350854D01*
X435124Y350839D01*
X435276D01*
Y350679D01*
Y350534D01*
X435284Y350519D01*
X435436D01*
Y350359D01*
Y350214D01*
X435444Y350199D01*
X435596D01*
Y350039D01*
X435596Y349894D01*
X435604Y349879D01*
X435756D01*
Y349719D01*
X435684D01*
X435854Y349380D01*
X435854D01*
X436014Y349060D01*
X436430Y348852D01*
X437455Y348259D01*
Y348259D01*
X438096Y347939D01*
X438736Y347939D01*
X438989Y348141D01*
X439330Y348250D01*
X439857Y348419D01*
X440178Y348259D01*
X440818Y348259D01*
Y348259D01*
X441418Y348739D01*
X442022Y348900D01*
X442580D01*
X442832Y349026D01*
X443422Y349122D01*
X444342Y349060D01*
Y349060D01*
X448026D01*
Y349220D01*
X449787D01*
Y349380D01*
X450748D01*
Y349540D01*
X451709D01*
X451709Y349701D01*
X452670D01*
X452670Y349861D01*
X453471Y349861D01*
X453738Y350021D01*
X453951D01*
X454058Y350181D01*
X454112D01*
X454272Y350341D01*
X454272Y350502D01*
X454217Y350502D01*
X454146Y350593D01*
X454112Y350662D01*
X454106Y350679D01*
X453995D01*
Y350839D01*
X453675Y350839D01*
Y350999D01*
X452715D01*
Y351159D01*
X452555D01*
Y350999D01*
X452235D01*
Y351159D01*
X452395D01*
Y351319D01*
X453355D01*
Y351479D01*
X453675D01*
Y351639D01*
X453791D01*
Y351943D01*
X453801Y351959D01*
X453675D01*
Y352119D01*
X453195D01*
Y352279D01*
X452075D01*
Y352439D01*
X451915D01*
Y352599D01*
X452395D01*
Y352439D01*
X453515D01*
Y352599D01*
X453995D01*
Y352759D01*
X454272D01*
Y353064D01*
X454257Y353079D01*
X454155D01*
Y353181D01*
X454112Y353224D01*
X454031Y353224D01*
X454009Y353239D01*
X453835D01*
Y353355D01*
X453791Y353384D01*
X453791D01*
X453762Y353399D01*
X453675D01*
Y353444D01*
X453476Y353559D01*
X453355D01*
Y353629D01*
X453200Y353719D01*
X453035D01*
Y353814D01*
X452923Y353879D01*
X452875D01*
Y353907D01*
X452670Y354025D01*
Y354025D01*
X452646Y354039D01*
X452555D01*
Y354090D01*
X452364Y354199D01*
X452235D01*
Y354272D01*
X452083Y354359D01*
X451435D01*
Y354519D01*
X451802D01*
X451642Y354610D01*
X451549Y354666D01*
X451549Y354826D01*
X451523Y354839D01*
X451435D01*
Y354883D01*
X451229Y354986D01*
X451218Y354999D01*
X451115D01*
Y355119D01*
X451081Y355159D01*
X450955D01*
Y355307D01*
X450945Y355319D01*
X450155D01*
Y355479D01*
X449835D01*
Y355639D01*
X450475Y355639D01*
Y355479D01*
X450808D01*
X450428Y355924D01*
Y355947D01*
X450428D01*
X450413Y355959D01*
X450315D01*
Y356034D01*
X450207Y356119D01*
X449995D01*
Y356279D01*
X449195D01*
Y356439D01*
X449035D01*
Y356599D01*
X449515D01*
Y356439D01*
X449795D01*
X449467Y356693D01*
X449467Y356908D01*
X449456Y356918D01*
X449355D01*
Y357020D01*
X449296Y357079D01*
X449195D01*
Y357179D01*
X448987Y357388D01*
X448485Y357472D01*
X447867Y358040D01*
X447664Y358669D01*
X447597Y359459D01*
X447705Y360111D01*
Y360591D01*
X448318Y361381D01*
X448428Y361522D01*
X448460Y361552D01*
X448826D01*
X448987Y361712D01*
X449467Y361712D01*
X449467Y362193D01*
X449307Y362353D01*
X448506Y362673D01*
X448237Y362763D01*
X448237D01*
X447065Y363154D01*
X446647Y363805D01*
X446584Y364756D01*
X446584Y365236D01*
X446216Y365875D01*
X446189Y366022D01*
X446495Y366298D01*
X447126Y366468D01*
X447544Y366249D01*
X447669Y366102D01*
X447705Y365877D01*
X448066Y365877D01*
X448186Y365717D01*
X448666Y364876D01*
Y364756D01*
X448715Y364706D01*
Y364758D01*
X448875D01*
Y364598D01*
X449035Y364598D01*
Y364438D01*
X449195D01*
Y364300D01*
X449223Y364278D01*
X449355D01*
Y364172D01*
X449423Y364118D01*
X449515D01*
Y364044D01*
X449623Y363958D01*
X449835Y363958D01*
Y363798D01*
X449995D01*
Y363638D01*
X450155D01*
Y363582D01*
X450267Y363554D01*
X450268Y363552D01*
Y363478D01*
X450315D01*
Y363474D01*
X450588Y363474D01*
X450795Y363415D01*
Y363478D01*
Y363638D01*
X450635D01*
Y363798D01*
Y363958D01*
Y364118D01*
X450475D01*
Y364278D01*
Y364438D01*
X450315D01*
Y364598D01*
Y364758D01*
Y364918D01*
X450155Y364918D01*
Y365078D01*
Y365238D01*
X449995D01*
Y365398D01*
Y365558D01*
Y365718D01*
X450155D01*
Y365558D01*
Y365398D01*
X450315D01*
X450315Y365238D01*
Y365078D01*
X450315Y364918D01*
X450475D01*
Y364758D01*
Y364598D01*
X450635Y364598D01*
Y364438D01*
Y364278D01*
X450795D01*
Y364118D01*
X450955D01*
Y363958D01*
X451115Y363958D01*
Y363798D01*
X451275D01*
Y363638D01*
Y363478D01*
X451435D01*
Y363318D01*
X451755D01*
X451755Y363158D01*
X451915D01*
Y362998D01*
X452075D01*
Y362838D01*
X452235D01*
Y362739D01*
X452342Y362678D01*
X452555D01*
Y362518D01*
X452715D01*
Y362430D01*
X452823Y362358D01*
X452875D01*
Y362346D01*
X453152Y362299D01*
X453355Y362205D01*
Y362358D01*
Y362518D01*
X453195D01*
Y362678D01*
Y362838D01*
X453035D01*
X453035Y362998D01*
Y363158D01*
X452875D01*
Y363318D01*
Y363478D01*
X452715D01*
Y363638D01*
X452875D01*
Y363798D01*
X453035D01*
Y363638D01*
Y363478D01*
X453195D01*
Y363318D01*
Y363158D01*
Y362998D01*
X453355D01*
Y362838D01*
Y362678D01*
X453515D01*
Y362518D01*
X453675D01*
Y362358D01*
Y362198D01*
X453835D01*
Y362038D01*
X453995D01*
Y361878D01*
X454155Y361878D01*
Y361718D01*
X454315D01*
Y361558D01*
X454475D01*
Y361398D01*
X454635D01*
Y361240D01*
X454637Y361238D01*
X454795D01*
Y361120D01*
X454850Y361078D01*
X454955D01*
Y361000D01*
X455064Y360918D01*
X455275D01*
Y360758D01*
X455435D01*
Y360640D01*
X455490Y360598D01*
X455755D01*
Y360438D01*
X455915D01*
Y360350D01*
X456022Y360278D01*
X456075D01*
Y360254D01*
X456194Y360165D01*
X456194Y360118D01*
X456395D01*
Y360111D01*
X456514D01*
X456555Y360125D01*
Y360278D01*
Y360438D01*
Y360598D01*
Y360758D01*
X456395D01*
Y360918D01*
Y361078D01*
Y361238D01*
X456235D01*
Y361398D01*
Y361558D01*
Y361718D01*
X456075D01*
Y361878D01*
Y362038D01*
Y362198D01*
X455915D01*
Y362358D01*
Y362518D01*
X455755D01*
Y362678D01*
Y362838D01*
X455595D01*
Y362998D01*
Y363158D01*
Y363318D01*
X455435D01*
Y363478D01*
X455595D01*
Y363318D01*
X455755D01*
Y363158D01*
Y362998D01*
X455915D01*
Y362838D01*
Y362678D01*
X456075D01*
Y362518D01*
Y362358D01*
X456235D01*
Y362198D01*
Y362038D01*
X456395D01*
Y361878D01*
X456555D01*
Y361718D01*
X456715D01*
Y361558D01*
X456875D01*
Y361398D01*
X457035D01*
Y361238D01*
X457195D01*
Y361078D01*
X457515D01*
Y360918D01*
X457674D01*
Y360758D01*
X457994D01*
Y360598D01*
X458154D01*
Y360442D01*
X458199Y360438D01*
X458475D01*
Y360332D01*
X458582Y360278D01*
X458795D01*
Y360172D01*
X458901Y360118D01*
X459114D01*
Y360012D01*
X459221Y359958D01*
X459434D01*
Y359951D01*
X459557D01*
Y359798D01*
X459754D01*
Y359791D01*
X459877D01*
Y359638D01*
X460074D01*
Y359630D01*
X460197D01*
Y359478D01*
X460394D01*
Y359470D01*
X460518D01*
Y359318D01*
X460714D01*
Y359310D01*
X460838D01*
Y359158D01*
X460874D01*
Y359150D01*
X460998D01*
Y358998D01*
X461194D01*
Y358990D01*
X461319D01*
Y358838D01*
X461514D01*
Y358830D01*
X461639D01*
Y358678D01*
X461674D01*
Y358670D01*
X461799Y358670D01*
X461799Y358518D01*
X461994D01*
Y358509D01*
X462119D01*
Y358349D01*
X463241D01*
X464041Y358189D01*
X464541Y358022D01*
X465296Y357697D01*
X465803Y357388D01*
X466283Y357068D01*
X466334Y357068D01*
X467114Y356601D01*
Y356759D01*
X466954D01*
Y356918D01*
Y357079D01*
X466794D01*
Y357239D01*
Y357398D01*
X466634D01*
Y357559D01*
Y357719D01*
X466474D01*
Y357878D01*
Y358038D01*
X466634D01*
Y357878D01*
X466794D01*
Y357719D01*
Y357559D01*
X466954D01*
Y357398D01*
Y357239D01*
X467114D01*
Y357079D01*
X467114Y356918D01*
X467274D01*
Y356759D01*
Y356599D01*
X467434D01*
Y356439D01*
Y356283D01*
X467438Y356279D01*
X467594D01*
Y356119D01*
X467754D01*
Y355959D01*
Y355799D01*
X467914D01*
Y355639D01*
X468074D01*
Y355479D01*
Y355319D01*
X468234D01*
Y355159D01*
Y355024D01*
X468250Y354999D01*
X468394D01*
Y354839D01*
X468554D01*
Y354679D01*
Y354544D01*
X468570Y354519D01*
X468714D01*
Y354359D01*
X468874D01*
Y354199D01*
Y354064D01*
X468890Y354039D01*
X469034D01*
Y353879D01*
X469194D01*
Y353719D01*
X469354D01*
X469353Y353559D01*
Y353399D01*
X469514D01*
Y353239D01*
X469674D01*
X469674Y353079D01*
X469674Y352944D01*
X469690Y352919D01*
X469834D01*
Y352759D01*
X469994D01*
Y352599D01*
X470154D01*
Y352439D01*
Y352397D01*
X470272Y352279D01*
X470313D01*
X470313Y352119D01*
X470474D01*
Y352082D01*
X470628Y351959D01*
X470634D01*
Y352119D01*
X470634Y352279D01*
Y352439D01*
Y352599D01*
Y352759D01*
Y352919D01*
X470474D01*
Y353079D01*
Y353239D01*
Y353399D01*
Y353559D01*
Y353719D01*
Y353879D01*
X470313D01*
Y354039D01*
Y354199D01*
Y354359D01*
X470474D01*
Y354199D01*
X470634D01*
Y354039D01*
Y353879D01*
Y353719D01*
X470634Y353559D01*
X470793D01*
Y353399D01*
Y353239D01*
Y353079D01*
Y352919D01*
Y352759D01*
X470953D01*
Y352599D01*
Y352439D01*
Y352279D01*
X471113D01*
Y352119D01*
Y351959D01*
Y351799D01*
X471273D01*
Y351639D01*
Y351479D01*
Y351446D01*
X471409Y351356D01*
Y351319D01*
X471433D01*
Y351159D01*
Y351142D01*
X471593D01*
Y351159D01*
X471753D01*
Y351319D01*
Y351479D01*
X471913D01*
Y351639D01*
Y351799D01*
X472073D01*
Y351959D01*
Y352119D01*
Y352279D01*
X472233D01*
Y352439D01*
Y352599D01*
Y352759D01*
X472393D01*
Y352919D01*
Y353079D01*
Y353239D01*
Y353399D01*
X472553D01*
Y353559D01*
Y353719D01*
Y353879D01*
Y354039D01*
Y354199D01*
X472713D01*
Y354359D01*
Y354519D01*
Y354679D01*
Y354839D01*
X472873D01*
Y354679D01*
Y354519D01*
Y354359D01*
Y354199D01*
Y354039D01*
Y353879D01*
Y353719D01*
Y353559D01*
X472713D01*
Y353399D01*
Y353239D01*
Y353079D01*
Y352919D01*
Y352759D01*
Y352599D01*
X472873D01*
Y352439D01*
Y352279D01*
Y352119D01*
Y351959D01*
Y351799D01*
Y351639D01*
X473033D01*
Y351479D01*
Y351319D01*
Y351159D01*
X473193D01*
Y350999D01*
Y350839D01*
X473353D01*
Y350679D01*
Y350519D01*
Y350471D01*
X473437Y350359D01*
X473513D01*
Y350199D01*
Y350159D01*
X473571Y350101D01*
X473591Y350039D01*
X473673D01*
X473673Y349879D01*
Y349861D01*
X473811D01*
X473833Y349838D01*
Y349879D01*
X473993D01*
Y350039D01*
Y350199D01*
X473993Y350359D01*
Y350519D01*
X473993Y350679D01*
X473993Y350839D01*
X473993Y350999D01*
Y351159D01*
Y351319D01*
Y351479D01*
Y351639D01*
X473993Y351799D01*
X474153D01*
Y351959D01*
Y352119D01*
X474313D01*
Y351959D01*
Y351799D01*
Y351639D01*
Y351479D01*
Y351319D01*
Y351159D01*
Y350999D01*
Y350839D01*
Y350679D01*
Y350519D01*
Y350359D01*
X474473D01*
Y350199D01*
Y350039D01*
X474473Y349879D01*
Y349719D01*
X474633D01*
Y349559D01*
Y349399D01*
Y349239D01*
Y349079D01*
Y348996D01*
X474659Y348919D01*
X474793D01*
Y348759D01*
Y348599D01*
Y348516D01*
X474819Y348439D01*
X474953D01*
Y348279D01*
Y348119D01*
X475113D01*
Y347959D01*
Y347799D01*
Y347646D01*
X475116Y347639D01*
X475273D01*
Y347479D01*
Y347319D01*
Y347236D01*
X475299Y347159D01*
X475433D01*
Y346999D01*
Y346839D01*
Y346777D01*
X475482Y346679D01*
X475593D01*
Y346519D01*
Y346457D01*
X475642Y346359D01*
X475753D01*
Y346199D01*
Y346137D01*
X475802Y346040D01*
X475913D01*
Y345880D01*
Y345817D01*
X475962Y345719D01*
X476073D01*
Y345560D01*
Y345497D01*
X476122Y345400D01*
X476233D01*
Y345239D01*
Y345177D01*
X476282Y345080D01*
X476393Y345079D01*
X476393Y344920D01*
Y344857D01*
X476442Y344760D01*
X476553D01*
Y344600D01*
Y344537D01*
X476579Y344484D01*
X476602Y344440D01*
X476713D01*
Y344280D01*
Y344207D01*
X476748Y344120D01*
X476873D01*
Y343960D01*
Y343807D01*
X476876Y343800D01*
X477033D01*
X477033Y343640D01*
X477033Y343480D01*
X477193D01*
Y343320D01*
Y343160D01*
Y343088D01*
X477228Y343000D01*
X477353D01*
Y342840D01*
Y342688D01*
X477356Y342680D01*
X477513D01*
Y342520D01*
Y342360D01*
Y342333D01*
X477518D01*
X477575Y342200D01*
X477673D01*
Y342040D01*
Y341880D01*
Y341853D01*
X477815D01*
Y341720D01*
X477833D01*
Y341560D01*
Y341400D01*
X477993D01*
Y341240D01*
Y341080D01*
Y341034D01*
X478107Y340920D01*
X478153D01*
Y340760D01*
Y340720D01*
X478295Y340625D01*
Y340600D01*
X478313D01*
Y340440D01*
Y340411D01*
X478616D01*
X478633Y340398D01*
Y340440D01*
Y340600D01*
Y340760D01*
X478793D01*
Y340920D01*
Y341080D01*
Y341240D01*
Y341400D01*
X478953D01*
Y341560D01*
Y341720D01*
Y341880D01*
X479113D01*
Y342040D01*
Y342200D01*
Y342360D01*
Y342520D01*
X479273D01*
Y342680D01*
Y342840D01*
Y343000D01*
Y343160D01*
Y343320D01*
X479433D01*
Y343480D01*
Y343640D01*
Y343800D01*
X479593D01*
Y343640D01*
Y343480D01*
Y343320D01*
Y343160D01*
Y343000D01*
Y342840D01*
X479433D01*
Y342680D01*
Y342520D01*
Y342360D01*
Y342200D01*
Y342040D01*
Y341880D01*
Y341720D01*
Y341560D01*
Y341400D01*
Y341240D01*
Y341080D01*
Y340920D01*
Y340760D01*
Y340600D01*
Y340440D01*
Y340280D01*
Y340120D01*
X479593D01*
Y339960D01*
Y339800D01*
Y339640D01*
Y339480D01*
Y339320D01*
X479577D01*
Y339290D01*
X479737Y339050D01*
Y338970D01*
X479737Y338970D01*
X479737Y338490D01*
X480217Y337529D01*
Y336568D01*
X481499Y336568D01*
Y336568D01*
X481659Y336728D01*
X481659Y336728D01*
X482459Y337689D01*
X482459D01*
Y337689D01*
X482471Y337700D01*
X483741Y337689D01*
X484542Y337048D01*
X484566D01*
X484702Y336943D01*
X484702Y336728D01*
X484795D01*
X484862Y335458D01*
Y335447D01*
X485194Y335352D01*
X486006Y335024D01*
X486057Y335003D01*
X486316Y334570D01*
X486358Y334314D01*
X486311Y333230D01*
X486143Y332564D01*
X485983Y332404D01*
Y331603D01*
X486143Y331122D01*
Y331029D01*
X485959Y330346D01*
X485860Y330123D01*
X485471Y329618D01*
X485342Y329521D01*
X484862Y329200D01*
X484702Y329040D01*
X483741Y328720D01*
Y328400D01*
X483741Y328294D01*
Y327801D01*
X483752D01*
Y327641D01*
Y327481D01*
Y327321D01*
Y327161D01*
Y327001D01*
Y326841D01*
Y326681D01*
Y326521D01*
Y326361D01*
Y326304D01*
X483852Y326187D01*
X483901Y325833D01*
Y325090D01*
X483901Y324876D01*
X483901Y324793D01*
X483901Y324396D01*
X483962Y324208D01*
X484072Y323873D01*
Y323961D01*
Y324121D01*
X484232D01*
Y324281D01*
Y324441D01*
X484392D01*
Y324601D01*
Y324761D01*
Y324921D01*
X484552D01*
Y325081D01*
Y325241D01*
Y325401D01*
X484712D01*
Y325561D01*
Y325721D01*
Y325881D01*
X484872D01*
Y325721D01*
Y325561D01*
Y325401D01*
Y325241D01*
X484712Y325241D01*
Y325081D01*
Y324921D01*
Y324761D01*
Y324601D01*
X484552D01*
Y324441D01*
Y324281D01*
Y324121D01*
Y323961D01*
Y323801D01*
X484392Y323801D01*
Y323641D01*
Y323481D01*
Y323321D01*
Y323161D01*
Y323001D01*
Y322841D01*
X484247D01*
X484232Y322544D01*
Y322521D01*
Y322361D01*
Y322201D01*
Y322042D01*
Y321881D01*
X484149D01*
X484072Y321420D01*
Y321402D01*
Y321241D01*
Y321082D01*
Y320922D01*
X484042D01*
X483912Y320435D01*
Y320282D01*
Y320122D01*
Y319962D01*
X483815D01*
X483752Y319649D01*
Y319642D01*
Y319482D01*
Y319322D01*
X483664D01*
X483592Y319072D01*
Y319002D01*
Y318842D01*
Y318682D01*
X483481D01*
X483432Y318512D01*
Y318362D01*
Y318202D01*
X483366D01*
X483272Y317874D01*
Y317722D01*
X483224D01*
X483112Y317386D01*
Y317242D01*
X483064D01*
X482952Y316906D01*
Y316762D01*
X482887D01*
X482793Y316573D01*
Y316442D01*
X482780D01*
Y316228D01*
X482893Y316152D01*
X482916Y316122D01*
X483112D01*
Y316282D01*
X483592D01*
Y316442D01*
X484072D01*
Y316602D01*
X484552D01*
Y316762D01*
X484712D01*
Y316922D01*
X485032D01*
Y316762D01*
X484872D01*
Y316602D01*
X484712D01*
Y316442D01*
X484392D01*
Y316282D01*
X484232D01*
Y316122D01*
X484072D01*
Y315962D01*
X483912D01*
Y315802D01*
Y315642D01*
X483752D01*
Y315482D01*
X483592D01*
Y315322D01*
X483432D01*
Y315162D01*
X483272D01*
Y315002D01*
Y314842D01*
X483112D01*
Y314682D01*
X482952D01*
Y314522D01*
Y314362D01*
X482793D01*
Y314202D01*
X482668D01*
X482632Y314139D01*
Y314042D01*
X482579D01*
X482472Y313849D01*
Y313722D01*
X482386D01*
X482313Y313618D01*
Y313562D01*
X482273D01*
X482152Y313392D01*
Y313242D01*
X482046D01*
X482028Y313216D01*
X481992Y313167D01*
Y313082D01*
X481931D01*
X481833Y312945D01*
Y312922D01*
Y312762D01*
X481701D01*
X481673Y312723D01*
X481673Y312602D01*
X481590D01*
X481512Y312488D01*
Y312442D01*
X481481D01*
X481353Y312252D01*
Y312122D01*
X481262D01*
X481193Y312029D01*
Y311962D01*
X481142D01*
X481038Y311823D01*
X481033Y311816D01*
Y311802D01*
Y311642D01*
X480902D01*
X480873Y311603D01*
Y311482D01*
X480821D01*
X480713Y311327D01*
Y311322D01*
X480709D01*
X480651Y311238D01*
X480553Y311121D01*
Y311002D01*
X480498D01*
X480411Y310787D01*
X480377Y310782D01*
X480330Y310641D01*
X480217Y310622D01*
Y310302D01*
X480184Y310203D01*
X480393D01*
Y310362D01*
X480713D01*
Y310522D01*
X481033Y310522D01*
Y310683D01*
X481353D01*
Y310842D01*
X481673D01*
X481673Y310683D01*
X481512D01*
Y310522D01*
X481193D01*
Y310362D01*
X481033D01*
Y310203D01*
X480713D01*
Y310042D01*
X480553D01*
Y309883D01*
X480393D01*
Y309722D01*
X480233D01*
Y309562D01*
X479971D01*
X479897Y309341D01*
X479593Y309113D01*
Y309083D01*
X479553D01*
X479433Y308993D01*
Y308923D01*
X479339D01*
X479273Y308873D01*
Y308763D01*
X479134D01*
X478953Y308617D01*
Y308603D01*
X478934D01*
X478793Y308490D01*
Y308443D01*
X478734D01*
X478656Y308380D01*
X478633D01*
Y308283D01*
X478518D01*
X478456Y308220D01*
X478313Y308125D01*
Y308123D01*
X478310D01*
X478184Y308039D01*
X478153Y308018D01*
Y307963D01*
X478070D01*
X477993Y307911D01*
Y307803D01*
X477854D01*
X477673Y307659D01*
Y307643D01*
X477653D01*
X477629Y307624D01*
X477513Y307540D01*
Y307483D01*
X477430D01*
X477335Y307419D01*
X477334Y307419D01*
X477334Y307419D01*
X477193Y307325D01*
Y307323D01*
X477190D01*
X477033Y307218D01*
Y307163D01*
X476950D01*
X476873Y307111D01*
Y307003D01*
X476758D01*
X476534Y306778D01*
X476534Y306607D01*
X476512Y306523D01*
X477193D01*
X477193Y306683D01*
X477833D01*
Y306843D01*
X478313D01*
Y307003D01*
X478793D01*
Y306843D01*
X478473D01*
Y306683D01*
X478153D01*
Y306523D01*
X477833D01*
Y306363D01*
X477513D01*
Y306203D01*
X477353D01*
Y306043D01*
X477033D01*
X477033Y305883D01*
X476873D01*
Y305723D01*
X476553D01*
Y305563D01*
X476393D01*
Y305403D01*
X476073D01*
X476073Y305243D01*
X475913D01*
Y305083D01*
X475753D01*
Y304923D01*
X475608D01*
X475433Y304792D01*
Y304763D01*
X475395D01*
X475273Y304672D01*
Y304603D01*
X475181D01*
X475113Y304552D01*
X475113Y304443D01*
X474976D01*
X474793Y304297D01*
Y304283D01*
X474776D01*
X474692Y304216D01*
X474633Y304177D01*
Y304123D01*
X474553D01*
X474473Y304070D01*
X474473Y303963D01*
X474328D01*
X474153Y303832D01*
Y303803D01*
X474115D01*
X473993Y303712D01*
Y303643D01*
X473901D01*
X473833Y303592D01*
Y303483D01*
X473683D01*
X473513Y303361D01*
Y303323D01*
X473461D01*
X473353Y303246D01*
Y303163D01*
X473238D01*
X473033Y303015D01*
Y303003D01*
X473016D01*
X472873Y302900D01*
Y302843D01*
X472793D01*
X472690Y302775D01*
X472690Y302774D01*
X472690Y302774D01*
X472536Y302621D01*
X472495Y302593D01*
X472393Y302532D01*
Y302523D01*
X472378D01*
X472263Y302454D01*
X472209Y302454D01*
X472073Y302363D01*
Y302363D01*
X472073D01*
X471913Y302257D01*
Y302203D01*
X471833D01*
X471593Y302043D01*
Y302043D01*
X471593D01*
X471489Y301974D01*
X471409Y301974D01*
X471248Y301814D01*
Y301813D01*
X470920Y301403D01*
X471273D01*
Y301563D01*
X471913D01*
Y301723D01*
X472073D01*
Y301563D01*
Y301403D01*
X471433D01*
Y301243D01*
X470953D01*
Y301083D01*
X470606D01*
X470371Y300934D01*
X470127Y300853D01*
X469994Y300808D01*
Y300763D01*
X469860D01*
X469647Y300692D01*
X469487Y300532D01*
X469487D01*
Y300416D01*
X469402Y300283D01*
X469834D01*
Y300123D01*
X469994D01*
Y300283D01*
X470953D01*
Y300443D01*
X471113D01*
Y300283D01*
X471273D01*
Y300123D01*
X470474D01*
Y299963D01*
X469834D01*
Y299803D01*
X469514D01*
Y299643D01*
X469194D01*
X469194Y299483D01*
X468892D01*
X468846Y299411D01*
X468714Y299345D01*
Y299323D01*
X468671D01*
X468554Y299265D01*
Y299163D01*
X468351D01*
X468074Y299025D01*
Y299003D01*
X468031D01*
X467885Y298931D01*
X467754Y298865D01*
Y298843D01*
X467711D01*
X467434Y298705D01*
Y298683D01*
X467391D01*
X467114Y298545D01*
Y298524D01*
X467071D01*
X466924Y298450D01*
Y298349D01*
X466826Y298290D01*
X466444D01*
Y298130D01*
X466123D01*
Y297970D01*
X465643D01*
Y297970D01*
X465514Y297927D01*
Y297883D01*
X465384D01*
X465034Y297767D01*
Y297724D01*
X464905D01*
X464682Y297649D01*
X464554Y297617D01*
Y297563D01*
X464339D01*
X463914Y297457D01*
Y297404D01*
X463699D01*
X463401Y297329D01*
X463383Y297314D01*
X462838Y297169D01*
X462760D01*
X462509Y297009D01*
X461799Y297009D01*
X461034Y296856D01*
Y296764D01*
X460998D01*
Y296604D01*
X462154D01*
Y296444D01*
X461194D01*
Y296284D01*
X460130D01*
X459861Y296208D01*
X459717D01*
Y296048D01*
X458116D01*
Y295888D01*
X456514D01*
Y295888D01*
X456354Y295727D01*
X453807Y295728D01*
X453471Y295728D01*
X453195Y295617D01*
Y295484D01*
X453835D01*
Y295324D01*
X452715D01*
Y295425D01*
X452670Y295407D01*
Y295407D01*
X450908D01*
Y295567D01*
X449627D01*
Y295567D01*
X445463D01*
Y295727D01*
X444022D01*
X443862Y295888D01*
Y295888D01*
X442740Y296048D01*
X442658Y296048D01*
X441996D01*
Y295964D01*
X442156D01*
Y295804D01*
X441836D01*
Y295964D01*
Y296048D01*
X441676D01*
Y295964D01*
X441516D01*
Y296048D01*
X441299D01*
X441071Y296124D01*
X441036D01*
Y296135D01*
X440818Y296208D01*
X440178Y296368D01*
X439800Y296444D01*
X439756D01*
Y296452D01*
X439377Y296528D01*
X438491Y296764D01*
X438476D01*
Y296768D01*
X438233Y296832D01*
X437615Y297009D01*
X437391Y297084D01*
X437356D01*
Y297095D01*
X437135Y297169D01*
X436494D01*
X436483Y297166D01*
X436236Y297167D01*
Y297084D01*
X436396D01*
Y296924D01*
X436556D01*
Y296764D01*
X436396D01*
Y296924D01*
X436076Y296924D01*
Y297084D01*
X435596D01*
X435596Y297168D01*
X435213Y297169D01*
X434231Y297320D01*
X433611Y297489D01*
X433115Y297688D01*
X433000D01*
Y297734D01*
X432811Y297810D01*
X432330Y297810D01*
Y297970D01*
X432010D01*
Y298059D01*
D01*
Y298130D01*
X431905Y298167D01*
X431881D01*
Y298176D01*
X431696Y298242D01*
X431689Y298290D01*
X431565Y298327D01*
X431241Y298327D01*
Y298470D01*
X431136Y298487D01*
X430762D01*
Y298628D01*
X430632Y298647D01*
X430602D01*
Y298651D01*
X430548Y298659D01*
X430248Y298771D01*
X429767D01*
X429643Y298677D01*
Y298647D01*
X429803D01*
Y298487D01*
X429963D01*
Y298327D01*
Y298167D01*
X429323D01*
Y298327D01*
X429176D01*
X429164Y298318D01*
Y298167D01*
Y298008D01*
X429323D01*
X429323Y297848D01*
X429483D01*
Y297688D01*
X429643D01*
Y297528D01*
X429803D01*
Y297368D01*
Y297208D01*
X429963D01*
Y297048D01*
X430123D01*
Y296889D01*
X430282D01*
Y296729D01*
Y296569D01*
X430442D01*
Y296409D01*
X430602D01*
Y296249D01*
X430762D01*
Y296089D01*
X430922D01*
Y295930D01*
X431082D01*
Y295770D01*
X431241D01*
Y295610D01*
X431401D01*
Y295450D01*
X431561D01*
Y295290D01*
X431721D01*
Y295130D01*
X431881D01*
Y294970D01*
Y294811D01*
X431597D01*
X431701Y294651D01*
X431721D01*
Y294620D01*
X431805Y294491D01*
X431881D01*
Y294331D01*
X432041D01*
Y294171D01*
X432201D01*
Y294011D01*
X432520D01*
Y293851D01*
X432680D01*
Y293692D01*
X432840D01*
Y293532D01*
X433000D01*
Y293372D01*
X433320D01*
Y293212D01*
X433479D01*
Y293052D01*
X433639D01*
Y292892D01*
Y292733D01*
X433000D01*
Y292892D01*
X432041D01*
Y293052D01*
X431082D01*
Y293165D01*
X430728D01*
Y293052D01*
X430922D01*
Y292892D01*
X431082D01*
Y292733D01*
X431401D01*
Y292573D01*
X431721D01*
Y292413D01*
X431881D01*
Y292253D01*
X432201D01*
Y292093D01*
X432520D01*
Y291933D01*
X432840D01*
Y291773D01*
X433160D01*
Y291614D01*
X433479D01*
Y291454D01*
Y291394D01*
X433932Y291243D01*
X434732Y290763D01*
X434904Y290763D01*
X436174Y290602D01*
Y290602D01*
X437615D01*
Y290442D01*
X439217D01*
Y290282D01*
X441299D01*
Y290122D01*
X450428D01*
Y290282D01*
X452350D01*
Y290442D01*
X453791D01*
Y290602D01*
X455073D01*
Y290602D01*
X456194Y290763D01*
X457155Y290923D01*
X457955Y291083D01*
X458327Y291157D01*
X458756Y291243D01*
X459358Y291403D01*
X459557D01*
Y291456D01*
X459960Y291563D01*
X460197D01*
Y291723D01*
X460998D01*
Y291884D01*
X461479D01*
Y292044D01*
X462119D01*
Y292204D01*
X462760D01*
Y292364D01*
X463241D01*
Y292524D01*
X463721D01*
Y292684D01*
X464202D01*
X464202Y292845D01*
X464842D01*
Y293005D01*
X465323D01*
Y293165D01*
X465643D01*
Y293325D01*
X466123D01*
Y293485D01*
X466604D01*
X468205Y294126D01*
X468494Y294241D01*
X469006Y294446D01*
X469327Y294606D01*
X470288Y295087D01*
X471248Y295567D01*
Y295662D01*
X471358Y295727D01*
X471569D01*
Y295727D01*
X472137Y296012D01*
X472850Y296368D01*
X473651Y296848D01*
X473971Y297009D01*
X473972Y297009D01*
X474729Y297487D01*
X474978Y297645D01*
X475252Y297809D01*
X475733Y298130D01*
X476373Y298610D01*
X476854Y298930D01*
X477094Y299171D01*
X477238Y299283D01*
X477495Y299411D01*
X478135Y299891D01*
X478135Y299891D01*
X478168Y299918D01*
X478936Y300532D01*
X479096Y300692D01*
X479096D01*
X479112Y300708D01*
X480057Y301493D01*
X480057Y301493D01*
X481178Y302614D01*
D01*
X482620Y304056D01*
X482940Y304376D01*
X482940Y304376D01*
X483741Y305337D01*
X483901Y305497D01*
X484283Y305975D01*
X484542Y306298D01*
X484927Y306812D01*
X485503Y307579D01*
X486784Y309501D01*
X486802Y309537D01*
X486944Y309821D01*
X486944Y309821D01*
X487264Y310302D01*
X487745Y311263D01*
X488065Y311743D01*
X488706Y313025D01*
X489026Y313825D01*
X489026D01*
Y314023D01*
X489065Y314146D01*
X489186D01*
Y314466D01*
X489346D01*
Y314946D01*
X489506D01*
Y315267D01*
X489667D01*
Y315747D01*
X489827D01*
Y316228D01*
X489987D01*
Y316388D01*
X489987Y316548D01*
X490147D01*
Y317028D01*
X490307D01*
Y317669D01*
X490467D01*
Y318150D01*
X490628D01*
Y318630D01*
X490788D01*
Y319271D01*
X490948D01*
Y319751D01*
X491108D01*
Y320712D01*
X491268D01*
Y321513D01*
X491428D01*
X491428Y321673D01*
Y322314D01*
X491589D01*
Y323435D01*
X491749D01*
Y324876D01*
X491909D01*
Y328079D01*
X492069D01*
Y329040D01*
X491909D01*
Y332083D01*
X491749D01*
Y333525D01*
X491749Y333685D01*
X491589Y334806D01*
X491428Y335767D01*
Y335767D01*
X491428Y335767D01*
X491268Y336568D01*
X491210D01*
X491108Y336944D01*
Y337369D01*
X490948D01*
Y338009D01*
X490788D01*
Y338650D01*
X490628D01*
Y339290D01*
X490467D01*
Y339931D01*
X490307D01*
Y340411D01*
X490147D01*
Y341052D01*
X490147D01*
X489455Y343129D01*
X489186Y343935D01*
X489186Y343935D01*
X488866Y344736D01*
X488545Y345536D01*
X488511D01*
X488385Y345820D01*
Y345857D01*
X488225D01*
Y346337D01*
X488065D01*
Y346658D01*
X487905D01*
Y346978D01*
X487745D01*
Y347298D01*
X487585Y347298D01*
Y347619D01*
X487464D01*
X487424Y347741D01*
Y347939D01*
X487424Y347939D01*
Y348099D01*
X487424D01*
X486784Y349380D01*
X486303Y350181D01*
X485823Y351142D01*
X485472Y351726D01*
X484862Y352744D01*
X484221Y353705D01*
X484198Y353739D01*
X483901Y354185D01*
X483878Y354219D01*
X483260Y355146D01*
D01*
X482940Y355466D01*
X482940Y355626D01*
X482940D01*
X482597Y356038D01*
X482459Y356267D01*
X482299Y356427D01*
X481979Y356908D01*
X481979Y356908D01*
X481965Y356925D01*
X481338Y357677D01*
Y357709D01*
X481178Y357869D01*
X480538Y358670D01*
Y358670D01*
X480506D01*
X480377Y358830D01*
Y358830D01*
X480345D01*
X480217Y358990D01*
Y358990D01*
X480185D01*
X480057Y359150D01*
Y359150D01*
X480014D01*
X479897Y359287D01*
Y359310D01*
X479737D01*
Y359470D01*
X479577D01*
Y359791D01*
X479417D01*
Y359951D01*
X479256D01*
Y360111D01*
X479096D01*
Y360271D01*
X478936D01*
Y360431D01*
X478776D01*
Y360591D01*
X478616D01*
Y360752D01*
X478456D01*
Y360912D01*
X478295D01*
Y361072D01*
X478135D01*
Y361232D01*
X477975D01*
Y361392D01*
X477815D01*
Y361552D01*
X477655D01*
Y361712D01*
X477495D01*
Y361873D01*
X477334D01*
Y362033D01*
X477174D01*
Y362193D01*
X477014D01*
Y362353D01*
X476854D01*
Y362513D01*
X476694D01*
Y362673D01*
X476534D01*
Y362834D01*
X476373D01*
Y362994D01*
X476213D01*
Y363154D01*
X476053D01*
Y363314D01*
X475893D01*
Y363474D01*
X475573D01*
Y363634D01*
X475412D01*
Y363795D01*
X475252D01*
Y363955D01*
X475092D01*
Y364115D01*
X474932D01*
Y364275D01*
X474772D01*
Y364435D01*
X474671D01*
X474612Y364490D01*
Y364595D01*
X474612D01*
X473896Y365168D01*
X473651Y365396D01*
X472850Y366037D01*
X472850Y366037D01*
X472732Y366126D01*
X472210Y366517D01*
X472049Y366677D01*
X471809Y366838D01*
X471409Y367158D01*
X470768Y367638D01*
X470603Y367748D01*
X469647Y368439D01*
X468686Y369080D01*
X468686Y369080D01*
X468661Y369096D01*
X467456Y369900D01*
X467244Y370041D01*
X465643Y371002D01*
Y371002D01*
X465590D01*
X465323Y371162D01*
X465323D01*
X464842Y371482D01*
Y371482D01*
X464522D01*
Y371642D01*
X464202D01*
Y371802D01*
X463881D01*
Y371963D01*
X463561D01*
Y372123D01*
X463241D01*
Y372283D01*
X462920D01*
Y372443D01*
X462600D01*
Y372603D01*
X462390D01*
X462280Y372669D01*
Y372763D01*
X460998Y373404D01*
X460918D01*
X460518Y373564D01*
X460358Y374685D01*
Y375166D01*
X459076Y375806D01*
X458116Y376127D01*
X457955Y376287D01*
X457731Y376383D01*
X457635Y376447D01*
X456834Y376767D01*
X456354Y376928D01*
X455553Y377248D01*
X455553D01*
X454592Y377568D01*
X453471Y377888D01*
X453455Y377888D01*
X453393D01*
X453388Y377889D01*
X452830Y378049D01*
X452190Y378209D01*
X451389Y378369D01*
X451008Y378423D01*
X450268Y378529D01*
Y379971D01*
X450268D01*
X450034Y380320D01*
X449787Y381092D01*
Y381412D01*
X444822Y381412D01*
Y381252D01*
X443541D01*
X443541Y381252D01*
X442560Y381255D01*
X441818Y381931D01*
X441779Y382069D01*
Y382213D01*
X440338D01*
X439377Y382053D01*
X438576Y381892D01*
X438576Y381893D01*
X437775Y381732D01*
X436975Y381572D01*
X435705Y381538D01*
X435533Y381572D01*
X435533Y381572D01*
X434252D01*
Y381572D01*
X433017Y381656D01*
X432490Y381892D01*
X432490Y382373D01*
X431850Y382373D01*
X431689Y382213D01*
X431220Y382213D01*
X430088D01*
X430088Y382163D01*
X429883Y382036D01*
X429997D01*
Y381876D01*
X429677D01*
Y381716D01*
X429362D01*
X429357Y381713D01*
Y381557D01*
X429197D01*
Y381396D01*
X428877Y381396D01*
X428877Y381236D01*
X428748D01*
X428641Y380917D01*
X428877D01*
X428877Y381077D01*
X429677D01*
Y380917D01*
X429357D01*
Y380756D01*
X429037D01*
Y380597D01*
X428877D01*
Y380437D01*
X428479D01*
X428239Y379957D01*
X428557D01*
Y380117D01*
X429197Y380117D01*
Y379957D01*
X428877D01*
Y379797D01*
X428557D01*
Y379637D01*
X428237D01*
Y379477D01*
X428077D01*
Y379317D01*
X427803D01*
X427757Y379278D01*
Y379157D01*
X427332D01*
X427277Y379134D01*
Y378997D01*
X426957D01*
Y378837D01*
X426564D01*
Y378529D01*
X426556Y378517D01*
X427917D01*
Y378357D01*
X427437D01*
Y378197D01*
X427117D01*
Y378037D01*
X426637D01*
Y377877D01*
X426129D01*
X426031Y377728D01*
X425802Y377557D01*
X425997D01*
Y377397D01*
X425589D01*
X425517Y377339D01*
Y377237D01*
X425389D01*
X425197Y377084D01*
Y377077D01*
X425188D01*
X425158Y377053D01*
X424696Y377018D01*
X424649Y377077D01*
X424397D01*
Y376917D01*
X423917D01*
Y376757D01*
X424877D01*
Y376597D01*
X424077D01*
Y376437D01*
X423117D01*
Y376277D01*
X422158D01*
Y376117D01*
X421998D01*
Y376277D01*
X421838D01*
Y376437D01*
X421998D01*
X421997Y376597D01*
X422158D01*
Y376757D01*
X422477D01*
Y376917D01*
X422798D01*
Y377077D01*
X423117D01*
Y377237D01*
X423277D01*
Y377397D01*
X423438D01*
Y377557D01*
X423757D01*
X423757Y377717D01*
X423917D01*
Y377877D01*
X424208D01*
X424191Y378037D01*
X423917D01*
Y377877D01*
X423277Y377877D01*
Y378037D01*
X423757D01*
Y378197D01*
X424175D01*
X424155Y378392D01*
X424258Y378517D01*
X423277D01*
X423278Y378677D01*
X423917D01*
X423917Y378837D01*
X424525D01*
X424557Y378875D01*
Y378997D01*
X424658D01*
X424717Y379067D01*
Y379157D01*
X424792D01*
X424803Y379170D01*
X424803D01*
Y379247D01*
X424864Y379477D01*
X423917D01*
Y379317D01*
X423438D01*
Y379477D01*
X423757D01*
Y379637D01*
X424237D01*
Y379797D01*
X424397D01*
X424397Y379957D01*
X424717D01*
X424717Y380117D01*
X424877D01*
Y380277D01*
X425037D01*
Y380437D01*
X425119D01*
X425123Y380451D01*
X425517Y380747D01*
Y380756D01*
X425530D01*
X425677Y380867D01*
Y380917D01*
X425744D01*
X425764Y380931D01*
X425829Y381016D01*
X425837Y381022D01*
Y381077D01*
X425905D01*
X425924Y381092D01*
X426052Y381252D01*
X426084D01*
X426204Y381412D01*
X426404Y381412D01*
X426458Y381572D01*
X426564D01*
X426564Y381892D01*
X426507Y382036D01*
X426477D01*
Y381876D01*
X425837D01*
Y381716D01*
X425357D01*
Y381876D01*
X425677Y381876D01*
Y382036D01*
X425997D01*
Y382196D01*
X426317D01*
Y382356D01*
X426379D01*
X426244Y382693D01*
X425877D01*
X425603Y382853D01*
X424322Y382853D01*
X424162Y383013D01*
Y383013D01*
X422240D01*
X422240Y383014D01*
X421998Y382892D01*
Y382836D01*
Y382676D01*
X421583D01*
X421263Y382356D01*
X421358D01*
Y382196D01*
X421198D01*
Y382036D01*
X420959D01*
X420959Y381732D01*
X420940Y381716D01*
X421358D01*
Y381557D01*
X421038D01*
Y381396D01*
X420878Y381396D01*
Y381236D01*
X420718D01*
Y381077D01*
X420238D01*
Y380917D01*
X419808D01*
X419758Y380891D01*
Y380756D01*
X419512D01*
X419459Y380597D01*
X419918D01*
Y380437D01*
X419598D01*
Y380277D01*
X419438Y380277D01*
Y380117D01*
X419308D01*
X419216Y379797D01*
X419438D01*
Y379957D01*
X420078D01*
Y379797D01*
X419758D01*
Y379637D01*
X419598Y379637D01*
Y379477D01*
X419118D01*
Y379317D01*
X418921D01*
X418717Y379010D01*
X418638Y378931D01*
Y378837D01*
X418236D01*
X418236Y378689D01*
X418236Y378529D01*
X418220Y378517D01*
X418638D01*
Y378357D01*
X418158D01*
X418158Y378197D01*
X417793D01*
X417596Y378049D01*
X417252Y377877D01*
X417518D01*
Y377717D01*
X417038Y377717D01*
X417038Y377557D01*
X416601D01*
X416558Y377543D01*
Y377397D01*
X416120D01*
X415918Y377329D01*
Y377237D01*
X415278D01*
Y377077D01*
X414478D01*
Y376917D01*
X414638D01*
Y376757D01*
X414958D01*
Y376917D01*
X415918D01*
Y376757D01*
Y376597D01*
X415118D01*
Y376437D01*
X413518D01*
Y376277D01*
X413358D01*
Y376437D01*
X412878D01*
Y376277D01*
X412398D01*
Y376117D01*
X411758D01*
Y375957D01*
X411438D01*
Y376117D01*
Y376277D01*
X412078D01*
Y376437D01*
X412558D01*
Y376597D01*
X413038D01*
Y376757D01*
X413518D01*
Y376917D01*
X413678D01*
Y377077D01*
X413998D01*
Y377237D01*
X414478D01*
Y377397D01*
X414798D01*
Y377557D01*
X415109D01*
X415062Y377717D01*
X412558Y377717D01*
Y377877D01*
X413998D01*
Y378037D01*
X414478D01*
Y378197D01*
X414923D01*
X414873Y378369D01*
Y378529D01*
X414818Y378584D01*
X414817Y378677D01*
X414158D01*
Y378837D01*
X413358D01*
Y378997D01*
X414815D01*
X414814Y379157D01*
X414798D01*
Y379317D01*
X414318D01*
Y379477D01*
X413198D01*
Y379637D01*
X414318D01*
Y379797D01*
X414798D01*
Y379957D01*
X415118Y379957D01*
Y380117D01*
X415356D01*
X415438Y380208D01*
Y380277D01*
X415501D01*
X415513Y380291D01*
X415701Y380451D01*
X415994Y380451D01*
X416314Y380771D01*
X416474D01*
X416581Y380931D01*
X416795D01*
Y381048D01*
X417017Y381396D01*
X416718D01*
X416718Y381236D01*
X416398D01*
Y381077D01*
X415918D01*
Y381236D01*
X416238D01*
Y381396D01*
X416558D01*
Y381557D01*
X416878D01*
Y381716D01*
X417198D01*
Y381876D01*
X417323D01*
X417358Y381931D01*
Y382036D01*
X417425D01*
X417435Y382052D01*
X417756Y382373D01*
X417756Y382676D01*
X417358D01*
Y382516D01*
X416878D01*
Y382676D01*
X417198D01*
Y382836D01*
X417518D01*
Y382996D01*
X417756D01*
Y383494D01*
X417068D01*
X417068Y383494D01*
X415674D01*
Y383654D01*
X414072Y383654D01*
X414072Y383654D01*
X413912Y383494D01*
D01*
X413912Y383494D01*
X413838Y383420D01*
Y383316D01*
X413734D01*
X413414Y382996D01*
X413518D01*
Y382836D01*
X413358D01*
Y382676D01*
X413198D01*
Y382516D01*
X413038D01*
Y382356D01*
X412718D01*
Y382196D01*
X412558D01*
Y382036D01*
X412299D01*
X412238Y381945D01*
Y381876D01*
X412193D01*
X411979Y381557D01*
X412238D01*
Y381716D01*
X412878D01*
Y381557D01*
X412718D01*
Y381396D01*
X412398Y381396D01*
Y381236D01*
X412078D01*
Y381077D01*
X411657D01*
X411397Y380756D01*
X412078D01*
Y380597D01*
X411758Y380597D01*
Y380437D01*
X411438D01*
Y380277D01*
X411278D01*
Y380117D01*
X410869D01*
Y380076D01*
X410509Y379797D01*
X410959D01*
Y379637D01*
X410798D01*
Y379477D01*
X410318Y379477D01*
Y379317D01*
X409856D01*
X409839Y379305D01*
Y379157D01*
X409583D01*
X409577Y379138D01*
X409359Y378998D01*
Y378997D01*
X409519D01*
Y378837D01*
X409199D01*
Y378677D01*
X409039D01*
Y378517D01*
X408559D01*
Y378357D01*
X408399D01*
Y378197D01*
X407919D01*
Y378037D01*
X407759D01*
Y377877D01*
X408879D01*
Y377717D01*
X408559D01*
Y377557D01*
X408079D01*
Y377397D01*
X407599D01*
Y377237D01*
X407119D01*
Y377077D01*
X406799D01*
Y376917D01*
X406639D01*
Y376757D01*
X406479D01*
Y376597D01*
X406319D01*
Y376437D01*
X405999D01*
Y376277D01*
X405679D01*
Y376117D01*
X405199D01*
Y375957D01*
X404879D01*
Y375797D01*
X404399D01*
Y375637D01*
X403759D01*
Y375477D01*
X403279D01*
Y375317D01*
X402959D01*
Y375477D01*
X403119D01*
Y375637D01*
X403279D01*
Y375797D01*
X403599D01*
Y375957D01*
Y376117D01*
X403919D01*
Y376277D01*
X404079D01*
Y376437D01*
X404239D01*
X404239Y376597D01*
X404399Y376597D01*
Y376757D01*
X404559D01*
Y376917D01*
X404719D01*
Y377077D01*
X404239D01*
Y376917D01*
X403119D01*
Y377077D01*
X403439D01*
Y377237D01*
X404879D01*
Y377397D01*
X405359D01*
Y377557D01*
X405679D01*
Y377717D01*
X404719D01*
Y377877D01*
X404239D01*
Y378037D01*
X405839D01*
Y378197D01*
X406159D01*
Y378357D01*
X406639D01*
Y378517D01*
X406959Y378517D01*
Y378677D01*
X407279D01*
Y378837D01*
X407599Y378837D01*
Y378997D01*
X408239D01*
Y379157D01*
X408318D01*
X408235Y379233D01*
X408187Y379317D01*
X406319D01*
Y379157D01*
X405839D01*
Y379317D01*
Y379477D01*
X406799D01*
Y379637D01*
X407279Y379637D01*
Y379797D01*
X407599D01*
Y379957D01*
X407882D01*
X407919Y380018D01*
Y380117D01*
X407978D01*
X407986Y380131D01*
Y380437D01*
X407439D01*
Y380597D01*
X407759D01*
Y380756D01*
X408368D01*
X408399Y380781D01*
Y380917D01*
X408568D01*
X408719Y381037D01*
Y381077D01*
X408768D01*
X408787Y381092D01*
X408787D01*
X408853Y381191D01*
X408879Y381213D01*
Y381236D01*
X408907D01*
X408924Y381252D01*
X408947D01*
X409043Y381412D01*
X409107D01*
X409226Y381572D01*
X409267D01*
X409378Y381732D01*
X409427D01*
X409710Y382196D01*
X409519D01*
Y382036D01*
X408879D01*
Y382196D01*
X409359D01*
Y382356D01*
X409807D01*
X409839Y382381D01*
Y382516D01*
X410007D01*
X410159Y382637D01*
Y382676D01*
X410207D01*
X410228Y382693D01*
X410318Y382783D01*
Y382836D01*
X410372D01*
X410709Y383174D01*
X410709Y383476D01*
X409839Y383476D01*
Y383636D01*
X409936D01*
X409267Y383814D01*
X408224Y383814D01*
X406064D01*
Y383654D01*
X401740D01*
X401740Y383494D01*
X400138D01*
Y383494D01*
X399978Y383334D01*
X398056Y383334D01*
X397645Y383197D01*
X397515Y383214D01*
X396615Y383814D01*
Y383814D01*
X391330Y383814D01*
Y383814D01*
X390951Y383654D01*
X390849D01*
X390849Y383654D01*
X390031Y383917D01*
X389728Y384295D01*
X389728Y384295D01*
X389728Y385416D01*
X389808Y385736D01*
X389888Y385736D01*
Y386057D01*
X389248Y386057D01*
X387961Y385628D01*
X386845Y385256D01*
D01*
X385608Y385127D01*
X385497Y385162D01*
X385231Y385429D01*
X385084Y385576D01*
X383962D01*
Y385432D01*
X383958Y385416D01*
X381400Y385416D01*
Y385256D01*
X378837D01*
Y385095D01*
X377373D01*
X377278Y385177D01*
X377228Y385241D01*
X376916Y386217D01*
Y386697D01*
X376896Y386767D01*
X376871Y386981D01*
X376889Y387442D01*
X376989Y387904D01*
X377159Y388287D01*
X377396Y388619D01*
X377876Y389100D01*
X377876Y389100D01*
X378197Y389420D01*
X378197Y389421D01*
X378209Y389456D01*
X378357Y389580D01*
X378837Y390060D01*
Y390541D01*
X378357Y390541D01*
X377797Y390381D01*
X377762Y390381D01*
X377062Y391037D01*
X376799Y391546D01*
X376845Y391656D01*
X377058Y391961D01*
X377075Y391982D01*
X377716Y392623D01*
X377716D01*
X377716Y392623D01*
X377876Y392783D01*
X377877Y392783D01*
X378036Y392943D01*
X378517Y393584D01*
X378716Y393882D01*
X378837Y394064D01*
X379158Y394705D01*
X379318Y394865D01*
X379318Y394865D01*
X379478Y395185D01*
X379478Y395186D01*
Y395186D01*
X379638Y395506D01*
X379638Y396147D01*
X378997Y396307D01*
X377876Y396467D01*
X376755Y396627D01*
Y396627D01*
X376037D01*
X375794Y396692D01*
Y396787D01*
X375435D01*
X374833Y396947D01*
X374033Y397107D01*
X373834D01*
X373232Y397268D01*
X372648Y397365D01*
X371472Y397588D01*
X371470Y397588D01*
X370284Y397791D01*
X369869Y397908D01*
X369470D01*
X369294Y397955D01*
X369068Y398068D01*
X367466Y398389D01*
Y398389D01*
X366825D01*
Y398549D01*
X365864D01*
Y398709D01*
X365064D01*
Y398869D01*
X364103D01*
Y399029D01*
X362982D01*
X362982Y399189D01*
X362423D01*
X361220Y399350D01*
X360900Y399350D01*
X360579Y399510D01*
X359922Y399510D01*
X358033D01*
X357857Y399559D01*
Y399670D01*
X357856D01*
X356896Y399830D01*
Y400311D01*
X355951D01*
X355674Y400388D01*
X355080Y400849D01*
X354814Y401057D01*
X354814Y401111D01*
D02*
G37*
G36*
X334634Y403834D02*
X333993Y403834D01*
X333993Y403033D01*
X334144Y402856D01*
X334116Y402757D01*
X334116Y402756D01*
X334091Y402679D01*
X334066Y402600D01*
X333484Y401982D01*
X333032Y401752D01*
X332377Y401097D01*
X331828Y400951D01*
X328708D01*
Y401111D01*
X327427D01*
Y400951D01*
X324743D01*
X324743Y400951D01*
X323583D01*
X323423Y400791D01*
X321501D01*
X321020Y400631D01*
Y400150D01*
X322050Y400150D01*
X322301Y399990D01*
X323180Y399990D01*
X323329Y399950D01*
X323423Y399830D01*
X324384Y399670D01*
X325345Y399510D01*
X326306Y399350D01*
Y399350D01*
X327106D01*
Y399189D01*
X327747D01*
Y399029D01*
X328548D01*
Y398869D01*
X329188D01*
Y398709D01*
X329989D01*
Y398549D01*
X330630D01*
Y398389D01*
X331270D01*
Y398228D01*
X331911Y398228D01*
Y398068D01*
X332552D01*
Y397908D01*
X333192D01*
Y397748D01*
X333673D01*
Y397588D01*
X334175Y397588D01*
X334313Y397588D01*
X334313Y397428D01*
X334954Y397428D01*
X334954Y397267D01*
X335595D01*
Y397588D01*
X335274Y398228D01*
X335144Y398619D01*
X334954Y399189D01*
X334794Y399670D01*
X334634Y400471D01*
X334634Y400471D01*
X334682Y401016D01*
X335560Y401642D01*
X336395Y401592D01*
X337036Y401111D01*
X337196Y400951D01*
X337292Y400919D01*
X337677Y400631D01*
X338157Y400631D01*
Y401272D01*
X338079Y401272D01*
X338050Y401276D01*
X337997Y401592D01*
X337837Y401592D01*
X337837Y401912D01*
X337677Y401912D01*
X337677Y402072D01*
X337367Y402072D01*
X337356Y402155D01*
Y402233D01*
X337047Y402233D01*
X337036Y402315D01*
X337036Y402393D01*
X336739Y402393D01*
X336716Y402553D01*
X336578Y402553D01*
X336556Y402713D01*
X336258Y402713D01*
X336235Y402873D01*
X335961Y402873D01*
X335915Y403033D01*
Y403033D01*
X335646D01*
X335595Y403193D01*
X335595Y403194D01*
X335453Y403288D01*
X335434Y403354D01*
X335263Y403456D01*
X335098Y403555D01*
X334968Y403633D01*
X334634Y403834D01*
D02*
G37*
G36*
X194067Y405620D02*
X191534D01*
X189087Y404964D01*
X186893Y403698D01*
X185102Y401907D01*
X183836Y399713D01*
X183180Y397267D01*
Y394734D01*
X183836Y392287D01*
X185102Y390093D01*
X186893Y388302D01*
X189087Y387036D01*
X191534Y386380D01*
X194067D01*
X196513Y387036D01*
X198707Y388302D01*
X200498Y390093D01*
X201764Y392287D01*
X202420Y394734D01*
Y397267D01*
X201764Y399713D01*
X200498Y401907D01*
X198707Y403698D01*
X196513Y404964D01*
X194067Y405620D01*
D02*
G37*
G36*
X16266Y405620D02*
X13734D01*
X11287Y404964D01*
X9093Y403698D01*
X7302Y401907D01*
X6036Y399713D01*
X5380Y397267D01*
Y394734D01*
X6036Y392287D01*
X7302Y390093D01*
X9093Y388302D01*
X11287Y387036D01*
X13734Y386380D01*
X16266D01*
X18713Y387036D01*
X20907Y388302D01*
X22698Y390093D01*
X23964Y392287D01*
X24620Y394734D01*
Y397267D01*
X23964Y399713D01*
X22698Y401907D01*
X20907Y403698D01*
X18713Y404964D01*
X16266Y405620D01*
D02*
G37*
G36*
X411278Y380611D02*
X411267Y380597D01*
X411278D01*
Y380611D01*
D02*
G37*
G36*
X408168Y380597D02*
X408079D01*
Y380525D01*
X408168Y380597D01*
D02*
G37*
G36*
X422637Y376597D02*
X422318D01*
Y376437D01*
X422637D01*
Y376597D01*
D02*
G37*
G36*
X453515Y362198D02*
X453370D01*
X453414Y362177D01*
X453515Y362110D01*
Y362198D01*
D02*
G37*
G36*
X426317Y361398D02*
X426261D01*
X426317Y361342D01*
Y361398D01*
D02*
G37*
G36*
X16266Y380220D02*
X13734D01*
X11287Y379564D01*
X9093Y378298D01*
X7302Y376507D01*
X6036Y374313D01*
X5380Y371866D01*
Y369333D01*
X6036Y366887D01*
X7302Y364693D01*
X9093Y362902D01*
X11287Y361636D01*
X13734Y360980D01*
X16266D01*
X18713Y361636D01*
X20907Y362902D01*
X22698Y364693D01*
X23964Y366887D01*
X24620Y369333D01*
Y371866D01*
X23964Y374313D01*
X22698Y376507D01*
X20907Y378298D01*
X18713Y379564D01*
X16266Y380220D01*
D02*
G37*
G36*
X194067Y380220D02*
X191534D01*
X189087Y379564D01*
X186893Y378298D01*
X185102Y376507D01*
X183836Y374313D01*
X183180Y371866D01*
Y369333D01*
X183836Y366887D01*
X185102Y364693D01*
X186893Y362902D01*
X189087Y361636D01*
X191534Y360980D01*
X194067D01*
X196513Y361636D01*
X198707Y362902D01*
X200498Y364693D01*
X201764Y366887D01*
X202420Y369333D01*
Y371866D01*
X201764Y374313D01*
X200498Y376507D01*
X198707Y378298D01*
X196513Y379564D01*
X194067Y380220D01*
D02*
G37*
G36*
X467274Y356599D02*
X467118D01*
X467213Y356542D01*
X467274Y356471D01*
Y356599D01*
D02*
G37*
G36*
X467754Y355799D02*
X467719D01*
X467725Y355787D01*
X467754Y355743D01*
Y355799D01*
D02*
G37*
G36*
X433517Y354039D02*
X433379D01*
X433517Y353809D01*
Y353879D01*
Y354039D01*
D02*
G37*
G36*
X276651Y369500D02*
X274149D01*
X271733Y368853D01*
X269567Y367602D01*
X267798Y365833D01*
X266547Y363667D01*
X265900Y361251D01*
Y358749D01*
X266547Y356333D01*
X267798Y354167D01*
X269567Y352398D01*
X270612Y351795D01*
X271049Y350104D01*
X270953Y349942D01*
X262805D01*
X257960Y354787D01*
X258853Y356333D01*
X259500Y358749D01*
Y361251D01*
X258853Y363667D01*
X257602Y365833D01*
X255833Y367602D01*
X253667Y368853D01*
X251251Y369500D01*
X248749D01*
X246333Y368853D01*
X244167Y367602D01*
X242398Y365833D01*
X241147Y363667D01*
X240500Y361251D01*
Y358749D01*
X241147Y356333D01*
X242398Y354167D01*
X244167Y352398D01*
X246333Y351147D01*
X248749Y350500D01*
X251251D01*
X253667Y351147D01*
X255213Y352040D01*
X260627Y346627D01*
X260627Y346627D01*
X261257Y346205D01*
X262000Y346058D01*
X276196D01*
X277048Y345206D01*
X276357Y344100D01*
X274149D01*
X271733Y343453D01*
X269567Y342202D01*
X267798Y340433D01*
X266547Y338267D01*
X265900Y335851D01*
Y333349D01*
X266547Y330933D01*
X267798Y328767D01*
X269567Y326998D01*
X271733Y325747D01*
X274149Y325100D01*
X276651D01*
X279067Y325747D01*
X281233Y326998D01*
X283002Y328767D01*
X284253Y330933D01*
X284788Y332930D01*
X286058Y332763D01*
Y318971D01*
X284900Y318700D01*
X284788Y318700D01*
X265900D01*
Y299700D01*
X266593D01*
Y296339D01*
X203195Y232942D01*
X195101D01*
X194933Y234212D01*
X196513Y234636D01*
X198707Y235902D01*
X200498Y237693D01*
X201764Y239887D01*
X202420Y242334D01*
Y244867D01*
X201764Y247313D01*
X200498Y249507D01*
X198707Y251298D01*
X196513Y252564D01*
X194067Y253220D01*
X191534D01*
X189087Y252564D01*
X186893Y251298D01*
X185102Y249507D01*
X183836Y247313D01*
X183180Y244867D01*
Y242334D01*
X183836Y239887D01*
X185102Y237693D01*
X186893Y235902D01*
X189087Y234636D01*
X190667Y234212D01*
X190499Y232942D01*
X184000D01*
X183257Y232794D01*
X182627Y232373D01*
X170627Y220373D01*
X170206Y219743D01*
X170058Y219000D01*
Y162800D01*
X170206Y162057D01*
X170627Y161427D01*
X184752Y147301D01*
X183836Y145713D01*
X183180Y143266D01*
Y140733D01*
X183836Y138287D01*
X185102Y136093D01*
X186893Y134302D01*
X189087Y133036D01*
X191534Y132380D01*
X194067D01*
X196513Y133036D01*
X198707Y134302D01*
X200498Y136093D01*
X201764Y138287D01*
X202420Y140733D01*
Y143266D01*
X201764Y145713D01*
X200498Y147907D01*
X198707Y149698D01*
X196513Y150964D01*
X194067Y151620D01*
X191534D01*
X189087Y150964D01*
X187499Y150048D01*
X173942Y163605D01*
Y218195D01*
X184804Y229058D01*
X191455D01*
X191534Y227820D01*
X189087Y227164D01*
X186893Y225898D01*
X185102Y224107D01*
X183836Y221913D01*
X183180Y219466D01*
Y216933D01*
X183836Y214487D01*
X185102Y212293D01*
X186893Y210502D01*
X189087Y209236D01*
X191534Y208580D01*
X194067D01*
X196513Y209236D01*
X198707Y210502D01*
X200498Y212293D01*
X201764Y214487D01*
X202420Y216933D01*
Y219466D01*
X201764Y221913D01*
X200498Y224107D01*
X198707Y225898D01*
X196513Y227164D01*
X194067Y227820D01*
X194144Y229058D01*
X204000D01*
X204743Y229205D01*
X205373Y229627D01*
X269908Y294162D01*
X270329Y294792D01*
X270477Y295535D01*
Y299700D01*
X284788D01*
X284900Y299700D01*
X286058Y299429D01*
Y290805D01*
X239377Y244123D01*
X238955Y243493D01*
X238808Y242750D01*
Y238250D01*
X232500D01*
Y221750D01*
X249000D01*
Y238250D01*
X242692D01*
Y241945D01*
X289373Y288626D01*
X289373Y288627D01*
X289795Y289257D01*
X289942Y290000D01*
Y337000D01*
X289795Y337743D01*
X289373Y338373D01*
X278373Y349373D01*
X278081Y349569D01*
X278164Y350861D01*
X278184Y350911D01*
X279067Y351147D01*
X281233Y352398D01*
X283002Y354167D01*
X284253Y356333D01*
X284900Y358749D01*
Y361251D01*
X284253Y363667D01*
X283002Y365833D01*
X281233Y367602D01*
X279067Y368853D01*
X276651Y369500D01*
D02*
G37*
G36*
X302051D02*
X299549D01*
X297133Y368853D01*
X294967Y367602D01*
X293198Y365833D01*
X291947Y363667D01*
X291300Y361251D01*
Y358749D01*
X291947Y356333D01*
X293198Y354167D01*
X294967Y352398D01*
X297133Y351147D01*
X299549Y350500D01*
X302051D01*
X304467Y351147D01*
X306013Y352040D01*
X311058Y346995D01*
Y337930D01*
X309788Y337763D01*
X309653Y338267D01*
X308402Y340433D01*
X306633Y342202D01*
X304467Y343453D01*
X302051Y344100D01*
X299549D01*
X297133Y343453D01*
X294967Y342202D01*
X293198Y340433D01*
X291947Y338267D01*
X291300Y335851D01*
Y333349D01*
X291947Y330933D01*
X293198Y328767D01*
X294967Y326998D01*
X297133Y325747D01*
X299549Y325100D01*
X302051D01*
X304467Y325747D01*
X306633Y326998D01*
X308402Y328767D01*
X309653Y330933D01*
X309788Y331437D01*
X311058Y331270D01*
Y319656D01*
X310300Y318700D01*
X309788Y318700D01*
X291300D01*
Y299700D01*
X298858D01*
Y283605D01*
X265627Y250373D01*
X265205Y249743D01*
X265058Y249000D01*
Y225805D01*
X246195Y206942D01*
X230400D01*
X230400Y206942D01*
X229657Y206794D01*
X229027Y206373D01*
X229027Y206373D01*
X198101Y175448D01*
X196513Y176364D01*
X194067Y177020D01*
X191534D01*
X189087Y176364D01*
X186893Y175098D01*
X185102Y173307D01*
X183836Y171113D01*
X183180Y168666D01*
Y166133D01*
X183836Y163687D01*
X185102Y161493D01*
X186893Y159702D01*
X189087Y158436D01*
X191534Y157780D01*
X194067D01*
X196513Y158436D01*
X198707Y159702D01*
X200498Y161493D01*
X201764Y163687D01*
X202420Y166133D01*
Y168666D01*
X201764Y171113D01*
X200848Y172701D01*
X231204Y203058D01*
X247000D01*
X247743Y203206D01*
X248373Y203627D01*
X268373Y223626D01*
X268373Y223627D01*
X268794Y224257D01*
X268942Y225000D01*
X268942Y225000D01*
Y248195D01*
X302173Y281427D01*
X302595Y282057D01*
X302742Y282800D01*
X302742Y282800D01*
Y299700D01*
X309788D01*
X310300Y299700D01*
X311058Y298744D01*
Y152804D01*
X299195Y140942D01*
X269750D01*
X269007Y140794D01*
X268377Y140373D01*
X246253Y118250D01*
X232500D01*
Y101750D01*
X249000D01*
Y115503D01*
X270555Y137058D01*
X300000D01*
X300743Y137205D01*
X301373Y137627D01*
X314373Y150627D01*
X314795Y151257D01*
X314942Y152000D01*
Y347800D01*
X314795Y348543D01*
X314373Y349173D01*
X308760Y354787D01*
X309653Y356333D01*
X310300Y358749D01*
Y361251D01*
X309653Y363667D01*
X308402Y365833D01*
X306633Y367602D01*
X304467Y368853D01*
X302051Y369500D01*
D02*
G37*
G36*
X194067Y354820D02*
X191534D01*
X189087Y354164D01*
X186893Y352898D01*
X185102Y351107D01*
X183836Y348913D01*
X183180Y346466D01*
Y343933D01*
X183836Y341487D01*
X185102Y339293D01*
X186893Y337502D01*
X189087Y336236D01*
X191534Y335580D01*
X194067D01*
X196513Y336236D01*
X198707Y337502D01*
X200498Y339293D01*
X201764Y341487D01*
X202420Y343933D01*
Y346466D01*
X201764Y348913D01*
X200498Y351107D01*
X198707Y352898D01*
X196513Y354164D01*
X194067Y354820D01*
D02*
G37*
G36*
X16266D02*
X13734D01*
X11287Y354164D01*
X9093Y352898D01*
X7302Y351107D01*
X6036Y348913D01*
X5380Y346466D01*
Y343933D01*
X6036Y341487D01*
X7302Y339293D01*
X9093Y337502D01*
X11287Y336236D01*
X13734Y335580D01*
X16266D01*
X18713Y336236D01*
X20907Y337502D01*
X22698Y339293D01*
X23964Y341487D01*
X24620Y343933D01*
Y346466D01*
X23964Y348913D01*
X22698Y351107D01*
X20907Y352898D01*
X18713Y354164D01*
X16266Y354820D01*
D02*
G37*
G36*
X251251Y344100D02*
X248749D01*
X246333Y343453D01*
X244167Y342202D01*
X242398Y340433D01*
X241147Y338267D01*
X240500Y335851D01*
Y333349D01*
X241147Y330933D01*
X242398Y328767D01*
X244167Y326998D01*
X246333Y325747D01*
X248749Y325100D01*
X251251D01*
X253667Y325747D01*
X255833Y326998D01*
X257602Y328767D01*
X258853Y330933D01*
X259500Y333349D01*
Y335851D01*
X258853Y338267D01*
X257602Y340433D01*
X255833Y342202D01*
X253667Y343453D01*
X251251Y344100D01*
D02*
G37*
G36*
X194067Y329420D02*
X191534D01*
X189087Y328764D01*
X186893Y327498D01*
X185102Y325707D01*
X183836Y323513D01*
X183180Y321067D01*
Y318533D01*
X183836Y316087D01*
X185102Y313893D01*
X186893Y312102D01*
X189087Y310836D01*
X191534Y310180D01*
X194067D01*
X196513Y310836D01*
X198707Y312102D01*
X200498Y313893D01*
X201764Y316087D01*
X202420Y318533D01*
Y321067D01*
X201764Y323513D01*
X200498Y325707D01*
X198707Y327498D01*
X196513Y328764D01*
X194067Y329420D01*
D02*
G37*
G36*
X16266Y329420D02*
X13734D01*
X11287Y328764D01*
X9093Y327498D01*
X7302Y325707D01*
X6036Y323513D01*
X5380Y321067D01*
Y318533D01*
X6036Y316087D01*
X7302Y313893D01*
X9093Y312102D01*
X11287Y310836D01*
X13734Y310180D01*
X16266D01*
X18713Y310836D01*
X20907Y312102D01*
X22698Y313893D01*
X23964Y316087D01*
X24620Y318533D01*
Y321067D01*
X23964Y323513D01*
X22698Y325707D01*
X20907Y327498D01*
X18713Y328764D01*
X16266Y329420D01*
D02*
G37*
G36*
X194067Y304020D02*
X191534D01*
X189087Y303364D01*
X186893Y302098D01*
X185102Y300307D01*
X183836Y298113D01*
X183180Y295667D01*
Y293134D01*
X183836Y290687D01*
X185102Y288493D01*
X186893Y286702D01*
X189087Y285436D01*
X191534Y284780D01*
X194067D01*
X196513Y285436D01*
X198707Y286702D01*
X200498Y288493D01*
X201764Y290687D01*
X202420Y293134D01*
Y295667D01*
X201764Y298113D01*
X200498Y300307D01*
X198707Y302098D01*
X196513Y303364D01*
X194067Y304020D01*
D02*
G37*
G36*
X16266D02*
X13734D01*
X11287Y303364D01*
X9093Y302098D01*
X7302Y300307D01*
X6036Y298113D01*
X5380Y295667D01*
Y293134D01*
X6036Y290687D01*
X7302Y288493D01*
X9093Y286702D01*
X11287Y285436D01*
X13734Y284780D01*
X16266D01*
X18713Y285436D01*
X20907Y286702D01*
X22698Y288493D01*
X23964Y290687D01*
X24620Y293134D01*
Y295667D01*
X23964Y298113D01*
X22698Y300307D01*
X20907Y302098D01*
X18713Y303364D01*
X16266Y304020D01*
D02*
G37*
G36*
X259500Y318700D02*
X240500D01*
Y302447D01*
X202925Y264872D01*
X201845Y265588D01*
X202420Y267733D01*
Y270266D01*
X201764Y272713D01*
X200498Y274907D01*
X198707Y276698D01*
X196513Y277964D01*
X194067Y278620D01*
X191534D01*
X189087Y277964D01*
X186893Y276698D01*
X185102Y274907D01*
X183836Y272713D01*
X183180Y270266D01*
Y267733D01*
X183836Y265287D01*
X185102Y263093D01*
X186893Y261302D01*
X188781Y260212D01*
X188440Y258942D01*
X179000D01*
X178257Y258794D01*
X177627Y258373D01*
X177626Y258373D01*
X160627Y241373D01*
X160205Y240743D01*
X160058Y240000D01*
Y147400D01*
X160205Y146657D01*
X160627Y146027D01*
X184752Y121901D01*
X183836Y120313D01*
X183180Y117866D01*
Y115333D01*
X183836Y112887D01*
X185102Y110693D01*
X186893Y108902D01*
X189087Y107636D01*
X191534Y106980D01*
X194067D01*
X196513Y107636D01*
X198707Y108902D01*
X200498Y110693D01*
X201764Y112887D01*
X202420Y115333D01*
Y117866D01*
X201764Y120313D01*
X200498Y122507D01*
X198707Y124298D01*
X196513Y125564D01*
X194067Y126220D01*
X191534D01*
X189087Y125564D01*
X187499Y124648D01*
X163942Y148204D01*
Y239195D01*
X179804Y255058D01*
X197800D01*
X198543Y255205D01*
X199173Y255627D01*
X243247Y299700D01*
X259500D01*
Y318700D01*
D02*
G37*
G36*
X16266Y278620D02*
X13734D01*
X11287Y277964D01*
X9093Y276698D01*
X7302Y274907D01*
X6036Y272713D01*
X5380Y270266D01*
Y267733D01*
X6036Y265287D01*
X7302Y263093D01*
X9093Y261302D01*
X11287Y260036D01*
X13734Y259380D01*
X16266D01*
X18713Y260036D01*
X20907Y261302D01*
X22698Y263093D01*
X23964Y265287D01*
X24620Y267733D01*
Y270266D01*
X23964Y272713D01*
X22698Y274907D01*
X20907Y276698D01*
X18713Y277964D01*
X16266Y278620D01*
D02*
G37*
G36*
X16266Y253220D02*
X13734D01*
X11287Y252564D01*
X9093Y251298D01*
X7302Y249507D01*
X6036Y247313D01*
X5380Y244867D01*
Y242334D01*
X6036Y239887D01*
X7302Y237693D01*
X9093Y235902D01*
X11287Y234636D01*
X13734Y233980D01*
X16266D01*
X18713Y234636D01*
X20907Y235902D01*
X22698Y237693D01*
X23964Y239887D01*
X24620Y242334D01*
Y244867D01*
X23964Y247313D01*
X22698Y249507D01*
X20907Y251298D01*
X18713Y252564D01*
X16266Y253220D01*
D02*
G37*
G36*
X463790Y238790D02*
X456270D01*
Y231270D01*
X463790D01*
Y238790D01*
D02*
G37*
G36*
X453730D02*
X446210D01*
Y231270D01*
X453730D01*
Y238790D01*
D02*
G37*
G36*
X343790D02*
X336270D01*
Y231270D01*
X343790D01*
Y238790D01*
D02*
G37*
G36*
X333730D02*
X326210D01*
Y231270D01*
X333730D01*
Y238790D01*
D02*
G37*
G36*
X361995Y270000D02*
X360005D01*
X358168Y269239D01*
X356761Y267832D01*
X356000Y265995D01*
Y264005D01*
X356761Y262168D01*
X358168Y260761D01*
X358808Y260496D01*
Y238250D01*
X352500D01*
Y221750D01*
X369000D01*
Y238250D01*
X362692D01*
Y260289D01*
X363832Y260761D01*
X365239Y262168D01*
X366000Y264005D01*
Y265995D01*
X365239Y267832D01*
X363832Y269239D01*
X361995Y270000D01*
D02*
G37*
G36*
X463790Y228730D02*
X456270D01*
Y221210D01*
X463790D01*
Y228730D01*
D02*
G37*
G36*
X453730D02*
X446210D01*
Y221210D01*
X453730D01*
Y228730D01*
D02*
G37*
G36*
X343790D02*
X336270D01*
Y221210D01*
X343790D01*
Y228730D01*
D02*
G37*
G36*
X333730D02*
X326210D01*
Y221210D01*
X333730D01*
Y228730D01*
D02*
G37*
G36*
X16266Y227820D02*
X13734D01*
X11287Y227164D01*
X9093Y225898D01*
X7302Y224107D01*
X6036Y221913D01*
X5380Y219466D01*
Y216933D01*
X6036Y214487D01*
X7302Y212293D01*
X9093Y210502D01*
X11287Y209236D01*
X13734Y208580D01*
X16266D01*
X18713Y209236D01*
X20907Y210502D01*
X22698Y212293D01*
X23964Y214487D01*
X24620Y216933D01*
Y219466D01*
X23964Y221913D01*
X22698Y224107D01*
X20907Y225898D01*
X18713Y227164D01*
X16266Y227820D01*
D02*
G37*
G36*
X463790Y208790D02*
X456270D01*
Y201270D01*
X463790D01*
Y208790D01*
D02*
G37*
G36*
X453730D02*
X446210D01*
Y201270D01*
X453730D01*
Y208790D01*
D02*
G37*
G36*
X343790D02*
X336270D01*
Y201270D01*
X343790D01*
Y208790D01*
D02*
G37*
G36*
X333730D02*
X326210D01*
Y201270D01*
X333730D01*
Y208790D01*
D02*
G37*
G36*
X463790Y198730D02*
X456270D01*
Y191210D01*
X463790D01*
Y198730D01*
D02*
G37*
G36*
X453730D02*
X446210D01*
Y191210D01*
X453730D01*
Y198730D01*
D02*
G37*
G36*
X343790D02*
X336270D01*
Y191210D01*
X343790D01*
Y198730D01*
D02*
G37*
G36*
X333730D02*
X326210D01*
Y191210D01*
X333730D01*
Y198730D01*
D02*
G37*
G36*
X194067Y202420D02*
X191534D01*
X189087Y201764D01*
X186893Y200498D01*
X185102Y198707D01*
X183836Y196513D01*
X183180Y194067D01*
Y191534D01*
X183836Y189087D01*
X185102Y186893D01*
X186893Y185102D01*
X189087Y183836D01*
X191534Y183180D01*
X194067D01*
X196513Y183836D01*
X198707Y185102D01*
X200498Y186893D01*
X201764Y189087D01*
X202420Y191534D01*
Y194067D01*
X201764Y196513D01*
X200498Y198707D01*
X198707Y200498D01*
X196513Y201764D01*
X194067Y202420D01*
D02*
G37*
G36*
X16266Y202420D02*
X13734D01*
X11287Y201764D01*
X9093Y200498D01*
X7302Y198707D01*
X6036Y196513D01*
X5380Y194067D01*
Y191534D01*
X6036Y189087D01*
X7302Y186893D01*
X9093Y185102D01*
X11287Y183836D01*
X13734Y183180D01*
X16266D01*
X18713Y183836D01*
X20907Y185102D01*
X22698Y186893D01*
X23964Y189087D01*
X24620Y191534D01*
Y194067D01*
X23964Y196513D01*
X22698Y198707D01*
X20907Y200498D01*
X18713Y201764D01*
X16266Y202420D01*
D02*
G37*
G36*
X463790Y178790D02*
X456270D01*
Y171270D01*
X463790D01*
Y178790D01*
D02*
G37*
G36*
X453730D02*
X446210D01*
Y171270D01*
X453730D01*
Y178790D01*
D02*
G37*
G36*
X343790D02*
X336270D01*
Y171270D01*
X343790D01*
Y178790D01*
D02*
G37*
G36*
X333730D02*
X326210D01*
Y171270D01*
X333730D01*
Y178790D01*
D02*
G37*
G36*
X375995Y270000D02*
X374005D01*
X372168Y269239D01*
X370761Y267832D01*
X370000Y265995D01*
Y264005D01*
X370761Y262168D01*
X372168Y260761D01*
X373058Y260393D01*
Y185055D01*
X366253Y178250D01*
X352500D01*
Y161750D01*
X369000D01*
Y175503D01*
X376373Y182877D01*
X376795Y183507D01*
X376942Y184250D01*
Y260393D01*
X377832Y260761D01*
X379239Y262168D01*
X380000Y264005D01*
Y265995D01*
X379239Y267832D01*
X377832Y269239D01*
X375995Y270000D01*
D02*
G37*
G36*
X463790Y168730D02*
X456270D01*
Y161210D01*
X463790D01*
Y168730D01*
D02*
G37*
G36*
X453730D02*
X446210D01*
Y161210D01*
X453730D01*
Y168730D01*
D02*
G37*
G36*
X343790D02*
X336270D01*
Y161210D01*
X343790D01*
Y168730D01*
D02*
G37*
G36*
X333730D02*
X326210D01*
Y161210D01*
X333730D01*
Y168730D01*
D02*
G37*
G36*
X16266Y177020D02*
X13734D01*
X11287Y176364D01*
X9093Y175098D01*
X7302Y173307D01*
X6036Y171113D01*
X5380Y168666D01*
Y166133D01*
X6036Y163687D01*
X7302Y161493D01*
X9093Y159702D01*
X11287Y158436D01*
X13734Y157780D01*
X16266D01*
X18713Y158436D01*
X20907Y159702D01*
X22698Y161493D01*
X23964Y163687D01*
X24620Y166133D01*
Y168666D01*
X23964Y171113D01*
X22698Y173307D01*
X20907Y175098D01*
X18713Y176364D01*
X16266Y177020D01*
D02*
G37*
G36*
X410000Y276405D02*
X408342Y276187D01*
X406798Y275547D01*
X405471Y274529D01*
X404453Y273202D01*
X403813Y271658D01*
X403595Y270000D01*
Y249750D01*
X401750D01*
Y235250D01*
X403595D01*
Y223250D01*
X401750D01*
Y206750D01*
X403595D01*
Y193250D01*
X401750D01*
Y176750D01*
X403595D01*
Y164750D01*
X401750D01*
Y150250D01*
X418250D01*
Y164750D01*
X416405D01*
Y176750D01*
X418250D01*
Y193250D01*
X416405D01*
Y206750D01*
X418250D01*
Y223250D01*
X416405D01*
Y235250D01*
X418250D01*
Y249750D01*
X416405D01*
Y270000D01*
X416186Y271658D01*
X415547Y273202D01*
X414529Y274529D01*
X413202Y275547D01*
X411658Y276187D01*
X410000Y276405D01*
D02*
G37*
G36*
X301000Y275405D02*
X299342Y275187D01*
X297798Y274547D01*
X296471Y273529D01*
X285471Y262529D01*
X284453Y261202D01*
X283813Y259658D01*
X283595Y258000D01*
Y249750D01*
X281750D01*
Y235250D01*
X283595D01*
Y223250D01*
X281750D01*
Y206750D01*
X283595D01*
Y193250D01*
X281750D01*
Y176750D01*
X283595D01*
Y164750D01*
X281750D01*
Y150250D01*
X298250D01*
Y164750D01*
X296405D01*
Y176750D01*
X298250D01*
Y193250D01*
X296405D01*
Y206750D01*
X298250D01*
Y223250D01*
X296405D01*
Y235250D01*
X298250D01*
Y249750D01*
X296405D01*
Y255347D01*
X305529Y264471D01*
X306547Y265798D01*
X307187Y267342D01*
X307405Y269000D01*
X307187Y270658D01*
X306547Y272202D01*
X305529Y273529D01*
X304202Y274547D01*
X302658Y275187D01*
X301000Y275405D01*
D02*
G37*
G36*
X16266Y151620D02*
X13734D01*
X11287Y150964D01*
X9093Y149698D01*
X7302Y147907D01*
X6036Y145713D01*
X5380Y143266D01*
Y140733D01*
X6036Y138287D01*
X7302Y136093D01*
X9093Y134302D01*
X11287Y133036D01*
X13734Y132380D01*
X16266D01*
X18713Y133036D01*
X20907Y134302D01*
X22698Y136093D01*
X23964Y138287D01*
X24620Y140733D01*
Y143266D01*
X23964Y145713D01*
X22698Y147907D01*
X20907Y149698D01*
X18713Y150964D01*
X16266Y151620D01*
D02*
G37*
G36*
X463790Y118790D02*
X456270D01*
Y111270D01*
X463790D01*
Y118790D01*
D02*
G37*
G36*
X453730D02*
X446210D01*
Y111270D01*
X453730D01*
Y118790D01*
D02*
G37*
G36*
X343790D02*
X336270D01*
Y111270D01*
X343790D01*
Y118790D01*
D02*
G37*
G36*
X333730D02*
X326210D01*
Y111270D01*
X333730D01*
Y118790D01*
D02*
G37*
G36*
X16266Y126220D02*
X13734D01*
X11287Y125564D01*
X9093Y124298D01*
X7302Y122507D01*
X6036Y120313D01*
X5380Y117866D01*
Y115333D01*
X6036Y112887D01*
X7302Y110693D01*
X9093Y108902D01*
X11287Y107636D01*
X13734Y106980D01*
X16266D01*
X18713Y107636D01*
X20907Y108902D01*
X22698Y110693D01*
X23964Y112887D01*
X24620Y115333D01*
Y117866D01*
X23964Y120313D01*
X22698Y122507D01*
X20907Y124298D01*
X18713Y125564D01*
X16266Y126220D01*
D02*
G37*
G36*
X369000Y118250D02*
X352500D01*
Y101750D01*
X369000D01*
Y118250D01*
D02*
G37*
G36*
X463790Y108730D02*
X456270D01*
Y101210D01*
X463790D01*
Y108730D01*
D02*
G37*
G36*
X453730D02*
X446210D01*
Y101210D01*
X453730D01*
Y108730D01*
D02*
G37*
G36*
X343790D02*
X336270D01*
Y101210D01*
X343790D01*
Y108730D01*
D02*
G37*
G36*
X333730D02*
X326210D01*
Y101210D01*
X333730D01*
Y108730D01*
D02*
G37*
G36*
X249000Y178250D02*
X232500D01*
Y164497D01*
X216627Y148623D01*
X216206Y147993D01*
X216058Y147250D01*
Y117205D01*
X198101Y99248D01*
X196513Y100164D01*
X194067Y100820D01*
X191534D01*
X189087Y100164D01*
X186893Y98898D01*
X185102Y97107D01*
X183836Y94913D01*
X183180Y92466D01*
Y89934D01*
X183836Y87487D01*
X185102Y85293D01*
X186893Y83502D01*
X189087Y82236D01*
X191534Y81580D01*
X194067D01*
X196513Y82236D01*
X198707Y83502D01*
X200498Y85293D01*
X201764Y87487D01*
X202420Y89934D01*
Y92466D01*
X201764Y94913D01*
X200848Y96501D01*
X219373Y115027D01*
X219795Y115657D01*
X219942Y116400D01*
Y146446D01*
X235247Y161750D01*
X249000D01*
Y178250D01*
D02*
G37*
G36*
X16266Y100820D02*
X13734D01*
X11287Y100164D01*
X9093Y98898D01*
X7302Y97107D01*
X6036Y94913D01*
X5380Y92466D01*
Y89934D01*
X6036Y87487D01*
X7302Y85293D01*
X9093Y83502D01*
X11287Y82236D01*
X13734Y81580D01*
X16266D01*
X18713Y82236D01*
X20907Y83502D01*
X22698Y85293D01*
X23964Y87487D01*
X24620Y89934D01*
Y92466D01*
X23964Y94913D01*
X22698Y97107D01*
X20907Y98898D01*
X18713Y100164D01*
X16266Y100820D01*
D02*
G37*
G36*
X463790Y88790D02*
X456270D01*
Y81270D01*
X463790D01*
Y88790D01*
D02*
G37*
G36*
X453730D02*
X446210D01*
Y81270D01*
X453730D01*
Y88790D01*
D02*
G37*
G36*
X343790D02*
X336270D01*
Y81270D01*
X343790D01*
Y88790D01*
D02*
G37*
G36*
X333730D02*
X326210D01*
Y81270D01*
X333730D01*
Y88790D01*
D02*
G37*
G36*
X463790Y78730D02*
X456270D01*
Y71210D01*
X463790D01*
Y78730D01*
D02*
G37*
G36*
X453730D02*
X446210D01*
Y71210D01*
X453730D01*
Y78730D01*
D02*
G37*
G36*
X343790D02*
X336270D01*
Y71210D01*
X343790D01*
Y78730D01*
D02*
G37*
G36*
X333730D02*
X326210D01*
Y71210D01*
X333730D01*
Y78730D01*
D02*
G37*
G36*
X194067Y75420D02*
X191534D01*
X189087Y74764D01*
X186893Y73498D01*
X185102Y71707D01*
X183836Y69513D01*
X183180Y67066D01*
Y64534D01*
X183836Y62087D01*
X185102Y59893D01*
X186893Y58102D01*
X189087Y56836D01*
X191534Y56180D01*
X194067D01*
X196513Y56836D01*
X198707Y58102D01*
X200498Y59893D01*
X201764Y62087D01*
X202420Y64534D01*
Y67066D01*
X201764Y69513D01*
X200498Y71707D01*
X198707Y73498D01*
X196513Y74764D01*
X194067Y75420D01*
D02*
G37*
G36*
X16266D02*
X13734D01*
X11287Y74764D01*
X9093Y73498D01*
X7302Y71707D01*
X6036Y69513D01*
X5380Y67066D01*
Y64534D01*
X6036Y62087D01*
X7302Y59893D01*
X9093Y58102D01*
X11287Y56836D01*
X13734Y56180D01*
X16266D01*
X18713Y56836D01*
X20907Y58102D01*
X22698Y59893D01*
X23964Y62087D01*
X24620Y64534D01*
Y67066D01*
X23964Y69513D01*
X22698Y71707D01*
X20907Y73498D01*
X18713Y74764D01*
X16266Y75420D01*
D02*
G37*
G36*
X463790Y58790D02*
X456270D01*
Y51270D01*
X463790D01*
Y58790D01*
D02*
G37*
G36*
X453730D02*
X446210D01*
Y51270D01*
X453730D01*
Y58790D01*
D02*
G37*
G36*
X343790D02*
X336270D01*
Y51270D01*
X343790D01*
Y58790D01*
D02*
G37*
G36*
X333730D02*
X326210D01*
Y51270D01*
X333730D01*
Y58790D01*
D02*
G37*
G36*
X387995Y272000D02*
X386005D01*
X384168Y271239D01*
X382761Y269832D01*
X382000Y267995D01*
Y266005D01*
X382761Y264168D01*
X384168Y262761D01*
X385058Y262393D01*
Y77055D01*
X366253Y58250D01*
X352500D01*
Y41750D01*
X369000D01*
Y55503D01*
X388373Y74877D01*
X388794Y75507D01*
X388942Y76250D01*
Y262393D01*
X389832Y262761D01*
X391239Y264168D01*
X392000Y266005D01*
Y267995D01*
X391239Y269832D01*
X389832Y271239D01*
X387995Y272000D01*
D02*
G37*
G36*
X219995Y96000D02*
X218005D01*
X216168Y95239D01*
X214761Y93832D01*
X214000Y91995D01*
Y90005D01*
X214761Y88168D01*
X216168Y86761D01*
X217058Y86393D01*
Y71750D01*
X217206Y71007D01*
X217627Y70377D01*
X232500Y55503D01*
Y41750D01*
X249000D01*
Y58250D01*
X235247D01*
X220942Y72554D01*
Y86393D01*
X221832Y86761D01*
X223239Y88168D01*
X224000Y90005D01*
Y91995D01*
X223239Y93832D01*
X221832Y95239D01*
X219995Y96000D01*
D02*
G37*
G36*
X463790Y48730D02*
X456270D01*
Y41210D01*
X463790D01*
Y48730D01*
D02*
G37*
G36*
X453730D02*
X446210D01*
Y41210D01*
X453730D01*
Y48730D01*
D02*
G37*
G36*
X343790D02*
X336270D01*
Y41210D01*
X343790D01*
Y48730D01*
D02*
G37*
G36*
X333730D02*
X326210D01*
Y41210D01*
X333730D01*
Y48730D01*
D02*
G37*
G36*
X194067Y50020D02*
X191534D01*
X189087Y49364D01*
X186893Y48098D01*
X185102Y46307D01*
X183836Y44113D01*
X183180Y41666D01*
Y39134D01*
X183836Y36687D01*
X185102Y34493D01*
X186893Y32702D01*
X189087Y31436D01*
X191534Y30780D01*
X194067D01*
X196513Y31436D01*
X198707Y32702D01*
X200498Y34493D01*
X201764Y36687D01*
X202420Y39134D01*
Y41666D01*
X201764Y44113D01*
X200498Y46307D01*
X198707Y48098D01*
X196513Y49364D01*
X194067Y50020D01*
D02*
G37*
G36*
X16266Y50020D02*
X13734D01*
X11287Y49364D01*
X9093Y48098D01*
X7302Y46307D01*
X6036Y44113D01*
X5380Y41666D01*
Y39134D01*
X6036Y36687D01*
X7302Y34493D01*
X9093Y32702D01*
X11287Y31436D01*
X13734Y30780D01*
X16266D01*
X18713Y31436D01*
X20907Y32702D01*
X22698Y34493D01*
X23964Y36687D01*
X24620Y39134D01*
Y41666D01*
X23964Y44113D01*
X22698Y46307D01*
X20907Y48098D01*
X18713Y49364D01*
X16266Y50020D01*
D02*
G37*
G36*
X202420Y24620D02*
X183180D01*
Y5380D01*
X202420D01*
Y24620D01*
D02*
G37*
G36*
X418250Y129750D02*
X401750D01*
Y115250D01*
X403595D01*
Y103250D01*
X401750D01*
Y86750D01*
X403595D01*
Y73250D01*
X401750D01*
Y56750D01*
X403595D01*
Y44750D01*
X401750D01*
Y30250D01*
X403595D01*
Y10000D01*
X403813Y8342D01*
X404453Y6798D01*
X405471Y5471D01*
X406798Y4453D01*
X408342Y3814D01*
X410000Y3595D01*
X411658Y3814D01*
X413202Y4453D01*
X414529Y5471D01*
X415547Y6798D01*
X416186Y8342D01*
X416405Y10000D01*
Y30250D01*
X418250D01*
Y44750D01*
X416405D01*
Y56750D01*
X418250D01*
Y73250D01*
X416405D01*
Y86750D01*
X418250D01*
Y103250D01*
X416405D01*
Y115250D01*
X418250D01*
Y129750D01*
D02*
G37*
%LPD*%
G36*
X361683Y398995D02*
X362003D01*
Y398835D01*
Y398675D01*
Y398515D01*
Y398355D01*
Y398195D01*
Y398035D01*
Y397875D01*
Y397715D01*
X361843D01*
Y397555D01*
Y397395D01*
Y397235D01*
Y397075D01*
Y396915D01*
X362803D01*
X362803Y396755D01*
X364082D01*
Y396595D01*
X365042D01*
Y396435D01*
X365842D01*
Y396275D01*
X366802D01*
Y396115D01*
X367762D01*
Y395955D01*
X369042D01*
Y395795D01*
X370002D01*
Y395955D01*
Y396115D01*
X370162D01*
Y396275D01*
Y396435D01*
Y396595D01*
Y396755D01*
Y396915D01*
Y397075D01*
Y397235D01*
Y397395D01*
Y397555D01*
X370642D01*
Y397395D01*
X371122D01*
Y397235D01*
Y397075D01*
Y396915D01*
X370962D01*
Y396755D01*
Y396595D01*
Y396435D01*
Y396275D01*
Y396115D01*
Y395955D01*
Y395795D01*
Y395635D01*
Y395475D01*
Y395315D01*
X370802D01*
Y395155D01*
X370802Y394995D01*
X370482D01*
X370482Y394835D01*
X369842D01*
Y394995D01*
X368562D01*
Y395155D01*
X367602D01*
Y395315D01*
X366962D01*
Y395475D01*
X366322D01*
Y395635D01*
X365522D01*
Y395795D01*
X364722Y395795D01*
Y395955D01*
X361683D01*
Y395795D01*
Y395635D01*
Y395475D01*
Y395315D01*
X361523D01*
Y395155D01*
X361203D01*
Y395315D01*
Y395475D01*
X361043D01*
Y395315D01*
X360723D01*
Y395475D01*
X360883D01*
Y395635D01*
Y395795D01*
Y395955D01*
Y396115D01*
Y396275D01*
Y396435D01*
Y396595D01*
X361043D01*
Y396755D01*
Y396915D01*
Y397075D01*
Y397235D01*
Y397395D01*
X361203D01*
Y397555D01*
Y397715D01*
Y397875D01*
Y398035D01*
Y398195D01*
X361363D01*
Y398355D01*
Y398515D01*
Y398675D01*
Y398835D01*
Y398995D01*
Y399155D01*
X361683D01*
Y398995D01*
D02*
G37*
G36*
X452715Y364118D02*
X452875D01*
Y363958D01*
X452715Y363958D01*
Y364118D01*
X452555D01*
Y364278D01*
X452715D01*
Y364118D01*
D02*
G37*
G36*
X462314Y360598D02*
X462154D01*
Y360758D01*
X462314D01*
X462314Y360598D01*
D02*
G37*
G36*
X462474Y360438D02*
Y360278D01*
X462634D01*
Y360118D01*
X462794D01*
Y359958D01*
X462954D01*
Y359798D01*
Y359638D01*
X463114D01*
Y359478D01*
X463274D01*
Y359318D01*
X463434Y359318D01*
Y359158D01*
X463434Y358998D01*
X463594D01*
Y358838D01*
X463754D01*
Y358678D01*
X463914D01*
Y358518D01*
X464074D01*
Y358358D01*
X463594D01*
Y358518D01*
X463274D01*
X463274Y358678D01*
X463274Y358838D01*
X463114D01*
Y358998D01*
Y359158D01*
X462954D01*
Y359318D01*
Y359478D01*
X462794D01*
Y359638D01*
X462634D01*
Y359798D01*
Y359958D01*
X462474D01*
X462474Y360118D01*
X462474Y360278D01*
X462314D01*
Y360438D01*
Y360598D01*
X462474D01*
Y360438D01*
D02*
G37*
G36*
X452235Y351159D02*
X452075D01*
Y351319D01*
X452235D01*
X452235Y351159D01*
D02*
G37*
G36*
X479593Y307163D02*
X479273D01*
Y307003D01*
X479113D01*
Y307163D01*
Y307323D01*
X479593D01*
Y307163D01*
D02*
G37*
G36*
X473193Y301883D02*
X473033D01*
Y301723D01*
X472873D01*
Y301883D01*
Y302043D01*
X473193D01*
Y301883D01*
D02*
G37*
G36*
X472713Y301723D02*
X472553D01*
Y301563D01*
X472393D01*
Y301723D01*
Y301883D01*
X472713D01*
Y301723D01*
D02*
G37*
%LPC*%
G36*
X362482Y396755D02*
X361843D01*
Y396595D01*
X362482D01*
Y396755D01*
D02*
G37*
%LPD*%
D13*
X290000Y157500D02*
D03*
Y242500D02*
D03*
X410000Y157500D02*
D03*
Y242500D02*
D03*
X290000Y37500D02*
D03*
Y122500D02*
D03*
X410000Y37500D02*
D03*
Y122500D02*
D03*
D14*
X335000Y230000D02*
D03*
Y170000D02*
D03*
Y200000D02*
D03*
X290000Y185000D02*
D03*
Y215000D02*
D03*
X240750Y230000D02*
D03*
Y170000D02*
D03*
X455000Y230000D02*
D03*
Y170000D02*
D03*
Y200000D02*
D03*
X410000Y185000D02*
D03*
Y215000D02*
D03*
X360750Y230000D02*
D03*
Y170000D02*
D03*
X335000Y110000D02*
D03*
Y50000D02*
D03*
Y80000D02*
D03*
X290000Y65000D02*
D03*
Y95000D02*
D03*
X240750Y110000D02*
D03*
Y50000D02*
D03*
X455000Y110000D02*
D03*
Y50000D02*
D03*
Y80000D02*
D03*
X410000Y65000D02*
D03*
Y95000D02*
D03*
X360750Y110000D02*
D03*
Y50000D02*
D03*
D22*
X375000Y184250D02*
Y265000D01*
X360750Y170000D02*
X375000Y184250D01*
X360750Y264750D02*
X361000Y265000D01*
X360750Y230000D02*
Y264750D01*
X313000Y152000D02*
Y347800D01*
X300800Y360000D02*
X313000Y347800D01*
X387000Y76250D02*
Y267000D01*
X360750Y50000D02*
X387000Y76250D01*
X219000Y71750D02*
Y91000D01*
Y71750D02*
X240750Y50000D01*
X192800Y91200D02*
X218000Y116400D01*
Y147250D01*
X240750Y170000D01*
X300000Y139000D02*
X313000Y152000D01*
X269750Y139000D02*
X300000D01*
X240750Y110000D02*
X269750Y139000D01*
X250000Y360000D02*
X262000Y348000D01*
X277000D01*
X288000Y337000D01*
Y290000D02*
Y337000D01*
X240750Y242750D02*
X288000Y290000D01*
X240750Y230000D02*
Y242750D01*
X179000Y257000D02*
X197800D01*
X250000Y309200D01*
X162000Y240000D02*
X179000Y257000D01*
X162000Y147400D02*
Y240000D01*
Y147400D02*
X192800Y116600D01*
X268535Y295535D02*
Y302335D01*
X204000Y231000D02*
X268535Y295535D01*
Y302335D02*
X275400Y309200D01*
X184000Y231000D02*
X204000D01*
X172000Y219000D02*
X184000Y231000D01*
X172000Y162800D02*
Y219000D01*
Y162800D02*
X192800Y142000D01*
X300800Y282800D02*
Y309200D01*
X267000Y249000D02*
X300800Y282800D01*
X267000Y225000D02*
Y249000D01*
X247000Y205000D02*
X267000Y225000D01*
X230400Y205000D02*
X247000D01*
X192800Y167400D02*
X230400Y205000D01*
D23*
X410000Y242500D02*
Y270000D01*
X290000Y258000D02*
X301000Y269000D01*
X290000Y242500D02*
Y258000D01*
Y9000D02*
Y37500D01*
X410000Y95000D02*
Y122500D01*
Y65000D02*
Y95000D01*
Y37500D02*
Y65000D01*
Y10000D02*
Y37500D01*
Y215000D02*
Y242500D01*
Y185000D02*
Y215000D01*
Y157500D02*
Y185000D01*
X290000Y215000D02*
Y242500D01*
Y185000D02*
Y215000D01*
Y157500D02*
Y185000D01*
Y95000D02*
Y122500D01*
Y65000D02*
Y95000D01*
Y37500D02*
Y65000D01*
X398400Y429200D02*
X457200Y488000D01*
X250000Y429200D02*
X398400D01*
D24*
X110000Y356561D02*
X187540Y434100D01*
X204100Y434100D02*
X250000Y480000D01*
X198060Y434100D02*
X204100D01*
X198060Y434100D02*
X198060Y434100D01*
X187540Y434100D02*
X198060D01*
X110000Y110000D02*
Y356561D01*
X15000Y15000D02*
X110000Y110000D01*
D25*
X250000Y429200D02*
D03*
Y309200D02*
D03*
X275400D02*
D03*
X300800D02*
D03*
D26*
X250000Y454600D02*
D03*
Y480000D02*
D03*
Y334600D02*
D03*
Y360000D02*
D03*
X275400Y334600D02*
D03*
Y360000D02*
D03*
X457200Y488000D02*
D03*
X300800Y334600D02*
D03*
Y360000D02*
D03*
D27*
X15000Y15000D02*
D03*
Y40400D02*
D03*
Y65800D02*
D03*
Y91200D02*
D03*
Y116600D02*
D03*
Y142000D02*
D03*
Y167400D02*
D03*
Y192800D02*
D03*
Y218200D02*
D03*
Y243600D02*
D03*
X15000Y269000D02*
D03*
X15000Y294400D02*
D03*
Y319800D02*
D03*
Y345200D02*
D03*
Y370600D02*
D03*
Y396000D02*
D03*
Y421400D02*
D03*
Y446800D02*
D03*
Y472200D02*
D03*
X15000Y497600D02*
D03*
X192800D02*
D03*
Y472200D02*
D03*
Y446800D02*
D03*
Y421400D02*
D03*
Y396000D02*
D03*
Y370600D02*
D03*
Y345200D02*
D03*
Y319800D02*
D03*
Y294400D02*
D03*
Y269000D02*
D03*
Y243600D02*
D03*
Y218200D02*
D03*
Y192800D02*
D03*
Y167400D02*
D03*
Y142000D02*
D03*
Y116600D02*
D03*
Y91200D02*
D03*
Y65800D02*
D03*
Y40400D02*
D03*
D28*
Y15000D02*
D03*
D29*
X482600Y488000D02*
D03*
D30*
X375000Y265000D02*
D03*
X361000D02*
D03*
X387000Y267000D02*
D03*
X290000Y15000D02*
D03*
X410000Y16000D02*
D03*
Y264000D02*
D03*
X297000Y265000D02*
D03*
X410000Y270000D02*
D03*
X301000Y269000D02*
D03*
X290000Y9000D02*
D03*
X410000Y10000D02*
D03*
X219000Y91000D02*
D03*
M02*
