G04*
G04 #@! TF.GenerationSoftware,Altium Limited,Altium Designer,21.5.1 (32)*
G04*
G04 Layer_Physical_Order=2*
G04 Layer_Color=16711680*
%FSLAX44Y44*%
%MOMM*%
G71*
G04*
G04 #@! TF.SameCoordinates,A6E62D76-81F8-4FAA-A2E2-D8AED4B4A1C6*
G04*
G04*
G04 #@! TF.FilePolarity,Positive*
G04*
G01*
G75*
%ADD22C,0.1270*%
%ADD25R,1.5000X1.5000*%
%ADD26C,1.5000*%
%ADD27C,1.5240*%
%ADD28R,1.5240X1.5240*%
%ADD29R,1.5000X1.5000*%
%ADD30C,0.6000*%
G36*
X497961Y2039D02*
X2039D01*
Y507961D01*
X11592D01*
X11759Y506691D01*
X11287Y506564D01*
X9093Y505298D01*
X7302Y503507D01*
X6036Y501313D01*
X5380Y498867D01*
Y496334D01*
X6036Y493887D01*
X7302Y491693D01*
X9093Y489902D01*
X11287Y488636D01*
X13734Y487980D01*
X16266D01*
X18713Y488636D01*
X20907Y489902D01*
X22698Y491693D01*
X23964Y493887D01*
X24620Y496334D01*
Y498867D01*
X23964Y501313D01*
X22698Y503507D01*
X20907Y505298D01*
X18713Y506564D01*
X18241Y506691D01*
X18408Y507961D01*
X189392D01*
X189559Y506691D01*
X189087Y506564D01*
X186893Y505298D01*
X185102Y503507D01*
X183836Y501313D01*
X183180Y498867D01*
Y496334D01*
X183836Y493887D01*
X185102Y491693D01*
X186893Y489902D01*
X189087Y488636D01*
X191534Y487980D01*
X194067D01*
X196513Y488636D01*
X198707Y489902D01*
X200498Y491693D01*
X201764Y493887D01*
X202420Y496334D01*
Y498867D01*
X201764Y501313D01*
X200498Y503507D01*
X198707Y505298D01*
X196513Y506564D01*
X196041Y506691D01*
X196208Y507961D01*
X497961D01*
X497961Y2039D01*
D02*
G37*
%LPC*%
G36*
X492100Y497500D02*
X485140D01*
Y490540D01*
X492100D01*
Y497500D01*
D02*
G37*
G36*
X480060D02*
X473100D01*
Y490540D01*
X480060D01*
Y497500D01*
D02*
G37*
G36*
X492100Y485460D02*
X485140D01*
Y478500D01*
X492100D01*
Y485460D01*
D02*
G37*
G36*
X480060D02*
X473100D01*
Y478500D01*
X480060D01*
Y485460D01*
D02*
G37*
G36*
X458451Y497500D02*
X455949D01*
X453533Y496853D01*
X451367Y495602D01*
X449598Y493833D01*
X448347Y491667D01*
X447700Y489251D01*
Y486749D01*
X448347Y484333D01*
X449598Y482167D01*
X451367Y480398D01*
X453533Y479147D01*
X455949Y478500D01*
X458451D01*
X460867Y479147D01*
X463033Y480398D01*
X464802Y482167D01*
X466053Y484333D01*
X466700Y486749D01*
Y489251D01*
X466053Y491667D01*
X464802Y493833D01*
X463033Y495602D01*
X460867Y496853D01*
X458451Y497500D01*
D02*
G37*
G36*
X251251Y489500D02*
X248749D01*
X246333Y488853D01*
X244167Y487602D01*
X242398Y485833D01*
X241147Y483667D01*
X240500Y481251D01*
Y478749D01*
X241147Y476333D01*
X242398Y474167D01*
X244167Y472398D01*
X246333Y471147D01*
X248749Y470500D01*
X251251D01*
X253667Y471147D01*
X255833Y472398D01*
X257602Y474167D01*
X258853Y476333D01*
X259500Y478749D01*
Y481251D01*
X258853Y483667D01*
X257602Y485833D01*
X255833Y487602D01*
X253667Y488853D01*
X251251Y489500D01*
D02*
G37*
G36*
X194067Y481820D02*
X191534D01*
X189087Y481164D01*
X186893Y479898D01*
X185102Y478107D01*
X183836Y475913D01*
X183180Y473466D01*
Y470933D01*
X183836Y468487D01*
X185102Y466293D01*
X186893Y464502D01*
X189087Y463236D01*
X191534Y462580D01*
X194067D01*
X196513Y463236D01*
X198707Y464502D01*
X200498Y466293D01*
X201764Y468487D01*
X202420Y470933D01*
Y473466D01*
X201764Y475913D01*
X200498Y478107D01*
X198707Y479898D01*
X196513Y481164D01*
X194067Y481820D01*
D02*
G37*
G36*
X16266D02*
X13734D01*
X11287Y481164D01*
X9093Y479898D01*
X7302Y478107D01*
X6036Y475913D01*
X5380Y473466D01*
Y470933D01*
X6036Y468487D01*
X7302Y466293D01*
X9093Y464502D01*
X11287Y463236D01*
X13734Y462580D01*
X16266D01*
X18713Y463236D01*
X20907Y464502D01*
X22698Y466293D01*
X23964Y468487D01*
X24620Y470933D01*
Y473466D01*
X23964Y475913D01*
X22698Y478107D01*
X20907Y479898D01*
X18713Y481164D01*
X16266Y481820D01*
D02*
G37*
G36*
X16338Y456960D02*
X16270D01*
Y448070D01*
X25160D01*
Y448138D01*
X24468Y450722D01*
X23130Y453038D01*
X21238Y454930D01*
X18922Y456268D01*
X16338Y456960D01*
D02*
G37*
G36*
X13730D02*
X13662D01*
X11078Y456268D01*
X8762Y454930D01*
X6870Y453038D01*
X5532Y450722D01*
X4840Y448138D01*
Y448070D01*
X13730D01*
Y456960D01*
D02*
G37*
G36*
X194138Y456960D02*
X194070D01*
Y448070D01*
X202960D01*
Y448138D01*
X202268Y450722D01*
X200930Y453038D01*
X199038Y454930D01*
X196722Y456268D01*
X194138Y456960D01*
D02*
G37*
G36*
X191530D02*
X191462D01*
X188878Y456268D01*
X186562Y454930D01*
X184670Y453038D01*
X183332Y450722D01*
X182640Y448138D01*
Y448070D01*
X191530D01*
Y456960D01*
D02*
G37*
G36*
X251251Y464100D02*
X248749D01*
X246333Y463453D01*
X244167Y462202D01*
X242398Y460433D01*
X241147Y458267D01*
X240500Y455851D01*
Y453349D01*
X241147Y450933D01*
X242398Y448767D01*
X244167Y446998D01*
X246333Y445747D01*
X248749Y445100D01*
X251251D01*
X253667Y445747D01*
X255833Y446998D01*
X257602Y448767D01*
X258853Y450933D01*
X259500Y453349D01*
Y455851D01*
X258853Y458267D01*
X257602Y460433D01*
X255833Y462202D01*
X253667Y463453D01*
X251251Y464100D01*
D02*
G37*
G36*
X25160Y445530D02*
X16270D01*
Y436640D01*
X16338D01*
X18922Y437332D01*
X21238Y438670D01*
X23130Y440562D01*
X24468Y442878D01*
X25160Y445462D01*
Y445530D01*
D02*
G37*
G36*
X13730D02*
X4840D01*
Y445462D01*
X5532Y442878D01*
X6870Y440562D01*
X8762Y438670D01*
X11078Y437332D01*
X13662Y436640D01*
X13730D01*
Y445530D01*
D02*
G37*
G36*
X202960Y445530D02*
X194070D01*
Y436640D01*
X194138D01*
X196722Y437332D01*
X199038Y438670D01*
X200930Y440562D01*
X202268Y442878D01*
X202960Y445462D01*
Y445530D01*
D02*
G37*
G36*
X191530D02*
X182640D01*
Y445462D01*
X183332Y442878D01*
X184670Y440562D01*
X186562Y438670D01*
X188878Y437332D01*
X191462Y436640D01*
X191530D01*
Y445530D01*
D02*
G37*
G36*
X259500Y438700D02*
X240500D01*
Y419700D01*
X259500D01*
Y438700D01*
D02*
G37*
G36*
X194067Y431020D02*
X191534D01*
X189087Y430364D01*
X186893Y429098D01*
X185102Y427307D01*
X183836Y425113D01*
X183180Y422667D01*
Y420134D01*
X183836Y417687D01*
X185102Y415493D01*
X186893Y413702D01*
X189087Y412436D01*
X191534Y411780D01*
X194067D01*
X196513Y412436D01*
X198707Y413702D01*
X200498Y415493D01*
X201764Y417687D01*
X202420Y420134D01*
Y422667D01*
X201764Y425113D01*
X200498Y427307D01*
X198707Y429098D01*
X196513Y430364D01*
X194067Y431020D01*
D02*
G37*
G36*
X16266D02*
X13734D01*
X11287Y430364D01*
X9093Y429098D01*
X7302Y427307D01*
X6036Y425113D01*
X5380Y422667D01*
Y420134D01*
X6036Y417687D01*
X7302Y415493D01*
X9093Y413702D01*
X11287Y412436D01*
X13734Y411780D01*
X16266D01*
X18713Y412436D01*
X20907Y413702D01*
X22698Y415493D01*
X23964Y417687D01*
X24620Y420134D01*
Y422667D01*
X23964Y425113D01*
X22698Y427307D01*
X20907Y429098D01*
X18713Y430364D01*
X16266Y431020D01*
D02*
G37*
G36*
X194067Y405620D02*
X191534D01*
X189087Y404964D01*
X186893Y403698D01*
X185102Y401907D01*
X183836Y399713D01*
X183180Y397267D01*
Y394734D01*
X183836Y392287D01*
X185102Y390093D01*
X186893Y388302D01*
X189087Y387036D01*
X191534Y386380D01*
X194067D01*
X196513Y387036D01*
X198707Y388302D01*
X200498Y390093D01*
X201764Y392287D01*
X202420Y394734D01*
Y397267D01*
X201764Y399713D01*
X200498Y401907D01*
X198707Y403698D01*
X196513Y404964D01*
X194067Y405620D01*
D02*
G37*
G36*
X16266Y405620D02*
X13734D01*
X11287Y404964D01*
X9093Y403698D01*
X7302Y401907D01*
X6036Y399713D01*
X5380Y397267D01*
Y394734D01*
X6036Y392287D01*
X7302Y390093D01*
X9093Y388302D01*
X11287Y387036D01*
X13734Y386380D01*
X16266D01*
X18713Y387036D01*
X20907Y388302D01*
X22698Y390093D01*
X23964Y392287D01*
X24620Y394734D01*
Y397267D01*
X23964Y399713D01*
X22698Y401907D01*
X20907Y403698D01*
X18713Y404964D01*
X16266Y405620D01*
D02*
G37*
G36*
Y380220D02*
X13734D01*
X11287Y379564D01*
X9093Y378298D01*
X7302Y376507D01*
X6036Y374313D01*
X5380Y371866D01*
Y369333D01*
X6036Y366887D01*
X7302Y364693D01*
X9093Y362902D01*
X11287Y361636D01*
X13734Y360980D01*
X16266D01*
X18713Y361636D01*
X20907Y362902D01*
X22698Y364693D01*
X23964Y366887D01*
X24620Y369333D01*
Y371866D01*
X23964Y374313D01*
X22698Y376507D01*
X20907Y378298D01*
X18713Y379564D01*
X16266Y380220D01*
D02*
G37*
G36*
X194067Y380220D02*
X191534D01*
X189087Y379564D01*
X186893Y378298D01*
X185102Y376507D01*
X183836Y374313D01*
X183180Y371866D01*
Y369333D01*
X183836Y366887D01*
X185102Y364693D01*
X186893Y362902D01*
X189087Y361636D01*
X191534Y360980D01*
X194067D01*
X196513Y361636D01*
X198707Y362902D01*
X200498Y364693D01*
X201764Y366887D01*
X202420Y369333D01*
Y371866D01*
X201764Y374313D01*
X200498Y376507D01*
X198707Y378298D01*
X196513Y379564D01*
X194067Y380220D01*
D02*
G37*
G36*
X302051Y369500D02*
X299549D01*
X297133Y368853D01*
X294967Y367602D01*
X293198Y365833D01*
X291947Y363667D01*
X291300Y361251D01*
Y358749D01*
X291947Y356333D01*
X293198Y354167D01*
X294967Y352398D01*
X297133Y351147D01*
X299549Y350500D01*
X302051D01*
X304467Y351147D01*
X306633Y352398D01*
X308402Y354167D01*
X309653Y356333D01*
X310300Y358749D01*
Y361251D01*
X309653Y363667D01*
X308402Y365833D01*
X306633Y367602D01*
X304467Y368853D01*
X302051Y369500D01*
D02*
G37*
G36*
X251251D02*
X248749D01*
X246333Y368853D01*
X244167Y367602D01*
X242398Y365833D01*
X241147Y363667D01*
X240500Y361251D01*
Y358749D01*
X241147Y356333D01*
X242398Y354167D01*
X244167Y352398D01*
X246333Y351147D01*
X248749Y350500D01*
X251251D01*
X253667Y351147D01*
X255833Y352398D01*
X257602Y354167D01*
X258853Y356333D01*
X259500Y358749D01*
Y361251D01*
X258853Y363667D01*
X257602Y365833D01*
X255833Y367602D01*
X253667Y368853D01*
X251251Y369500D01*
D02*
G37*
G36*
X276651D02*
X274149D01*
X271733Y368853D01*
X269567Y367602D01*
X267798Y365833D01*
X266547Y363667D01*
X265900Y361251D01*
Y358749D01*
X266547Y356333D01*
X267798Y354167D01*
X269567Y352398D01*
X270612Y351795D01*
X271049Y350104D01*
X270953Y349942D01*
X263400D01*
X262657Y349794D01*
X262027Y349373D01*
X255213Y342560D01*
X253667Y343453D01*
X251251Y344100D01*
X248749D01*
X246333Y343453D01*
X244167Y342202D01*
X242398Y340433D01*
X241147Y338267D01*
X240500Y335851D01*
Y333349D01*
X241147Y330933D01*
X242398Y328767D01*
X244167Y326998D01*
X246333Y325747D01*
X248749Y325100D01*
X251251D01*
X253667Y325747D01*
X255833Y326998D01*
X257602Y328767D01*
X258853Y330933D01*
X259500Y333349D01*
Y335851D01*
X258853Y338267D01*
X257960Y339813D01*
X264205Y346058D01*
X278195D01*
X279494Y344759D01*
X279094Y343534D01*
X278982Y343475D01*
X276651Y344100D01*
X274149D01*
X271733Y343453D01*
X269567Y342202D01*
X267798Y340433D01*
X266547Y338267D01*
X265900Y335851D01*
Y333349D01*
X266547Y330933D01*
X267440Y329387D01*
X261627Y323573D01*
X261206Y322943D01*
X261058Y322200D01*
Y135805D01*
X220884Y95631D01*
X219995Y96000D01*
X218005D01*
X216168Y95239D01*
X214761Y93832D01*
X214000Y91995D01*
Y90005D01*
X214761Y88168D01*
X216168Y86761D01*
X218005Y86000D01*
X219995D01*
X221832Y86761D01*
X223239Y88168D01*
X224000Y90005D01*
Y91995D01*
X223631Y92885D01*
X264373Y133626D01*
X264373Y133627D01*
X264795Y134257D01*
X264942Y135000D01*
X264942Y135000D01*
Y298946D01*
X265900Y299700D01*
X284058D01*
Y263000D01*
X284206Y262257D01*
X284627Y261627D01*
X294627Y251627D01*
X295257Y251206D01*
X296000Y251058D01*
X363000D01*
X363743Y251206D01*
X364373Y251627D01*
X373116Y260369D01*
X374005Y260000D01*
X375995D01*
X377832Y260761D01*
X379239Y262168D01*
X380000Y264005D01*
Y265995D01*
X379239Y267832D01*
X377832Y269239D01*
X375995Y270000D01*
X374005D01*
X372168Y269239D01*
X370761Y267832D01*
X370000Y265995D01*
Y264005D01*
X370369Y263116D01*
X362196Y254942D01*
X296805D01*
X287942Y263804D01*
Y294652D01*
X289116Y295138D01*
X298627Y285627D01*
X299257Y285206D01*
X300000Y285058D01*
X300000Y285058D01*
X338195D01*
X356369Y266884D01*
X356000Y265995D01*
Y264005D01*
X356761Y262168D01*
X358168Y260761D01*
X360005Y260000D01*
X361995D01*
X363832Y260761D01*
X365239Y262168D01*
X366000Y264005D01*
Y265995D01*
X365239Y267832D01*
X363832Y269239D01*
X361995Y270000D01*
X360005D01*
X359115Y269631D01*
X340373Y288373D01*
X339743Y288794D01*
X339000Y288942D01*
X300805D01*
X291317Y298430D01*
X291827Y299700D01*
X292226Y299700D01*
X310300D01*
Y318700D01*
X292226D01*
X291300Y318700D01*
X290956Y319827D01*
Y330111D01*
X292226Y330451D01*
X293198Y328767D01*
X294967Y326998D01*
X297133Y325747D01*
X299549Y325100D01*
X302051D01*
X304467Y325747D01*
X306633Y326998D01*
X308402Y328767D01*
X309653Y330933D01*
X310115Y332658D01*
X362595D01*
X385058Y310195D01*
Y271607D01*
X384168Y271239D01*
X382761Y269832D01*
X382000Y267995D01*
Y266005D01*
X382761Y264168D01*
X384168Y262761D01*
X386005Y262000D01*
X387995D01*
X389832Y262761D01*
X391239Y264168D01*
X392000Y266005D01*
Y267995D01*
X391239Y269832D01*
X389832Y271239D01*
X388942Y271607D01*
Y311000D01*
X388794Y311743D01*
X388373Y312373D01*
X364773Y335973D01*
X364143Y336395D01*
X363400Y336542D01*
X310115D01*
X309653Y338267D01*
X308402Y340433D01*
X306633Y342202D01*
X304467Y343453D01*
X302051Y344100D01*
X299549D01*
X297133Y343453D01*
X294967Y342202D01*
X293198Y340433D01*
X292226Y338749D01*
X290956Y339089D01*
Y346386D01*
X290808Y347130D01*
X290387Y347760D01*
X283360Y354787D01*
X284253Y356333D01*
X284900Y358749D01*
Y361251D01*
X284253Y363667D01*
X283002Y365833D01*
X281233Y367602D01*
X279067Y368853D01*
X276651Y369500D01*
D02*
G37*
G36*
X194067Y354820D02*
X191534D01*
X189087Y354164D01*
X186893Y352898D01*
X185102Y351107D01*
X183836Y348913D01*
X183180Y346466D01*
Y343933D01*
X183836Y341487D01*
X185102Y339293D01*
X186893Y337502D01*
X189087Y336236D01*
X191534Y335580D01*
X194067D01*
X196513Y336236D01*
X198707Y337502D01*
X200498Y339293D01*
X201764Y341487D01*
X202420Y343933D01*
Y346466D01*
X201764Y348913D01*
X200498Y351107D01*
X198707Y352898D01*
X196513Y354164D01*
X194067Y354820D01*
D02*
G37*
G36*
X16266D02*
X13734D01*
X11287Y354164D01*
X9093Y352898D01*
X7302Y351107D01*
X6036Y348913D01*
X5380Y346466D01*
Y343933D01*
X6036Y341487D01*
X7302Y339293D01*
X9093Y337502D01*
X11287Y336236D01*
X13734Y335580D01*
X16266D01*
X18713Y336236D01*
X20907Y337502D01*
X22698Y339293D01*
X23964Y341487D01*
X24620Y343933D01*
Y346466D01*
X23964Y348913D01*
X22698Y351107D01*
X20907Y352898D01*
X18713Y354164D01*
X16266Y354820D01*
D02*
G37*
G36*
X16338Y329960D02*
X16270D01*
Y321070D01*
X25160D01*
Y321138D01*
X24468Y323722D01*
X23130Y326038D01*
X21238Y327930D01*
X18922Y329268D01*
X16338Y329960D01*
D02*
G37*
G36*
X13730D02*
X13662D01*
X11078Y329268D01*
X8762Y327930D01*
X6870Y326038D01*
X5532Y323722D01*
X4840Y321138D01*
Y321070D01*
X13730D01*
Y329960D01*
D02*
G37*
G36*
X194138Y329960D02*
X194070D01*
Y321070D01*
X202960D01*
Y321138D01*
X202268Y323722D01*
X200930Y326038D01*
X199038Y327930D01*
X196722Y329268D01*
X194138Y329960D01*
D02*
G37*
G36*
X191530D02*
X191462D01*
X188878Y329268D01*
X186562Y327930D01*
X184670Y326038D01*
X183332Y323722D01*
X182640Y321138D01*
Y321070D01*
X191530D01*
Y329960D01*
D02*
G37*
G36*
X202960Y318530D02*
X194070D01*
Y309640D01*
X194138D01*
X196722Y310332D01*
X199038Y311670D01*
X200930Y313562D01*
X202268Y315878D01*
X202960Y318462D01*
Y318530D01*
D02*
G37*
G36*
X191530D02*
X182640D01*
Y318462D01*
X183332Y315878D01*
X184670Y313562D01*
X186562Y311670D01*
X188878Y310332D01*
X191462Y309640D01*
X191530D01*
Y318530D01*
D02*
G37*
G36*
X25160Y318530D02*
X16270D01*
Y309640D01*
X16338D01*
X18922Y310332D01*
X21238Y311670D01*
X23130Y313562D01*
X24468Y315878D01*
X25160Y318462D01*
Y318530D01*
D02*
G37*
G36*
X13730D02*
X4840D01*
Y318462D01*
X5532Y315878D01*
X6870Y313562D01*
X8762Y311670D01*
X11078Y310332D01*
X13662Y309640D01*
X13730D01*
Y318530D01*
D02*
G37*
G36*
X259500Y318700D02*
X240500D01*
Y299700D01*
X259500D01*
Y318700D01*
D02*
G37*
G36*
X194067Y304020D02*
X191534D01*
X189087Y303364D01*
X186893Y302098D01*
X185102Y300307D01*
X183836Y298113D01*
X183180Y295667D01*
Y293134D01*
X183836Y290687D01*
X185102Y288493D01*
X186893Y286702D01*
X189087Y285436D01*
X191534Y284780D01*
X194067D01*
X196513Y285436D01*
X198707Y286702D01*
X200498Y288493D01*
X201764Y290687D01*
X202420Y293134D01*
Y295667D01*
X201764Y298113D01*
X200498Y300307D01*
X198707Y302098D01*
X196513Y303364D01*
X194067Y304020D01*
D02*
G37*
G36*
X16266D02*
X13734D01*
X11287Y303364D01*
X9093Y302098D01*
X7302Y300307D01*
X6036Y298113D01*
X5380Y295667D01*
Y293134D01*
X6036Y290687D01*
X7302Y288493D01*
X9093Y286702D01*
X11287Y285436D01*
X13734Y284780D01*
X16266D01*
X18713Y285436D01*
X20907Y286702D01*
X22698Y288493D01*
X23964Y290687D01*
X24620Y293134D01*
Y295667D01*
X23964Y298113D01*
X22698Y300307D01*
X20907Y302098D01*
X18713Y303364D01*
X16266Y304020D01*
D02*
G37*
G36*
X411270Y274886D02*
Y271270D01*
X414886D01*
X414239Y272832D01*
X412832Y274239D01*
X411270Y274886D01*
D02*
G37*
G36*
X408730D02*
X407168Y274239D01*
X405761Y272832D01*
X405114Y271270D01*
X408730D01*
Y274886D01*
D02*
G37*
G36*
X302270Y273886D02*
Y270270D01*
X305886D01*
X305239Y271832D01*
X303832Y273239D01*
X302270Y273886D01*
D02*
G37*
G36*
X414886Y268730D02*
X405114D01*
X405761Y267168D01*
X405929Y267000D01*
X405761Y266832D01*
X405114Y265270D01*
X414886D01*
X414239Y266832D01*
X414071Y267000D01*
X414239Y267168D01*
X414886Y268730D01*
D02*
G37*
G36*
X299730Y273886D02*
X298168Y273239D01*
X296761Y271832D01*
X296002Y269998D01*
X294168Y269239D01*
X292761Y267832D01*
X292114Y266270D01*
X297000D01*
Y265000D01*
X298270D01*
Y260114D01*
X299832Y260761D01*
X301239Y262168D01*
X301998Y264002D01*
X303832Y264761D01*
X305239Y266168D01*
X305886Y267730D01*
X301000D01*
Y269000D01*
X299730D01*
Y273886D01*
D02*
G37*
G36*
X295730Y263730D02*
X292114D01*
X292761Y262168D01*
X294168Y260761D01*
X295730Y260114D01*
Y263730D01*
D02*
G37*
G36*
X194067Y278620D02*
X191534D01*
X189087Y277964D01*
X186893Y276698D01*
X185102Y274907D01*
X183836Y272713D01*
X183180Y270266D01*
Y267733D01*
X183836Y265287D01*
X185102Y263093D01*
X186893Y261302D01*
X189087Y260036D01*
X191534Y259380D01*
X194067D01*
X196513Y260036D01*
X198707Y261302D01*
X200498Y263093D01*
X201764Y265287D01*
X202420Y267733D01*
Y270266D01*
X201764Y272713D01*
X200498Y274907D01*
X198707Y276698D01*
X196513Y277964D01*
X194067Y278620D01*
D02*
G37*
G36*
X16266D02*
X13734D01*
X11287Y277964D01*
X9093Y276698D01*
X7302Y274907D01*
X6036Y272713D01*
X5380Y270266D01*
Y267733D01*
X6036Y265287D01*
X7302Y263093D01*
X9093Y261302D01*
X11287Y260036D01*
X13734Y259380D01*
X16266D01*
X18713Y260036D01*
X20907Y261302D01*
X22698Y263093D01*
X23964Y265287D01*
X24620Y267733D01*
Y270266D01*
X23964Y272713D01*
X22698Y274907D01*
X20907Y276698D01*
X18713Y277964D01*
X16266Y278620D01*
D02*
G37*
G36*
X414886Y262730D02*
X411270D01*
Y259114D01*
X412832Y259761D01*
X414239Y261168D01*
X414886Y262730D01*
D02*
G37*
G36*
X408730D02*
X405114D01*
X405761Y261168D01*
X407168Y259761D01*
X408730Y259114D01*
Y262730D01*
D02*
G37*
G36*
X194067Y253220D02*
X191534D01*
X189087Y252564D01*
X186893Y251298D01*
X185102Y249507D01*
X183836Y247313D01*
X183180Y244867D01*
Y242334D01*
X183836Y239887D01*
X185102Y237693D01*
X186893Y235902D01*
X189087Y234636D01*
X191534Y233980D01*
X194067D01*
X196513Y234636D01*
X198707Y235902D01*
X200498Y237693D01*
X201764Y239887D01*
X202420Y242334D01*
Y244867D01*
X201764Y247313D01*
X200498Y249507D01*
X198707Y251298D01*
X196513Y252564D01*
X194067Y253220D01*
D02*
G37*
G36*
X16266D02*
X13734D01*
X11287Y252564D01*
X9093Y251298D01*
X7302Y249507D01*
X6036Y247313D01*
X5380Y244867D01*
Y242334D01*
X6036Y239887D01*
X7302Y237693D01*
X9093Y235902D01*
X11287Y234636D01*
X13734Y233980D01*
X16266D01*
X18713Y234636D01*
X20907Y235902D01*
X22698Y237693D01*
X23964Y239887D01*
X24620Y242334D01*
Y244867D01*
X23964Y247313D01*
X22698Y249507D01*
X20907Y251298D01*
X18713Y252564D01*
X16266Y253220D01*
D02*
G37*
G36*
Y227820D02*
X13734D01*
X11287Y227164D01*
X9093Y225898D01*
X7302Y224107D01*
X6036Y221913D01*
X5380Y219466D01*
Y216933D01*
X6036Y214487D01*
X7302Y212293D01*
X9093Y210502D01*
X11287Y209236D01*
X13734Y208580D01*
X16266D01*
X18713Y209236D01*
X20907Y210502D01*
X22698Y212293D01*
X23964Y214487D01*
X24620Y216933D01*
Y219466D01*
X23964Y221913D01*
X22698Y224107D01*
X20907Y225898D01*
X18713Y227164D01*
X16266Y227820D01*
D02*
G37*
G36*
X194067Y227820D02*
X191534D01*
X189087Y227164D01*
X186893Y225898D01*
X185102Y224107D01*
X183836Y221913D01*
X183180Y219466D01*
Y216933D01*
X183836Y214487D01*
X185102Y212293D01*
X186893Y210502D01*
X189087Y209236D01*
X191534Y208580D01*
X194067D01*
X196513Y209236D01*
X198707Y210502D01*
X200498Y212293D01*
X201764Y214487D01*
X202420Y216933D01*
Y219466D01*
X201764Y221913D01*
X200498Y224107D01*
X198707Y225898D01*
X196513Y227164D01*
X194067Y227820D01*
D02*
G37*
G36*
X16338Y202960D02*
X16270D01*
Y194070D01*
X25160D01*
Y194138D01*
X24468Y196722D01*
X23130Y199038D01*
X21238Y200930D01*
X18922Y202268D01*
X16338Y202960D01*
D02*
G37*
G36*
X13730D02*
X13662D01*
X11078Y202268D01*
X8762Y200930D01*
X6870Y199038D01*
X5532Y196722D01*
X4840Y194138D01*
Y194070D01*
X13730D01*
Y202960D01*
D02*
G37*
G36*
X194138Y202960D02*
X194070D01*
Y194070D01*
X202960D01*
Y194138D01*
X202268Y196722D01*
X200930Y199038D01*
X199038Y200930D01*
X196722Y202268D01*
X194138Y202960D01*
D02*
G37*
G36*
X191530D02*
X191462D01*
X188878Y202268D01*
X186562Y200930D01*
X184670Y199038D01*
X183332Y196722D01*
X182640Y194138D01*
Y194070D01*
X191530D01*
Y202960D01*
D02*
G37*
G36*
X202960Y191530D02*
X194070D01*
Y182640D01*
X194138D01*
X196722Y183332D01*
X199038Y184670D01*
X200930Y186562D01*
X202268Y188878D01*
X202960Y191462D01*
Y191530D01*
D02*
G37*
G36*
X191530D02*
X182640D01*
Y191462D01*
X183332Y188878D01*
X184670Y186562D01*
X186562Y184670D01*
X188878Y183332D01*
X191462Y182640D01*
X191530D01*
Y191530D01*
D02*
G37*
G36*
X25160Y191530D02*
X16270D01*
Y182640D01*
X16338D01*
X18922Y183332D01*
X21238Y184670D01*
X23130Y186562D01*
X24468Y188878D01*
X25160Y191462D01*
Y191530D01*
D02*
G37*
G36*
X13730D02*
X4840D01*
Y191462D01*
X5532Y188878D01*
X6870Y186562D01*
X8762Y184670D01*
X11078Y183332D01*
X13662Y182640D01*
X13730D01*
Y191530D01*
D02*
G37*
G36*
X194067Y177020D02*
X191534D01*
X189087Y176364D01*
X186893Y175098D01*
X185102Y173307D01*
X183836Y171113D01*
X183180Y168666D01*
Y166133D01*
X183836Y163687D01*
X185102Y161493D01*
X186893Y159702D01*
X189087Y158436D01*
X191534Y157780D01*
X194067D01*
X196513Y158436D01*
X198707Y159702D01*
X200498Y161493D01*
X201764Y163687D01*
X202420Y166133D01*
Y168666D01*
X201764Y171113D01*
X200498Y173307D01*
X198707Y175098D01*
X196513Y176364D01*
X194067Y177020D01*
D02*
G37*
G36*
X16266D02*
X13734D01*
X11287Y176364D01*
X9093Y175098D01*
X7302Y173307D01*
X6036Y171113D01*
X5380Y168666D01*
Y166133D01*
X6036Y163687D01*
X7302Y161493D01*
X9093Y159702D01*
X11287Y158436D01*
X13734Y157780D01*
X16266D01*
X18713Y158436D01*
X20907Y159702D01*
X22698Y161493D01*
X23964Y163687D01*
X24620Y166133D01*
Y168666D01*
X23964Y171113D01*
X22698Y173307D01*
X20907Y175098D01*
X18713Y176364D01*
X16266Y177020D01*
D02*
G37*
G36*
Y151620D02*
X13734D01*
X11287Y150964D01*
X9093Y149698D01*
X7302Y147907D01*
X6036Y145713D01*
X5380Y143266D01*
Y140733D01*
X6036Y138287D01*
X7302Y136093D01*
X9093Y134302D01*
X11287Y133036D01*
X13734Y132380D01*
X16266D01*
X18713Y133036D01*
X20907Y134302D01*
X22698Y136093D01*
X23964Y138287D01*
X24620Y140733D01*
Y143266D01*
X23964Y145713D01*
X22698Y147907D01*
X20907Y149698D01*
X18713Y150964D01*
X16266Y151620D01*
D02*
G37*
G36*
X194067Y151620D02*
X191534D01*
X189087Y150964D01*
X186893Y149698D01*
X185102Y147907D01*
X183836Y145713D01*
X183180Y143266D01*
Y140733D01*
X183836Y138287D01*
X185102Y136093D01*
X186893Y134302D01*
X189087Y133036D01*
X191534Y132380D01*
X194067D01*
X196513Y133036D01*
X198707Y134302D01*
X200498Y136093D01*
X201764Y138287D01*
X202420Y140733D01*
Y143266D01*
X201764Y145713D01*
X200498Y147907D01*
X198707Y149698D01*
X196513Y150964D01*
X194067Y151620D01*
D02*
G37*
G36*
Y126220D02*
X191534D01*
X189087Y125564D01*
X186893Y124298D01*
X185102Y122507D01*
X183836Y120313D01*
X183180Y117866D01*
Y115333D01*
X183836Y112887D01*
X185102Y110693D01*
X186893Y108902D01*
X189087Y107636D01*
X191534Y106980D01*
X194067D01*
X196513Y107636D01*
X198707Y108902D01*
X200498Y110693D01*
X201764Y112887D01*
X202420Y115333D01*
Y117866D01*
X201764Y120313D01*
X200498Y122507D01*
X198707Y124298D01*
X196513Y125564D01*
X194067Y126220D01*
D02*
G37*
G36*
X16266D02*
X13734D01*
X11287Y125564D01*
X9093Y124298D01*
X7302Y122507D01*
X6036Y120313D01*
X5380Y117866D01*
Y115333D01*
X6036Y112887D01*
X7302Y110693D01*
X9093Y108902D01*
X11287Y107636D01*
X13734Y106980D01*
X16266D01*
X18713Y107636D01*
X20907Y108902D01*
X22698Y110693D01*
X23964Y112887D01*
X24620Y115333D01*
Y117866D01*
X23964Y120313D01*
X22698Y122507D01*
X20907Y124298D01*
X18713Y125564D01*
X16266Y126220D01*
D02*
G37*
G36*
X194067Y100820D02*
X191534D01*
X189087Y100164D01*
X186893Y98898D01*
X185102Y97107D01*
X183836Y94913D01*
X183180Y92466D01*
Y89934D01*
X183836Y87487D01*
X185102Y85293D01*
X186893Y83502D01*
X189087Y82236D01*
X191534Y81580D01*
X194067D01*
X196513Y82236D01*
X198707Y83502D01*
X200498Y85293D01*
X201764Y87487D01*
X202420Y89934D01*
Y92466D01*
X201764Y94913D01*
X200498Y97107D01*
X198707Y98898D01*
X196513Y100164D01*
X194067Y100820D01*
D02*
G37*
G36*
X16266Y100820D02*
X13734D01*
X11287Y100164D01*
X9093Y98898D01*
X7302Y97107D01*
X6036Y94913D01*
X5380Y92466D01*
Y89934D01*
X6036Y87487D01*
X7302Y85293D01*
X9093Y83502D01*
X11287Y82236D01*
X13734Y81580D01*
X16266D01*
X18713Y82236D01*
X20907Y83502D01*
X22698Y85293D01*
X23964Y87487D01*
X24620Y89934D01*
Y92466D01*
X23964Y94913D01*
X22698Y97107D01*
X20907Y98898D01*
X18713Y100164D01*
X16266Y100820D01*
D02*
G37*
G36*
X194138Y75960D02*
X194070D01*
Y67070D01*
X202960D01*
Y67138D01*
X202268Y69722D01*
X200930Y72038D01*
X199038Y73930D01*
X196722Y75268D01*
X194138Y75960D01*
D02*
G37*
G36*
X16338D02*
X16270D01*
Y67070D01*
X25160D01*
Y67138D01*
X24468Y69722D01*
X23130Y72038D01*
X21238Y73930D01*
X18922Y75268D01*
X16338Y75960D01*
D02*
G37*
G36*
X191530D02*
X191462D01*
X188878Y75268D01*
X186562Y73930D01*
X184670Y72038D01*
X183332Y69722D01*
X182640Y67138D01*
Y67070D01*
X191530D01*
Y75960D01*
D02*
G37*
G36*
X13730D02*
X13662D01*
X11078Y75268D01*
X8762Y73930D01*
X6870Y72038D01*
X5532Y69722D01*
X4840Y67138D01*
Y67070D01*
X13730D01*
Y75960D01*
D02*
G37*
G36*
X202960Y64530D02*
X194070D01*
Y55640D01*
X194138D01*
X196722Y56332D01*
X199038Y57670D01*
X200930Y59562D01*
X202268Y61878D01*
X202960Y64462D01*
Y64530D01*
D02*
G37*
G36*
X191530D02*
X182640D01*
Y64462D01*
X183332Y61878D01*
X184670Y59562D01*
X186562Y57670D01*
X188878Y56332D01*
X191462Y55640D01*
X191530D01*
Y64530D01*
D02*
G37*
G36*
X25160D02*
X16270D01*
Y55640D01*
X16338D01*
X18922Y56332D01*
X21238Y57670D01*
X23130Y59562D01*
X24468Y61878D01*
X25160Y64462D01*
Y64530D01*
D02*
G37*
G36*
X13730D02*
X4840D01*
Y64462D01*
X5532Y61878D01*
X6870Y59562D01*
X8762Y57670D01*
X11078Y56332D01*
X13662Y55640D01*
X13730D01*
Y64530D01*
D02*
G37*
G36*
X194067Y50020D02*
X191534D01*
X189087Y49364D01*
X186893Y48098D01*
X185102Y46307D01*
X183836Y44113D01*
X183180Y41666D01*
Y39134D01*
X183836Y36687D01*
X185102Y34493D01*
X186893Y32702D01*
X189087Y31436D01*
X191534Y30780D01*
X194067D01*
X196513Y31436D01*
X198707Y32702D01*
X200498Y34493D01*
X201764Y36687D01*
X202420Y39134D01*
Y41666D01*
X201764Y44113D01*
X200498Y46307D01*
X198707Y48098D01*
X196513Y49364D01*
X194067Y50020D01*
D02*
G37*
G36*
X16266Y50020D02*
X13734D01*
X11287Y49364D01*
X9093Y48098D01*
X7302Y46307D01*
X6036Y44113D01*
X5380Y41666D01*
Y39134D01*
X6036Y36687D01*
X7302Y34493D01*
X9093Y32702D01*
X11287Y31436D01*
X13734Y30780D01*
X16266D01*
X18713Y31436D01*
X20907Y32702D01*
X22698Y34493D01*
X23964Y36687D01*
X24620Y39134D01*
Y41666D01*
X23964Y44113D01*
X22698Y46307D01*
X20907Y48098D01*
X18713Y49364D01*
X16266Y50020D01*
D02*
G37*
G36*
X411270Y20886D02*
Y17270D01*
X414886D01*
X414239Y18832D01*
X412832Y20239D01*
X411270Y20886D01*
D02*
G37*
G36*
X408730D02*
X407168Y20239D01*
X405761Y18832D01*
X405114Y17270D01*
X408730D01*
Y20886D01*
D02*
G37*
G36*
X291270Y19886D02*
Y16270D01*
X294886D01*
X294239Y17832D01*
X292832Y19239D01*
X291270Y19886D01*
D02*
G37*
G36*
X288730D02*
X287168Y19239D01*
X285761Y17832D01*
X285114Y16270D01*
X288730D01*
Y19886D01*
D02*
G37*
G36*
X414886Y14730D02*
X405114D01*
X405761Y13168D01*
X405929Y13000D01*
X405761Y12832D01*
X405114Y11270D01*
X414886D01*
X414239Y12832D01*
X414071Y13000D01*
X414239Y13168D01*
X414886Y14730D01*
D02*
G37*
G36*
X294886Y13730D02*
X285114D01*
X285761Y12168D01*
X285929Y12000D01*
X285761Y11832D01*
X285114Y10270D01*
X294886D01*
X294239Y11832D01*
X294071Y12000D01*
X294239Y12168D01*
X294886Y13730D01*
D02*
G37*
G36*
X202420Y24620D02*
X183180D01*
Y5380D01*
X202420D01*
Y24620D01*
D02*
G37*
G36*
X16266D02*
X13734D01*
X11287Y23964D01*
X9093Y22698D01*
X7302Y20907D01*
X6036Y18713D01*
X5380Y16266D01*
Y13734D01*
X6036Y11287D01*
X7302Y9093D01*
X9093Y7302D01*
X11287Y6036D01*
X13734Y5380D01*
X16266D01*
X18713Y6036D01*
X20907Y7302D01*
X22698Y9093D01*
X23964Y11287D01*
X24620Y13734D01*
Y16266D01*
X23964Y18713D01*
X22698Y20907D01*
X20907Y22698D01*
X18713Y23964D01*
X16266Y24620D01*
D02*
G37*
G36*
X414886Y8730D02*
X411270D01*
Y5114D01*
X412832Y5761D01*
X414239Y7168D01*
X414886Y8730D01*
D02*
G37*
G36*
X408730D02*
X405114D01*
X405761Y7168D01*
X407168Y5761D01*
X408730Y5114D01*
Y8730D01*
D02*
G37*
G36*
X294886Y7730D02*
X291270D01*
Y4114D01*
X292832Y4761D01*
X294239Y6168D01*
X294886Y7730D01*
D02*
G37*
G36*
X288730D02*
X285114D01*
X285761Y6168D01*
X287168Y4761D01*
X288730Y4114D01*
Y7730D01*
D02*
G37*
%LPD*%
D22*
X263400Y348000D02*
X279000D01*
X250000Y334600D02*
X263400Y348000D01*
X279000D02*
X286000Y341000D01*
Y263000D02*
Y341000D01*
Y263000D02*
X296000Y253000D01*
X363000D01*
X375000Y265000D01*
X275400Y360000D02*
X289014Y346386D01*
Y297987D02*
Y346386D01*
Y297987D02*
X300000Y287000D01*
X339000D01*
X361000Y265000D01*
X387000Y267000D02*
Y311000D01*
X363400Y334600D02*
X387000Y311000D01*
X263000Y322200D02*
X275400Y334600D01*
X263000Y135000D02*
Y322200D01*
X219000Y91000D02*
X263000Y135000D01*
X300800Y334600D02*
X363400D01*
D25*
X250000Y429200D02*
D03*
Y309200D02*
D03*
X275400D02*
D03*
X300800D02*
D03*
D26*
X250000Y454600D02*
D03*
Y480000D02*
D03*
Y334600D02*
D03*
Y360000D02*
D03*
X275400Y334600D02*
D03*
Y360000D02*
D03*
X457200Y488000D02*
D03*
X300800Y334600D02*
D03*
Y360000D02*
D03*
D27*
X15000Y15000D02*
D03*
Y40400D02*
D03*
Y65800D02*
D03*
Y91200D02*
D03*
Y116600D02*
D03*
Y142000D02*
D03*
Y167400D02*
D03*
Y192800D02*
D03*
Y218200D02*
D03*
Y243600D02*
D03*
X15000Y269000D02*
D03*
X15000Y294400D02*
D03*
Y319800D02*
D03*
Y345200D02*
D03*
Y370600D02*
D03*
Y396000D02*
D03*
Y421400D02*
D03*
Y446800D02*
D03*
Y472200D02*
D03*
X15000Y497600D02*
D03*
X192800D02*
D03*
Y472200D02*
D03*
Y446800D02*
D03*
Y421400D02*
D03*
Y396000D02*
D03*
Y370600D02*
D03*
Y345200D02*
D03*
Y319800D02*
D03*
Y294400D02*
D03*
Y269000D02*
D03*
Y243600D02*
D03*
Y218200D02*
D03*
Y192800D02*
D03*
Y167400D02*
D03*
Y142000D02*
D03*
Y116600D02*
D03*
Y91200D02*
D03*
Y65800D02*
D03*
Y40400D02*
D03*
D28*
Y15000D02*
D03*
D29*
X482600Y488000D02*
D03*
D30*
X375000Y265000D02*
D03*
X361000D02*
D03*
X387000Y267000D02*
D03*
X290000Y15000D02*
D03*
X410000Y16000D02*
D03*
Y264000D02*
D03*
X297000Y265000D02*
D03*
X410000Y270000D02*
D03*
X301000Y269000D02*
D03*
X290000Y9000D02*
D03*
X410000Y10000D02*
D03*
X219000Y91000D02*
D03*
M02*
