G04*
G04 #@! TF.GenerationSoftware,Altium Limited,Altium Designer,21.5.1 (32)*
G04*
G04 Layer_Color=8388736*
%FSLAX44Y44*%
%MOMM*%
G71*
G04*
G04 #@! TF.SameCoordinates,A6E62D76-81F8-4FAA-A2E2-D8AED4B4A1C6*
G04*
G04*
G04 #@! TF.FilePolarity,Negative*
G04*
G01*
G75*
%ADD15R,1.3500X1.1500*%
%ADD16R,1.3500X1.3500*%
%ADD17R,1.6000X1.6000*%
%ADD18C,1.6000*%
%ADD19C,1.6240*%
%ADD20R,1.6240X1.6240*%
%ADD21R,1.6000X1.6000*%
G36*
X361683Y398995D02*
X362003D01*
Y398835D01*
Y398675D01*
Y398515D01*
Y398355D01*
Y398195D01*
Y398035D01*
Y397875D01*
Y397715D01*
X361843D01*
Y397555D01*
Y397395D01*
Y397235D01*
Y397075D01*
Y396915D01*
X362803D01*
X362803Y396755D01*
X364082D01*
Y396595D01*
X365042D01*
Y396435D01*
X365842D01*
Y396275D01*
X366802D01*
Y396115D01*
X367762D01*
Y395955D01*
X369042D01*
Y395795D01*
X370002D01*
Y395955D01*
Y396115D01*
X370162D01*
Y396275D01*
Y396435D01*
Y396595D01*
Y396755D01*
Y396915D01*
Y397075D01*
Y397235D01*
Y397395D01*
Y397555D01*
X370642D01*
Y397395D01*
X371122D01*
Y397235D01*
Y397075D01*
Y396915D01*
X370962D01*
Y396755D01*
Y396595D01*
Y396435D01*
Y396275D01*
Y396115D01*
Y395955D01*
Y395795D01*
Y395635D01*
Y395475D01*
Y395315D01*
X370802D01*
Y395155D01*
X370802Y394995D01*
X370482D01*
X370482Y394835D01*
X369842D01*
Y394995D01*
X368562D01*
Y395155D01*
X367602D01*
Y395315D01*
X366962D01*
Y395475D01*
X366322D01*
Y395635D01*
X365522D01*
Y395795D01*
X364722Y395795D01*
Y395955D01*
X361683D01*
Y395795D01*
Y395635D01*
Y395475D01*
Y395315D01*
X361523D01*
Y395155D01*
X361203D01*
Y395315D01*
Y395475D01*
X361043D01*
Y395315D01*
X360723D01*
Y395475D01*
X360883D01*
Y395635D01*
Y395795D01*
Y395955D01*
Y396115D01*
Y396275D01*
Y396435D01*
Y396595D01*
X361043D01*
Y396755D01*
Y396915D01*
Y397075D01*
Y397235D01*
Y397395D01*
X361203D01*
Y397555D01*
Y397715D01*
Y397875D01*
Y398035D01*
Y398195D01*
X361363D01*
Y398355D01*
Y398515D01*
Y398675D01*
Y398835D01*
Y398995D01*
Y399155D01*
X361683D01*
Y398995D01*
D02*
G37*
G36*
X342964Y394995D02*
X343444D01*
Y394835D01*
X343764D01*
X343764Y394675D01*
X344084D01*
X344084Y394515D01*
X344404D01*
Y394355D01*
X344564D01*
Y394195D01*
X344724D01*
Y394035D01*
X344884D01*
Y393875D01*
Y393716D01*
X345044D01*
Y393555D01*
X345204D01*
Y393396D01*
X345364D01*
Y393236D01*
Y393075D01*
X345524D01*
Y392915D01*
Y392756D01*
Y392595D01*
X345684D01*
Y392436D01*
Y392276D01*
Y392116D01*
Y391956D01*
X345844D01*
Y391796D01*
X345684D01*
Y391636D01*
X345524D01*
Y391476D01*
X345364D01*
Y391316D01*
X345204Y391316D01*
Y391156D01*
X345044D01*
Y390996D01*
X344884D01*
Y390836D01*
X344724D01*
Y390676D01*
X344404D01*
Y390516D01*
X344244D01*
Y390356D01*
X343924D01*
Y390196D01*
X343764D01*
Y390036D01*
X343604D01*
Y390196D01*
Y390356D01*
Y390516D01*
Y390676D01*
Y390836D01*
Y390996D01*
Y391156D01*
Y391316D01*
Y391476D01*
X343444D01*
Y391636D01*
Y391796D01*
Y391956D01*
Y392116D01*
X343284D01*
X343284Y392276D01*
Y392436D01*
X343124Y392436D01*
Y392595D01*
Y392756D01*
X342964D01*
Y392915D01*
X342644D01*
Y392756D01*
Y392595D01*
X342484D01*
Y392436D01*
Y392276D01*
Y392116D01*
Y391956D01*
Y391796D01*
X342324D01*
Y391636D01*
Y391476D01*
Y391316D01*
Y391156D01*
Y390996D01*
Y390836D01*
X342164D01*
X342164Y390676D01*
X342004D01*
X342004Y390516D01*
X342164D01*
X342164Y390356D01*
X342164Y390196D01*
Y390036D01*
Y389876D01*
Y389716D01*
Y389556D01*
Y389396D01*
X341844D01*
Y389236D01*
X341204D01*
X341204Y389076D01*
X340564D01*
Y389236D01*
Y389396D01*
Y389556D01*
X340404D01*
Y389716D01*
X340404Y389876D01*
Y390036D01*
X340404Y390196D01*
X340244D01*
Y390356D01*
Y390516D01*
Y390676D01*
Y390836D01*
Y390996D01*
Y391156D01*
Y391316D01*
Y391476D01*
Y391636D01*
Y391796D01*
Y391956D01*
X340404D01*
Y392116D01*
Y392276D01*
Y392436D01*
Y392595D01*
X340564D01*
Y392756D01*
Y392915D01*
Y393075D01*
X340724Y393075D01*
Y393236D01*
Y393396D01*
X340884D01*
Y393555D01*
X340884Y393716D01*
X341044D01*
Y393875D01*
Y394035D01*
X341204D01*
Y394195D01*
Y394355D01*
X341364D01*
X341364Y394515D01*
X341524D01*
Y394675D01*
X341684D01*
Y394835D01*
X341844D01*
Y394995D01*
X342164D01*
X342164Y395155D01*
X342964D01*
Y394995D01*
D02*
G37*
G36*
X336405Y383316D02*
X336405Y383156D01*
X336565D01*
X336565Y382996D01*
Y382836D01*
X336725D01*
Y382676D01*
Y382516D01*
X336885D01*
Y382356D01*
Y382196D01*
Y382036D01*
Y381876D01*
Y381716D01*
Y381557D01*
X336565D01*
Y381716D01*
X336405D01*
Y381876D01*
X336245D01*
Y382036D01*
X336085D01*
Y382196D01*
X335765D01*
Y382356D01*
X335605D01*
Y382516D01*
X335285D01*
Y382676D01*
Y382836D01*
X335445D01*
Y382996D01*
X335605D01*
X335605Y383156D01*
X335605Y383316D01*
X335765Y383316D01*
Y383476D01*
X336405D01*
X336405Y383316D01*
D02*
G37*
G36*
X332885Y383316D02*
Y383156D01*
X333045D01*
Y382996D01*
X333205D01*
Y382836D01*
Y382676D01*
X333365D01*
Y382516D01*
X333525D01*
Y382356D01*
X333845D01*
Y382196D01*
X334165D01*
Y382036D01*
Y381876D01*
X334005D01*
Y381716D01*
Y381557D01*
Y381396D01*
X333845D01*
X333845Y381236D01*
Y381077D01*
Y380917D01*
X333685D01*
Y380756D01*
Y380597D01*
X333525D01*
Y380756D01*
X333365D01*
Y380917D01*
X333205D01*
Y381077D01*
X333045D01*
Y381236D01*
X332885D01*
Y381396D01*
X332725D01*
Y381557D01*
X332565D01*
Y381716D01*
X332245D01*
Y381876D01*
X331765D01*
Y381716D01*
X331445D01*
Y381557D01*
X331285D01*
Y381396D01*
Y381236D01*
X331125D01*
Y381077D01*
X330965D01*
Y380917D01*
X330805D01*
Y380756D01*
X330805Y380597D01*
X330645D01*
X330645Y380437D01*
Y380277D01*
X330485Y380277D01*
X330485Y380117D01*
X330485Y379957D01*
X330005D01*
X330005Y380117D01*
X329845D01*
Y380277D01*
X329525D01*
Y380437D01*
X329365D01*
X329365Y380597D01*
X329045D01*
Y380756D01*
X328725D01*
Y380917D01*
X328245D01*
Y381077D01*
Y381236D01*
X328405D01*
Y381396D01*
X328565D01*
Y381557D01*
X328885D01*
Y381716D01*
X329045D01*
Y381876D01*
X329205D01*
Y382036D01*
X329365D01*
Y382196D01*
X329685D01*
Y382356D01*
X329845D01*
Y382516D01*
X330005D01*
Y382676D01*
X330165D01*
Y382836D01*
X330485D01*
Y382676D01*
X330805D01*
Y382516D01*
X331605D01*
Y382676D01*
X331765D01*
Y382836D01*
X331925D01*
Y382996D01*
Y383156D01*
X332085D01*
Y383316D01*
X332245D01*
Y383476D01*
X332885D01*
Y383316D01*
D02*
G37*
G36*
X338645Y384436D02*
X338965D01*
Y384276D01*
X339285D01*
Y384116D01*
X339765Y384116D01*
Y383956D01*
X340084D01*
Y383796D01*
X340404D01*
X340404Y383636D01*
X340564D01*
Y383476D01*
X340884D01*
X340884Y383316D01*
X340884Y383156D01*
X340724D01*
Y382996D01*
X340564D01*
Y382836D01*
X340404D01*
Y382676D01*
X340084D01*
Y382516D01*
X339765D01*
Y382356D01*
X339445D01*
Y382196D01*
X338965D01*
Y382036D01*
X338645D01*
Y381876D01*
X338325D01*
Y382036D01*
Y382196D01*
X338165D01*
Y382356D01*
Y382516D01*
Y382676D01*
Y382836D01*
X338005D01*
Y382996D01*
X338005Y383156D01*
X337845D01*
Y383316D01*
Y383476D01*
X337685D01*
Y383636D01*
X337525D01*
Y383796D01*
Y383956D01*
Y384116D01*
X337685D01*
X337685Y384276D01*
X337845D01*
Y384436D01*
X338005D01*
Y384596D01*
X338645D01*
Y384436D01*
D02*
G37*
G36*
X411918Y383476D02*
X413838D01*
Y383316D01*
X413518D01*
Y383156D01*
X413358D01*
X413358Y382996D01*
X413518D01*
Y382836D01*
X413358D01*
Y382676D01*
X413198D01*
Y382516D01*
X413038D01*
Y382356D01*
X412718D01*
Y382196D01*
X412558D01*
Y382036D01*
X412238D01*
Y381876D01*
X411918Y381876D01*
Y381716D01*
X411758D01*
Y381557D01*
X412238D01*
Y381716D01*
X412878D01*
Y381557D01*
X412718D01*
Y381396D01*
X412398Y381396D01*
Y381236D01*
X412078D01*
Y381077D01*
X411438D01*
Y380917D01*
X410798D01*
Y380756D01*
X411119D01*
Y380597D01*
X411278D01*
X411278Y380756D01*
X412078D01*
Y380597D01*
X411758Y380597D01*
Y380437D01*
X411438D01*
Y380277D01*
X411278D01*
Y380117D01*
X410639D01*
Y379957D01*
X409999Y379957D01*
Y379797D01*
X410959D01*
Y379637D01*
X410798D01*
Y379477D01*
X410318Y379477D01*
Y379317D01*
X409839D01*
Y379157D01*
X409359D01*
Y378997D01*
X409519D01*
Y378837D01*
X409199D01*
Y378677D01*
X409039D01*
Y378517D01*
X408559D01*
Y378357D01*
X408399D01*
Y378197D01*
X407919D01*
Y378037D01*
X407759D01*
Y377877D01*
X408879D01*
Y377717D01*
X408559D01*
Y377557D01*
X408079D01*
Y377397D01*
X407599D01*
Y377237D01*
X407119D01*
Y377077D01*
X406799D01*
Y376917D01*
X406639D01*
Y376757D01*
X406479D01*
Y376597D01*
X406319D01*
Y376437D01*
X405999D01*
Y376277D01*
X405679D01*
Y376117D01*
X405199D01*
Y375957D01*
X404879D01*
Y375797D01*
X404399D01*
Y375637D01*
X403759D01*
Y375477D01*
X403279D01*
Y375317D01*
X402959D01*
Y375477D01*
X403119D01*
Y375637D01*
X403279D01*
Y375797D01*
X403599D01*
Y375957D01*
Y376117D01*
X403919D01*
Y376277D01*
X404079D01*
Y376437D01*
X404239D01*
X404239Y376597D01*
X404399Y376597D01*
Y376757D01*
X404559D01*
Y376917D01*
X404719D01*
Y377077D01*
X404239D01*
Y376917D01*
X403119D01*
Y377077D01*
X403439D01*
Y377237D01*
X404879D01*
Y377397D01*
X405359D01*
Y377557D01*
X405679D01*
Y377717D01*
X404719D01*
Y377877D01*
X404239D01*
Y378037D01*
X405839D01*
Y378197D01*
X406159D01*
Y378357D01*
X406639D01*
Y378517D01*
X406959Y378517D01*
Y378677D01*
X407279D01*
Y378837D01*
X407599Y378837D01*
Y378997D01*
X408239D01*
Y379157D01*
X408879D01*
Y379317D01*
X406319D01*
Y379157D01*
X405839D01*
Y379317D01*
Y379477D01*
X406799D01*
Y379637D01*
X407279Y379637D01*
Y379797D01*
X407599D01*
Y379957D01*
X407919D01*
Y380117D01*
X408239Y380117D01*
Y380277D01*
X408559D01*
Y380437D01*
X408719D01*
Y380597D01*
X408079D01*
Y380437D01*
X407439D01*
Y380597D01*
X407759D01*
Y380756D01*
X408399D01*
Y380917D01*
X408719D01*
Y381077D01*
X408879D01*
Y381236D01*
X409039D01*
X409039Y381396D01*
X409359D01*
Y381557D01*
X409519D01*
Y381716D01*
X409679D01*
Y381876D01*
X409839D01*
Y382036D01*
X409999D01*
Y382196D01*
X409519D01*
Y382036D01*
X408879D01*
Y382196D01*
X409359D01*
Y382356D01*
X409839D01*
Y382516D01*
X410159D01*
Y382676D01*
X410318D01*
Y382836D01*
X410639D01*
Y382996D01*
X410798D01*
X410798Y383156D01*
X410959D01*
Y383316D01*
X411119D01*
Y383476D01*
X409839Y383476D01*
Y383636D01*
X411918D01*
Y383476D01*
D02*
G37*
G36*
X428077Y382196D02*
X429517D01*
Y382036D01*
X429997D01*
Y381876D01*
X429677D01*
Y381716D01*
X429357D01*
Y381557D01*
X429197D01*
Y381396D01*
X428877Y381396D01*
X428877Y381236D01*
X428397D01*
Y381077D01*
X428077D01*
Y380917D01*
X428877D01*
X428877Y381077D01*
X429677D01*
Y380917D01*
X429357D01*
Y380756D01*
X429037D01*
Y380597D01*
X428877D01*
Y380437D01*
X428397D01*
Y380277D01*
X427917D01*
Y380117D01*
X427597D01*
Y379957D01*
X428557D01*
Y380117D01*
X429197Y380117D01*
Y379957D01*
X428877D01*
Y379797D01*
X428557D01*
Y379637D01*
X428237D01*
Y379477D01*
X428077D01*
Y379317D01*
X427757D01*
Y379157D01*
X427277D01*
Y378997D01*
X426957D01*
Y378837D01*
X426157Y378837D01*
Y378677D01*
X425837Y378677D01*
Y378517D01*
X427917D01*
Y378357D01*
X427437D01*
Y378197D01*
X427117D01*
Y378037D01*
X426637D01*
Y377877D01*
X425517D01*
Y377717D01*
X425357D01*
Y377557D01*
X425997D01*
Y377397D01*
X425517D01*
Y377237D01*
X425197D01*
Y377077D01*
X424397D01*
Y376917D01*
X423917D01*
Y376757D01*
X424877D01*
Y376597D01*
X424077D01*
Y376437D01*
X423117D01*
Y376277D01*
X422158D01*
Y376117D01*
X421998D01*
Y376277D01*
X421838D01*
Y376437D01*
X421998D01*
X421997Y376597D01*
X422158D01*
Y376757D01*
X422477D01*
Y376917D01*
X422798D01*
Y377077D01*
X423117D01*
Y377237D01*
X423277D01*
Y377397D01*
X423438D01*
Y377557D01*
X423757D01*
X423757Y377717D01*
X423917D01*
Y377877D01*
X424397D01*
Y378037D01*
X423917D01*
Y377877D01*
X423277Y377877D01*
Y378037D01*
X423757D01*
Y378197D01*
X424237D01*
Y378357D01*
X424557D01*
Y378517D01*
X423277D01*
X423278Y378677D01*
X423917D01*
X423917Y378837D01*
X424557D01*
Y378997D01*
X424717D01*
Y379157D01*
X425037D01*
Y379317D01*
X425357D01*
Y379477D01*
X423917D01*
Y379317D01*
X423438D01*
Y379477D01*
X423757D01*
Y379637D01*
X424237D01*
Y379797D01*
X424397D01*
X424397Y379957D01*
X424717D01*
X424717Y380117D01*
X424877D01*
Y380277D01*
X425037D01*
Y380437D01*
X425357D01*
X425357Y380597D01*
X425517D01*
Y380756D01*
X425677D01*
Y380917D01*
X425837D01*
Y381077D01*
X426157D01*
Y381236D01*
X426317D01*
Y381396D01*
X426637D01*
Y381557D01*
X426797D01*
Y381716D01*
X426957D01*
Y381876D01*
X427117D01*
Y382036D01*
X426477D01*
Y381876D01*
X425837D01*
Y381716D01*
X425357D01*
Y381876D01*
X425677Y381876D01*
Y382036D01*
X425997D01*
Y382196D01*
X426317D01*
Y382356D01*
X428077D01*
Y382196D01*
D02*
G37*
G36*
X418318Y383156D02*
X420398D01*
Y382996D01*
X421998D01*
Y382836D01*
Y382676D01*
X421358D01*
Y382516D01*
X420878D01*
Y382356D01*
X421358D01*
Y382196D01*
X421198D01*
Y382036D01*
X420718D01*
Y381876D01*
X420238D01*
Y381716D01*
Y381557D01*
X420558D01*
Y381716D01*
X421358D01*
Y381557D01*
X421038D01*
Y381396D01*
X420878Y381396D01*
Y381236D01*
X420718D01*
Y381077D01*
X420238D01*
Y380917D01*
X419758D01*
Y380756D01*
X418958D01*
X418958Y380597D01*
X419918D01*
Y380437D01*
X419598D01*
Y380277D01*
X419438Y380277D01*
Y380117D01*
X419118D01*
Y379957D01*
X418638D01*
Y379797D01*
X418318D01*
Y379637D01*
Y379477D01*
X418638D01*
Y379637D01*
X419118D01*
Y379797D01*
X419438D01*
Y379957D01*
X420078D01*
Y379797D01*
X419758D01*
Y379637D01*
X419598Y379637D01*
Y379477D01*
X419118D01*
Y379317D01*
X418478D01*
Y379157D01*
X418318D01*
Y378997D01*
X418638D01*
Y378837D01*
X417838D01*
X417838Y378677D01*
X417038Y378677D01*
Y378517D01*
X417038Y378357D01*
X417678D01*
Y378517D01*
X418638D01*
Y378357D01*
X418158D01*
X418158Y378197D01*
X417518D01*
Y378037D01*
X417038D01*
Y377877D01*
X417518D01*
Y377717D01*
X417038Y377717D01*
X417038Y377557D01*
X416558D01*
Y377397D01*
X415918D01*
Y377237D01*
X415278D01*
Y377077D01*
X414478D01*
Y376917D01*
X414638D01*
Y376757D01*
X414958D01*
Y376917D01*
X415918D01*
Y376757D01*
Y376597D01*
X415118D01*
Y376437D01*
X413518D01*
Y376277D01*
X413358D01*
Y376437D01*
X412878D01*
Y376277D01*
X412398D01*
Y376117D01*
X411758D01*
Y375957D01*
X411438D01*
Y376117D01*
Y376277D01*
X412078D01*
Y376437D01*
X412558D01*
Y376597D01*
X413038D01*
Y376757D01*
X413518D01*
Y376917D01*
X413678D01*
Y377077D01*
X413998D01*
Y377237D01*
X414478D01*
Y377397D01*
X414798D01*
Y377557D01*
X415278D01*
X415278Y377717D01*
X412558Y377717D01*
Y377877D01*
X413998D01*
Y378037D01*
X414478D01*
Y378197D01*
X414958D01*
Y378357D01*
X415598D01*
X415598Y378517D01*
X415438D01*
Y378677D01*
X414158D01*
Y378837D01*
X413358D01*
Y378997D01*
X414958D01*
Y379157D01*
X414798D01*
Y379317D01*
X414318D01*
Y379477D01*
X413198D01*
Y379637D01*
X414318D01*
Y379797D01*
X414798D01*
Y379957D01*
X415118Y379957D01*
Y380117D01*
X415438D01*
Y380277D01*
X415758Y380277D01*
Y380437D01*
X416238D01*
Y380597D01*
X416398D01*
Y380756D01*
X416718D01*
X416718Y380917D01*
X417038D01*
X417038Y381077D01*
X417358D01*
Y381236D01*
X417518D01*
X417518Y381396D01*
X417838D01*
Y381557D01*
X417358D01*
X417358Y381396D01*
X416718D01*
X416718Y381236D01*
X416398D01*
Y381077D01*
X415918D01*
Y381236D01*
X416238D01*
Y381396D01*
X416558D01*
Y381557D01*
X416878D01*
Y381716D01*
X417198D01*
Y381876D01*
X417358D01*
Y382036D01*
X417678D01*
Y382196D01*
X417838D01*
Y382356D01*
X417998D01*
X417998Y382516D01*
X418318D01*
Y382676D01*
X418478D01*
Y382836D01*
X417838D01*
Y382676D01*
X417358D01*
Y382516D01*
X416878D01*
Y382676D01*
X417198D01*
Y382836D01*
X417518D01*
Y382996D01*
X417838D01*
Y383156D01*
X418158D01*
X418158Y383316D01*
X418318D01*
Y383156D01*
D02*
G37*
G36*
X322966Y380756D02*
X323606D01*
Y380597D01*
X324406Y380597D01*
Y380437D01*
X326646D01*
Y380597D01*
X327285D01*
Y380437D01*
X327126D01*
Y380277D01*
Y380117D01*
X326965D01*
Y379957D01*
Y379797D01*
Y379637D01*
X326806Y379637D01*
Y379477D01*
Y379317D01*
Y379157D01*
X326646D01*
Y378997D01*
Y378837D01*
Y378677D01*
Y378517D01*
Y378357D01*
X326486D01*
Y378517D01*
X325846Y378517D01*
Y378677D01*
X325366Y378677D01*
X325366Y378837D01*
X325046D01*
Y378997D01*
X324566D01*
Y379157D01*
X324246D01*
Y379317D01*
X324086Y379317D01*
Y379477D01*
X323766D01*
Y379637D01*
X323606Y379637D01*
Y379797D01*
X323446D01*
Y379957D01*
X323286D01*
Y380117D01*
X323126D01*
Y380277D01*
X322966Y380277D01*
Y380437D01*
X322806D01*
Y380597D01*
X322646D01*
Y380756D01*
Y380917D01*
X322966D01*
Y380756D01*
D02*
G37*
G36*
X415918Y367798D02*
X416078D01*
Y367638D01*
X416238D01*
Y367478D01*
Y367318D01*
X416398D01*
Y367158D01*
X416558D01*
Y366998D01*
X416718Y366998D01*
Y366838D01*
X416878D01*
Y366678D01*
X417038D01*
Y366518D01*
X417198D01*
Y366358D01*
X417358D01*
X417358Y366198D01*
X417678D01*
Y366038D01*
X417838D01*
Y365878D01*
X418158D01*
Y365718D01*
X418478D01*
Y365558D01*
X418798D01*
Y365398D01*
X419118D01*
Y365238D01*
X419438D01*
Y365078D01*
X419758D01*
Y364918D01*
X420398D01*
Y365078D01*
X420238D01*
Y365238D01*
Y365398D01*
Y365558D01*
Y365718D01*
Y365878D01*
X420078D01*
Y366038D01*
Y366198D01*
X419918D01*
Y366358D01*
Y366518D01*
Y366678D01*
X419758D01*
Y366838D01*
Y366998D01*
X419918D01*
Y366838D01*
X420078D01*
Y366678D01*
Y366518D01*
X420238D01*
Y366358D01*
Y366198D01*
X420398D01*
Y366038D01*
Y365878D01*
X420558D01*
Y365718D01*
X420718D01*
Y365558D01*
X420878D01*
Y365398D01*
Y365238D01*
X421198D01*
Y365078D01*
X421358D01*
Y364918D01*
X421518D01*
Y364758D01*
X421678D01*
X421678Y364598D01*
X421838D01*
Y364438D01*
X421998D01*
Y364278D01*
X422477D01*
Y364438D01*
Y364598D01*
Y364758D01*
Y364918D01*
Y365078D01*
Y365238D01*
Y365398D01*
Y365558D01*
X422477Y365718D01*
X422477Y365878D01*
X422637D01*
X422637Y365718D01*
X422637Y365558D01*
Y365398D01*
X422798D01*
Y365238D01*
Y365078D01*
Y364918D01*
Y364758D01*
X422957D01*
X422957Y364598D01*
X422957Y364438D01*
X423117D01*
Y364278D01*
X423277D01*
Y364118D01*
Y363958D01*
X423438D01*
Y363798D01*
X423597D01*
X423597Y363638D01*
Y363478D01*
X423757D01*
Y363318D01*
X423917D01*
Y363158D01*
X424077D01*
Y362998D01*
X424237D01*
Y362838D01*
Y362678D01*
X424557D01*
Y362838D01*
Y362998D01*
Y363158D01*
X424717D01*
X424717Y363318D01*
Y363478D01*
Y363638D01*
Y363798D01*
Y363958D01*
Y364118D01*
Y364278D01*
X424877D01*
Y364438D01*
Y364598D01*
X425037D01*
Y364438D01*
Y364278D01*
Y364118D01*
Y363958D01*
Y363798D01*
Y363638D01*
Y363478D01*
Y363318D01*
X425197D01*
Y363158D01*
Y362998D01*
Y362838D01*
X425357D01*
Y362678D01*
Y362518D01*
Y362358D01*
X425517D01*
Y362198D01*
X425677D01*
Y362038D01*
Y361878D01*
X425837D01*
Y361718D01*
Y361558D01*
X425997D01*
Y361718D01*
X426157D01*
Y361878D01*
Y362038D01*
X426317D01*
Y362198D01*
Y362358D01*
Y362518D01*
Y362678D01*
Y362838D01*
Y362998D01*
Y363158D01*
Y363318D01*
Y363478D01*
X426477D01*
Y363638D01*
X426317D01*
Y363798D01*
X426637D01*
Y363638D01*
Y363478D01*
Y363318D01*
Y363158D01*
Y362998D01*
Y362838D01*
Y362678D01*
Y362518D01*
Y362358D01*
Y362198D01*
Y362038D01*
Y361878D01*
Y361718D01*
Y361558D01*
Y361398D01*
X426797D01*
Y361238D01*
Y361078D01*
Y360918D01*
X426957D01*
Y360758D01*
Y360598D01*
Y360438D01*
X427117D01*
Y360278D01*
Y360118D01*
Y359958D01*
X427277D01*
Y360118D01*
X427437D01*
Y360278D01*
Y360438D01*
Y360598D01*
Y360758D01*
Y360918D01*
Y361078D01*
Y361238D01*
X427597D01*
Y361398D01*
Y361558D01*
X427757D01*
Y361398D01*
Y361238D01*
Y361078D01*
X427757Y360918D01*
Y360758D01*
X427757Y360598D01*
Y360438D01*
Y360278D01*
Y360118D01*
X427597D01*
Y359958D01*
Y359798D01*
Y359638D01*
X427437D01*
Y359478D01*
Y359318D01*
Y359158D01*
Y358998D01*
Y358838D01*
Y358678D01*
Y358518D01*
Y358358D01*
X427277D01*
Y358518D01*
Y358678D01*
X427117D01*
Y358838D01*
X426957D01*
Y358998D01*
Y359158D01*
X426797D01*
Y359318D01*
Y359478D01*
X426637D01*
Y359638D01*
Y359798D01*
Y359958D01*
Y360118D01*
Y360278D01*
X426477D01*
Y360438D01*
Y360598D01*
Y360758D01*
X426317D01*
Y360918D01*
Y361078D01*
Y361238D01*
Y361398D01*
X426157D01*
Y361238D01*
Y361078D01*
Y360918D01*
Y360758D01*
Y360598D01*
Y360438D01*
Y360278D01*
Y360118D01*
Y359958D01*
Y359798D01*
X425997D01*
Y359958D01*
X425837D01*
Y360118D01*
X425677D01*
Y360278D01*
X425517D01*
Y360438D01*
X425357D01*
Y360598D01*
X425197D01*
Y360758D01*
X425037D01*
Y360918D01*
X424877D01*
Y361078D01*
X424717D01*
Y361238D01*
X424717Y361398D01*
X424557D01*
Y361558D01*
Y361718D01*
X424397D01*
X424397Y361878D01*
X424397Y362038D01*
X424077D01*
X424077Y362198D01*
X424077Y362358D01*
X423917D01*
Y362518D01*
Y362678D01*
X423757D01*
Y362838D01*
X423757Y362998D01*
X423597D01*
Y362838D01*
Y362678D01*
X423757D01*
Y362518D01*
Y362358D01*
Y362198D01*
X423917D01*
X423917Y362038D01*
X423917Y361878D01*
X423917Y361718D01*
Y361558D01*
X423757D01*
X423757Y361718D01*
X423438D01*
Y361878D01*
X423117D01*
Y362038D01*
X422637D01*
X422637Y362198D01*
X422318D01*
Y362358D01*
X421838D01*
Y362518D01*
X421358D01*
Y362678D01*
X420878D01*
Y362838D01*
X420398D01*
Y362998D01*
X419918D01*
Y363158D01*
X419438D01*
Y363318D01*
X418958D01*
Y363478D01*
X418478D01*
Y363638D01*
X417998D01*
X417998Y363798D01*
X417678D01*
Y363958D01*
X417198D01*
Y364118D01*
X416878D01*
Y364278D01*
X416558D01*
Y364438D01*
X416238D01*
Y364598D01*
X415918D01*
Y364758D01*
X415758D01*
X415758Y364918D01*
X415598D01*
Y365078D01*
X415278D01*
Y365238D01*
X415118D01*
Y365398D01*
X414958D01*
Y365558D01*
X414798D01*
Y365398D01*
Y365238D01*
X414958D01*
Y365078D01*
Y364918D01*
X415118D01*
Y364758D01*
Y364598D01*
Y364438D01*
X415278D01*
Y364278D01*
X415438D01*
Y364118D01*
Y363958D01*
Y363798D01*
X415278D01*
Y363958D01*
X415118D01*
Y364118D01*
X414798D01*
Y364278D01*
X414638D01*
Y364438D01*
X414478D01*
Y364598D01*
X414318D01*
Y364758D01*
X414158D01*
Y364918D01*
X413838D01*
Y365078D01*
X413678D01*
Y365238D01*
X413518D01*
Y365398D01*
X413358D01*
X413358Y365238D01*
Y365078D01*
X413518D01*
Y364918D01*
X413678D01*
Y364758D01*
Y364598D01*
Y364438D01*
Y364278D01*
X413838D01*
Y364118D01*
X413998D01*
Y363958D01*
X413678D01*
Y364118D01*
X413518D01*
Y364278D01*
X412878D01*
Y364438D01*
X412398D01*
Y364598D01*
X412078D01*
Y364758D01*
X411918D01*
Y364918D01*
X411758D01*
Y365078D01*
X411438D01*
Y365238D01*
X411278D01*
Y365398D01*
Y365558D01*
X410959D01*
Y365398D01*
Y365238D01*
X411119D01*
Y365078D01*
X411119Y364918D01*
X411278Y364918D01*
Y364758D01*
Y364598D01*
X411438D01*
Y364438D01*
Y364278D01*
X411598D01*
Y364118D01*
X411598Y363958D01*
X411758D01*
X411758Y363798D01*
Y363638D01*
X411598D01*
X411598Y363798D01*
X411438D01*
Y363958D01*
X411119D01*
Y364118D01*
X410798D01*
Y364278D01*
X410639D01*
Y364438D01*
X410159D01*
Y364598D01*
X409999D01*
Y364758D01*
X409679D01*
Y364918D01*
X409519Y364918D01*
X409519Y365078D01*
X409199D01*
Y364918D01*
X409359D01*
Y364758D01*
X409519D01*
Y364598D01*
X409679Y364598D01*
Y364438D01*
X409839D01*
Y364278D01*
X409999D01*
Y364118D01*
X409999Y363958D01*
X410159Y363958D01*
Y363798D01*
X410318D01*
Y363638D01*
X409679D01*
Y363798D01*
X408879D01*
Y363958D01*
X408239D01*
Y364118D01*
X407919D01*
Y364278D01*
X407279D01*
Y364438D01*
X406799D01*
Y364598D01*
X406159D01*
Y364758D01*
X405679D01*
Y364918D01*
X405519D01*
Y365078D01*
X405199D01*
Y365238D01*
X405039D01*
Y365398D01*
X404879D01*
Y365558D01*
X404559D01*
Y365718D01*
X404399D01*
Y365878D01*
X404559D01*
Y365718D01*
X404879D01*
Y365558D01*
X405199D01*
Y365398D01*
X405519D01*
Y365238D01*
X405679D01*
Y365078D01*
X406159D01*
Y364918D01*
X406799D01*
Y364758D01*
X408079D01*
Y364918D01*
Y365078D01*
X407919Y365078D01*
Y365238D01*
Y365398D01*
X407759D01*
Y365558D01*
X407919D01*
Y365398D01*
X408079D01*
Y365238D01*
X408239D01*
Y365398D01*
Y365558D01*
Y365718D01*
X408079D01*
Y365878D01*
Y366038D01*
Y366198D01*
Y366358D01*
X407919D01*
Y366518D01*
X407759D01*
Y366678D01*
Y366838D01*
X407599D01*
Y366998D01*
X407759D01*
Y366838D01*
X408079D01*
Y366678D01*
Y366518D01*
X408239D01*
Y366358D01*
X408559Y366358D01*
Y366198D01*
X408719D01*
Y366038D01*
X409039Y366038D01*
Y365878D01*
X409519D01*
Y365718D01*
X409839D01*
Y365558D01*
X410159D01*
Y365398D01*
X410479D01*
Y365558D01*
Y365718D01*
Y365878D01*
X410318D01*
Y366038D01*
Y366198D01*
X410159D01*
Y366358D01*
X409999D01*
Y366518D01*
Y366678D01*
X409839D01*
Y366838D01*
Y366998D01*
X409679D01*
Y367158D01*
X409839D01*
Y366998D01*
X409999Y366998D01*
Y366838D01*
Y366678D01*
X410159D01*
Y366518D01*
X410318D01*
Y366358D01*
X410479Y366358D01*
X410479Y366198D01*
X410639D01*
Y366038D01*
X410959D01*
Y365878D01*
X411438D01*
Y366038D01*
X411278D01*
Y366198D01*
Y366358D01*
Y366518D01*
X411119D01*
Y366678D01*
Y366838D01*
X410959D01*
Y366998D01*
Y367158D01*
X410798Y367158D01*
Y367318D01*
Y367478D01*
X410959D01*
Y367318D01*
X411119D01*
Y367158D01*
X411278Y367158D01*
X411278Y366998D01*
X411438D01*
Y366838D01*
X411598Y366838D01*
Y366678D01*
X411758D01*
Y366518D01*
X412078D01*
Y366358D01*
X412398D01*
Y366198D01*
X412718Y366198D01*
Y366358D01*
Y366518D01*
X412558D01*
Y366678D01*
Y366838D01*
Y366998D01*
X412398D01*
Y367158D01*
Y367318D01*
Y367478D01*
X412238D01*
Y367638D01*
X412078D01*
Y367798D01*
Y367958D01*
X412398D01*
Y367798D01*
Y367638D01*
X412558Y367638D01*
Y367478D01*
Y367318D01*
X412718D01*
Y367158D01*
X412878Y367158D01*
Y366998D01*
X413198D01*
Y366838D01*
X413358D01*
Y366678D01*
X413838D01*
Y366518D01*
X413998D01*
Y366678D01*
X413838D01*
Y366838D01*
Y366998D01*
X413678D01*
Y367158D01*
Y367318D01*
X413518D01*
Y367478D01*
X413678D01*
Y367318D01*
X413838D01*
Y367158D01*
X413998Y367158D01*
Y366998D01*
X414158D01*
Y366838D01*
Y366678D01*
X414318D01*
Y366518D01*
X414478D01*
Y366358D01*
X414798Y366358D01*
Y366198D01*
X415278D01*
Y366038D01*
X415758Y366038D01*
Y365878D01*
X416238D01*
Y365718D01*
X416718D01*
Y365558D01*
X416878D01*
Y365718D01*
Y365878D01*
X416718D01*
X416718Y366038D01*
Y366198D01*
X416718Y366358D01*
X416558Y366358D01*
Y366518D01*
Y366678D01*
X416398D01*
Y366838D01*
X416238D01*
Y366998D01*
Y367158D01*
X416078D01*
Y367318D01*
Y367478D01*
X415918D01*
Y367638D01*
X415758Y367638D01*
Y367798D01*
X415758Y367958D01*
X415918D01*
Y367798D01*
D02*
G37*
G36*
X452715Y364118D02*
X452875D01*
Y363958D01*
X452715Y363958D01*
Y364118D01*
X452555D01*
Y364278D01*
X452715D01*
Y364118D01*
D02*
G37*
G36*
X399759Y365078D02*
X400079Y365078D01*
Y364918D01*
X400399D01*
Y364758D01*
X400719D01*
Y364598D01*
X401199Y364598D01*
Y364438D01*
X404559D01*
Y364598D01*
X405839D01*
Y364438D01*
X406319D01*
Y364278D01*
X406799D01*
Y364118D01*
X407119D01*
Y363958D01*
X407439D01*
Y363798D01*
X407599D01*
Y363638D01*
X407919D01*
Y363478D01*
Y363318D01*
X406799D01*
Y363158D01*
X405839D01*
Y362998D01*
X404879D01*
Y362838D01*
X402479D01*
Y362998D01*
X401519D01*
Y363158D01*
X401039D01*
Y362998D01*
X401359D01*
Y362838D01*
X401839D01*
Y362678D01*
X402479D01*
Y362518D01*
X403119D01*
Y362358D01*
X403919D01*
Y362198D01*
X404559D01*
Y362038D01*
X405039D01*
Y361878D01*
X404239D01*
X404239Y361718D01*
X401839D01*
Y361878D01*
X400719D01*
Y362038D01*
X400239D01*
Y362198D01*
X399919D01*
Y362358D01*
X399599D01*
Y362518D01*
X399440D01*
Y362678D01*
X399280D01*
Y362838D01*
X399119D01*
Y362998D01*
Y363158D01*
Y363318D01*
X398960D01*
Y363478D01*
X398800D01*
Y363638D01*
X398479D01*
Y363798D01*
X398320D01*
Y363958D01*
X398000D01*
Y364118D01*
X397840D01*
Y364278D01*
X397680D01*
Y364438D01*
X397520D01*
Y364598D01*
X397680D01*
Y364438D01*
X398000D01*
Y364278D01*
X398320D01*
Y364118D01*
X398479D01*
Y363958D01*
X398639D01*
Y363798D01*
X398960D01*
Y363638D01*
X399599D01*
Y363478D01*
X400239D01*
Y363318D01*
X401839D01*
Y363478D01*
X401679D01*
Y363638D01*
X401519D01*
Y363798D01*
X401359D01*
Y363958D01*
X401199D01*
Y364118D01*
X400879D01*
Y364278D01*
X400719D01*
Y364438D01*
X400559D01*
Y364598D01*
X400239D01*
Y364758D01*
X399919D01*
Y364918D01*
X399759Y364918D01*
Y365078D01*
X399599Y365078D01*
Y365238D01*
X399759D01*
X399759Y365078D01*
D02*
G37*
G36*
X450155Y365558D02*
Y365398D01*
X450315D01*
X450315Y365238D01*
Y365078D01*
X450315Y364918D01*
X450475D01*
Y364758D01*
Y364598D01*
X450635Y364598D01*
Y364438D01*
Y364278D01*
X450795D01*
Y364118D01*
X450955D01*
Y363958D01*
X451115Y363958D01*
Y363798D01*
X451275D01*
Y363638D01*
Y363478D01*
X451435D01*
Y363318D01*
X451755D01*
X451755Y363158D01*
X451915D01*
Y362998D01*
X452075D01*
Y362838D01*
X452235D01*
Y362678D01*
X452555D01*
Y362518D01*
X452715D01*
Y362358D01*
X452875D01*
Y362198D01*
X453195D01*
Y362038D01*
X453515D01*
Y362198D01*
X453355D01*
Y362358D01*
Y362518D01*
X453195D01*
Y362678D01*
Y362838D01*
X453035D01*
X453035Y362998D01*
Y363158D01*
X452875D01*
Y363318D01*
Y363478D01*
X452715D01*
Y363638D01*
X452875D01*
Y363798D01*
X453035D01*
Y363638D01*
Y363478D01*
X453195D01*
Y363318D01*
Y363158D01*
Y362998D01*
X453355D01*
Y362838D01*
Y362678D01*
X453515D01*
Y362518D01*
X453675D01*
Y362358D01*
Y362198D01*
X453835D01*
Y362038D01*
X453995D01*
Y361878D01*
X454155Y361878D01*
Y361718D01*
X454315D01*
Y361558D01*
X454475D01*
Y361398D01*
X454635D01*
Y361238D01*
X454795D01*
Y361078D01*
X454955D01*
Y360918D01*
X455275D01*
Y360758D01*
X455435D01*
Y360598D01*
X455755D01*
Y360438D01*
X455915D01*
Y360278D01*
X456075D01*
Y360118D01*
X456395D01*
X456395Y359958D01*
X456715D01*
Y360118D01*
X456555D01*
Y360278D01*
Y360438D01*
Y360598D01*
Y360758D01*
X456395D01*
Y360918D01*
Y361078D01*
Y361238D01*
X456235D01*
Y361398D01*
Y361558D01*
Y361718D01*
X456075D01*
Y361878D01*
Y362038D01*
Y362198D01*
X455915D01*
Y362358D01*
Y362518D01*
X455755D01*
Y362678D01*
Y362838D01*
X455595D01*
Y362998D01*
Y363158D01*
Y363318D01*
X455435D01*
Y363478D01*
X455595D01*
Y363318D01*
X455755D01*
Y363158D01*
Y362998D01*
X455915D01*
Y362838D01*
Y362678D01*
X456075D01*
Y362518D01*
Y362358D01*
X456235D01*
Y362198D01*
Y362038D01*
X456395D01*
Y361878D01*
X456555D01*
Y361718D01*
X456715D01*
Y361558D01*
X456875D01*
Y361398D01*
X457035D01*
Y361238D01*
X457195D01*
Y361078D01*
X457515D01*
Y360918D01*
X457674D01*
Y360758D01*
X457994D01*
Y360598D01*
X458154D01*
Y360438D01*
X458475D01*
Y360278D01*
X458795D01*
Y360118D01*
X459114D01*
Y359958D01*
X459434D01*
Y359798D01*
X459754D01*
Y359638D01*
X460074D01*
Y359478D01*
X460394D01*
Y359318D01*
X460714D01*
Y359158D01*
X460874D01*
Y358998D01*
X461194D01*
Y358838D01*
X461514D01*
Y358678D01*
X461674D01*
Y358518D01*
X461994D01*
Y358358D01*
Y358199D01*
X461674D01*
Y358038D01*
X461354D01*
X461354Y357878D01*
X460394D01*
Y357719D01*
X459594D01*
Y357878D01*
X457994D01*
Y358038D01*
X454795D01*
Y358199D01*
X453195D01*
Y358358D01*
X451915D01*
Y358518D01*
X450635D01*
Y358678D01*
X449835D01*
Y358838D01*
X448875D01*
Y358998D01*
X448555D01*
Y359158D01*
Y359318D01*
X448715D01*
Y359478D01*
X449035D01*
Y359638D01*
X449995D01*
Y359798D01*
X450315D01*
Y359958D01*
X450475D01*
Y360118D01*
Y360278D01*
Y360438D01*
X450315D01*
Y360598D01*
Y360758D01*
X449995D01*
Y360918D01*
X450475D01*
Y361078D01*
X450955D01*
Y361238D01*
X451595D01*
X451595Y361398D01*
X451755Y361398D01*
Y361558D01*
X451915D01*
Y361718D01*
Y361878D01*
X452075D01*
Y362038D01*
Y362198D01*
X451915D01*
Y362358D01*
Y362518D01*
X451755D01*
Y362678D01*
X451435D01*
Y362838D01*
X450955D01*
Y362998D01*
X450475D01*
Y363158D01*
X450155D01*
Y363318D01*
X449835D01*
Y363478D01*
X449355D01*
Y363638D01*
X448875D01*
Y363798D01*
X448395D01*
Y363958D01*
X447915Y363958D01*
Y364118D01*
Y364278D01*
X448235D01*
Y364438D01*
X448555D01*
Y364598D01*
X448715D01*
Y364758D01*
X448875D01*
Y364598D01*
X449035Y364598D01*
Y364438D01*
X449195D01*
Y364278D01*
X449355D01*
Y364118D01*
X449515D01*
Y363958D01*
X449835Y363958D01*
Y363798D01*
X449995D01*
Y363638D01*
X450155D01*
Y363478D01*
X450315D01*
Y363318D01*
X450635D01*
Y363158D01*
X450795D01*
Y363318D01*
Y363478D01*
Y363638D01*
X450635D01*
Y363798D01*
Y363958D01*
Y364118D01*
X450475D01*
Y364278D01*
Y364438D01*
X450315D01*
Y364598D01*
Y364758D01*
Y364918D01*
X450155Y364918D01*
Y365078D01*
Y365238D01*
X449995D01*
Y365398D01*
Y365558D01*
Y365718D01*
X450155D01*
Y365558D01*
D02*
G37*
G36*
X396400Y363958D02*
X396560D01*
Y363798D01*
X396720D01*
Y363638D01*
X397040D01*
Y363478D01*
X397200D01*
Y363318D01*
X397680D01*
Y363158D01*
X398479D01*
Y362998D01*
X398800D01*
Y362838D01*
X398960D01*
Y362678D01*
X399119D01*
Y362518D01*
Y362358D01*
X399280D01*
Y362198D01*
X399440D01*
Y362038D01*
X399599D01*
Y361878D01*
X399759D01*
Y361718D01*
X399919D01*
Y361558D01*
X400079D01*
Y361398D01*
X400239D01*
Y361238D01*
Y361078D01*
X399599D01*
Y361238D01*
X398479D01*
Y361398D01*
X398160Y361398D01*
Y361558D01*
X397520D01*
Y361718D01*
X397360D01*
Y361878D01*
X397040D01*
Y362038D01*
X396880D01*
Y361878D01*
Y361718D01*
X397040D01*
Y361558D01*
X397200D01*
Y361398D01*
X397520D01*
Y361238D01*
X397680D01*
Y361078D01*
X397840D01*
Y360918D01*
X398000D01*
Y360758D01*
X397360D01*
Y360598D01*
X394640D01*
Y360758D01*
X394000Y360758D01*
X394000Y360918D01*
X393360D01*
Y361078D01*
X393040D01*
X393040Y360918D01*
X393200D01*
Y360758D01*
X393360D01*
Y360598D01*
X393680D01*
Y360438D01*
X393840D01*
Y360278D01*
X394160D01*
Y360118D01*
X394320D01*
Y359958D01*
X394640D01*
Y359798D01*
X394800D01*
Y359638D01*
X392080D01*
Y359798D01*
X390960D01*
Y359958D01*
X390480D01*
X390480Y360118D01*
X390000D01*
X390000Y359958D01*
X390320D01*
Y359798D01*
X390640D01*
Y359638D01*
X391120D01*
Y359478D01*
X391280D01*
Y359318D01*
X391600Y359318D01*
Y359158D01*
X390640D01*
Y359318D01*
X389200D01*
Y359478D01*
X387920D01*
Y359638D01*
X386800D01*
Y359798D01*
Y359958D01*
X388240D01*
Y360118D01*
X388080D01*
Y360278D01*
X387920D01*
Y360438D01*
X387761D01*
Y360598D01*
X387600D01*
Y360758D01*
X387440D01*
Y360918D01*
X387121D01*
Y361078D01*
X386960D01*
Y361238D01*
X386800D01*
Y361398D01*
X386641Y361398D01*
Y361558D01*
X386960D01*
Y361398D01*
X387121D01*
Y361238D01*
X387440D01*
Y361078D01*
X389360D01*
Y361238D01*
X389520D01*
Y361398D01*
X389200D01*
Y361558D01*
X388880D01*
X388880Y361718D01*
X388560D01*
X388560Y361878D01*
X388400D01*
Y362038D01*
X388240D01*
X388240Y362198D01*
X388400D01*
Y362038D01*
X388880D01*
Y361878D01*
X389360Y361878D01*
Y361718D01*
X389840D01*
X389840Y361558D01*
X391280D01*
Y361718D01*
X391120D01*
Y361878D01*
X390800D01*
Y362038D01*
X390640D01*
Y362198D01*
X390320D01*
Y362358D01*
X390160D01*
Y362518D01*
X389840D01*
Y362678D01*
X389520D01*
Y362838D01*
Y362998D01*
X389680D01*
Y362838D01*
X390000D01*
Y362678D01*
X390480D01*
Y362518D01*
X390960D01*
Y362358D01*
X392080D01*
Y362198D01*
X395920D01*
Y362358D01*
X396400D01*
Y362518D01*
X396240D01*
Y362678D01*
X396080D01*
Y362838D01*
X395920D01*
Y362998D01*
X395760D01*
Y363158D01*
X395440D01*
Y363318D01*
X395280D01*
Y363478D01*
X395120D01*
Y363638D01*
X394800D01*
Y363798D01*
X394640D01*
Y363958D01*
X394800D01*
Y363798D01*
X395120D01*
Y363638D01*
X395440D01*
Y363478D01*
X395760D01*
Y363318D01*
X395920D01*
Y363158D01*
X396240D01*
Y362998D01*
X396560D01*
Y362838D01*
X397200D01*
Y362678D01*
X397520D01*
Y362838D01*
Y362998D01*
X397360D01*
Y363158D01*
X397040D01*
Y363318D01*
X396880D01*
Y363478D01*
X396560D01*
Y363638D01*
X396400D01*
Y363798D01*
X396240D01*
Y363958D01*
X396080D01*
Y364118D01*
X396400D01*
Y363958D01*
D02*
G37*
G36*
X462314Y360598D02*
X462154D01*
Y360758D01*
X462314D01*
X462314Y360598D01*
D02*
G37*
G36*
X358323Y359958D02*
X359123D01*
Y359798D01*
X358963D01*
Y359638D01*
Y359478D01*
X358803D01*
Y359318D01*
Y359158D01*
X358643D01*
Y358998D01*
Y358838D01*
X358483D01*
Y358678D01*
Y358518D01*
X358323D01*
Y358358D01*
Y358199D01*
X358163D01*
Y358038D01*
Y357878D01*
X357843D01*
Y357719D01*
X357523D01*
Y357559D01*
X357203D01*
Y357398D01*
X356883D01*
Y357239D01*
X356723D01*
Y357079D01*
X356403D01*
Y357239D01*
Y357398D01*
X356563D01*
Y357559D01*
Y357719D01*
Y357878D01*
X356723D01*
Y358038D01*
X356883D01*
Y358199D01*
X357043D01*
Y358358D01*
Y358518D01*
X357203D01*
Y358678D01*
Y358838D01*
X357363D01*
Y358998D01*
X357523D01*
Y359158D01*
X357203D01*
Y358998D01*
X357043D01*
Y358838D01*
X356883D01*
X356883Y358678D01*
X356403D01*
Y358518D01*
X356243D01*
Y358358D01*
X356083D01*
Y358199D01*
X355763D01*
Y358038D01*
X355443D01*
Y357878D01*
X355283D01*
Y357719D01*
X354963D01*
Y357559D01*
X354803D01*
Y357398D01*
X354643D01*
Y357239D01*
X354323D01*
Y357398D01*
X354483D01*
Y357559D01*
Y357719D01*
X354803D01*
Y357878D01*
X355123D01*
Y358038D01*
X355283D01*
Y358199D01*
X355603D01*
Y358358D01*
X355763D01*
Y358518D01*
X356083D01*
Y358678D01*
X356243D01*
Y358838D01*
X356563D01*
Y358998D01*
X356723D01*
Y359158D01*
X357043D01*
Y359318D01*
X357203Y359318D01*
Y359478D01*
X357363D01*
Y359638D01*
X357683D01*
Y359798D01*
X357843D01*
Y359958D01*
X358003D01*
Y360118D01*
X358323D01*
Y359958D01*
D02*
G37*
G36*
X382321Y359478D02*
X385201D01*
Y359318D01*
X385361D01*
Y359158D01*
X385841D01*
Y358998D01*
X380561D01*
Y359158D01*
X379921D01*
Y358998D01*
X380081D01*
Y358838D01*
X380241D01*
Y358678D01*
X380401D01*
Y358518D01*
X380721D01*
Y358358D01*
X380401D01*
Y358518D01*
X379761D01*
Y358678D01*
X378801D01*
X378801Y358838D01*
X378001D01*
X378001Y358998D01*
X377521D01*
Y358838D01*
X377681D01*
Y358678D01*
X377841D01*
Y358518D01*
X378001D01*
Y358358D01*
X378161D01*
Y358199D01*
X377841D01*
Y358358D01*
X377361D01*
Y358518D01*
X376721D01*
Y358678D01*
X376241D01*
Y358838D01*
X376401D01*
Y358998D01*
X377041D01*
Y359158D01*
X377841D01*
Y359318D01*
X378961D01*
Y359478D01*
X380081D01*
Y359638D01*
X382321D01*
Y359478D01*
D02*
G37*
G36*
X462474Y360438D02*
Y360278D01*
X462634D01*
Y360118D01*
X462794D01*
Y359958D01*
X462954D01*
Y359798D01*
Y359638D01*
X463114D01*
Y359478D01*
X463274D01*
Y359318D01*
X463434Y359318D01*
Y359158D01*
X463434Y358998D01*
X463594D01*
Y358838D01*
X463754D01*
Y358678D01*
X463914D01*
Y358518D01*
X464074D01*
Y358358D01*
X463594D01*
Y358518D01*
X463274D01*
X463274Y358678D01*
X463274Y358838D01*
X463114D01*
Y358998D01*
Y359158D01*
X462954D01*
Y359318D01*
Y359478D01*
X462794D01*
Y359638D01*
X462634D01*
Y359798D01*
Y359958D01*
X462474D01*
X462474Y360118D01*
X462474Y360278D01*
X462314D01*
Y360438D01*
Y360598D01*
X462474D01*
Y360438D01*
D02*
G37*
G36*
X429677Y360758D02*
Y360598D01*
Y360438D01*
Y360278D01*
X429677Y360118D01*
X429677Y359958D01*
Y359798D01*
Y359638D01*
Y359478D01*
X429677Y359318D01*
X429677Y359158D01*
Y358998D01*
Y358838D01*
X429677Y358678D01*
X429837D01*
Y358518D01*
Y358358D01*
Y358199D01*
X429997D01*
Y358038D01*
X429997Y357878D01*
X429997Y357719D01*
X430157D01*
Y357559D01*
Y357398D01*
X430317D01*
Y357239D01*
Y357079D01*
X430317Y356918D01*
X430477D01*
Y356759D01*
Y356599D01*
Y356439D01*
X430637D01*
Y356279D01*
X430797D01*
Y356439D01*
Y356599D01*
Y356759D01*
Y356918D01*
X430957D01*
X430957Y357079D01*
Y357239D01*
Y357398D01*
Y357559D01*
Y357719D01*
Y357878D01*
X431117D01*
Y357719D01*
Y357559D01*
Y357398D01*
Y357239D01*
Y357079D01*
Y356918D01*
Y356759D01*
Y356599D01*
Y356439D01*
Y356279D01*
Y356119D01*
X431277D01*
Y355959D01*
Y355799D01*
Y355639D01*
Y355479D01*
X431437D01*
Y355639D01*
X431597D01*
Y355799D01*
Y355959D01*
X431757D01*
Y356119D01*
X431757Y356279D01*
Y356439D01*
Y356599D01*
Y356759D01*
Y356918D01*
X431917D01*
Y356759D01*
Y356599D01*
Y356439D01*
Y356279D01*
Y356119D01*
Y355959D01*
X432077D01*
Y355799D01*
Y355639D01*
Y355479D01*
X432237D01*
Y355639D01*
Y355799D01*
Y355959D01*
Y356119D01*
X432397D01*
Y356279D01*
Y356439D01*
X432557D01*
Y356279D01*
Y356119D01*
Y355959D01*
Y355799D01*
Y355639D01*
Y355479D01*
Y355319D01*
Y355159D01*
Y354999D01*
Y354839D01*
Y354679D01*
X432717D01*
Y354519D01*
X432877D01*
Y354359D01*
Y354199D01*
X433037D01*
Y354039D01*
X433197Y354039D01*
Y353879D01*
X433357D01*
Y353719D01*
X433517D01*
Y353879D01*
Y354039D01*
X433357D01*
Y354199D01*
X433517D01*
Y354039D01*
X433677D01*
Y353879D01*
Y353719D01*
X433837D01*
Y353559D01*
Y353399D01*
X433997D01*
Y353239D01*
Y353079D01*
X434156D01*
Y352919D01*
X434316D01*
Y352759D01*
Y352599D01*
X434477D01*
Y352439D01*
Y352279D01*
X434636D01*
X434636Y352119D01*
Y351959D01*
Y351799D01*
X434796D01*
Y351639D01*
Y351479D01*
X434957D01*
X434957Y351319D01*
X434957Y351159D01*
X435117D01*
Y350999D01*
Y350839D01*
X435276D01*
Y350679D01*
Y350519D01*
X435436D01*
Y350359D01*
Y350199D01*
X435596D01*
Y350039D01*
X435596Y349879D01*
X435756D01*
Y349719D01*
X435436D01*
Y349879D01*
X435276D01*
X435276Y350039D01*
X435117D01*
Y350199D01*
X434957D01*
Y350359D01*
X434796D01*
Y350519D01*
X434636D01*
X434636Y350679D01*
X434636Y350839D01*
X434477D01*
X434477Y350999D01*
X434316D01*
Y351159D01*
X434156D01*
Y351319D01*
X433997D01*
Y351479D01*
X433677D01*
Y351639D01*
X433517D01*
Y351799D01*
X433357D01*
Y351959D01*
X433197D01*
Y352119D01*
X433037D01*
Y352279D01*
X432877D01*
Y352439D01*
X432717D01*
Y352599D01*
X432557D01*
Y352759D01*
X432397D01*
Y352919D01*
X432237D01*
Y353079D01*
X432077D01*
Y353239D01*
Y353399D01*
X431917D01*
Y353559D01*
Y353719D01*
X431597D01*
Y353879D01*
Y354039D01*
X431437D01*
Y354199D01*
Y354359D01*
X431277D01*
Y354519D01*
Y354679D01*
X431117D01*
Y354839D01*
Y354999D01*
X430957D01*
X430957Y354839D01*
X430957Y354679D01*
Y354519D01*
X431117D01*
Y354359D01*
Y354199D01*
X430957D01*
Y354359D01*
X430797D01*
Y354519D01*
X430637D01*
Y354679D01*
X430477D01*
Y354839D01*
Y354999D01*
X430317D01*
Y355159D01*
X430157D01*
Y355319D01*
X429997D01*
Y355479D01*
X429837D01*
Y355639D01*
X429677D01*
Y355799D01*
X429517D01*
Y355959D01*
Y356119D01*
X429357D01*
Y356279D01*
X429197D01*
Y356439D01*
X429037D01*
Y356599D01*
X428877D01*
Y356759D01*
Y356918D01*
X428717D01*
Y357079D01*
X428557D01*
Y357239D01*
X428397D01*
Y357398D01*
X428397Y357559D01*
X428237D01*
Y357719D01*
Y357878D01*
X428077D01*
Y358038D01*
Y358199D01*
X427917D01*
Y358358D01*
Y358518D01*
Y358678D01*
Y358838D01*
Y358998D01*
Y359158D01*
Y359318D01*
X427757D01*
Y359478D01*
Y359638D01*
Y359798D01*
Y359958D01*
X427917D01*
Y359798D01*
Y359638D01*
Y359478D01*
X428077D01*
Y359318D01*
Y359158D01*
X428237D01*
Y358998D01*
Y358838D01*
X428397D01*
Y358678D01*
Y358518D01*
X428557D01*
Y358358D01*
Y358199D01*
X428717D01*
Y358038D01*
Y357878D01*
X428877D01*
X428877Y358038D01*
Y358199D01*
X429037D01*
Y358358D01*
Y358518D01*
Y358678D01*
X429197D01*
X429197Y358838D01*
Y358998D01*
Y359158D01*
Y359318D01*
X429357Y359318D01*
Y359478D01*
Y359638D01*
Y359798D01*
Y359958D01*
Y360118D01*
Y360278D01*
Y360438D01*
Y360598D01*
Y360758D01*
X429517D01*
Y360918D01*
X429677D01*
Y360758D01*
D02*
G37*
G36*
X448875Y357878D02*
X449195D01*
Y357719D01*
X449675D01*
Y357559D01*
X449995D01*
Y357398D01*
X450475D01*
Y357239D01*
X450955D01*
Y357079D01*
X451275D01*
Y356918D01*
X451755D01*
Y356759D01*
X452075D01*
X452075Y356599D01*
X452235D01*
Y356439D01*
X450635D01*
Y356279D01*
X451115D01*
Y356119D01*
X451755D01*
Y355959D01*
X452555D01*
X452555Y355799D01*
X453355D01*
Y355639D01*
X453675D01*
Y355479D01*
X453995D01*
Y355319D01*
X452235D01*
Y355159D01*
Y354999D01*
X452875D01*
Y354839D01*
X454155D01*
Y354679D01*
X454635D01*
Y354519D01*
X454955D01*
Y354359D01*
X455435D01*
Y354199D01*
X453675D01*
Y354039D01*
X453995D01*
Y353879D01*
X454315D01*
Y353719D01*
X454955D01*
Y353559D01*
X455435D01*
Y353399D01*
X455595D01*
Y353239D01*
X455915D01*
Y353079D01*
X456075D01*
Y352919D01*
X456235D01*
Y352759D01*
X456395D01*
Y352599D01*
X456555D01*
Y352439D01*
X456875D01*
Y352279D01*
X454795D01*
Y352119D01*
X455115D01*
Y351959D01*
X455595D01*
Y351799D01*
X456075D01*
Y351639D01*
X456715D01*
Y351479D01*
X457035D01*
Y351319D01*
X457355D01*
Y351159D01*
X457674D01*
Y350999D01*
X457994D01*
Y350839D01*
X456235D01*
Y350679D01*
X455755D01*
Y350519D01*
X454955D01*
Y350359D01*
X454475D01*
Y350519D01*
X454315D01*
Y350679D01*
X453995D01*
Y350839D01*
X453675Y350839D01*
Y350999D01*
X452715D01*
Y351159D01*
X452555D01*
Y350999D01*
X452235D01*
Y351159D01*
X452395D01*
Y351319D01*
X453355D01*
Y351479D01*
X453675D01*
Y351639D01*
X453995D01*
Y351799D01*
Y351959D01*
X453675D01*
Y352119D01*
X453195D01*
Y352279D01*
X452075D01*
Y352439D01*
X451915D01*
Y352599D01*
X452395D01*
Y352439D01*
X453515D01*
Y352599D01*
X453995D01*
Y352759D01*
X454475D01*
X454475Y352919D01*
Y353079D01*
X454155D01*
Y353239D01*
X453835D01*
Y353399D01*
X453675D01*
Y353559D01*
X453355D01*
Y353719D01*
X453035D01*
Y353879D01*
X452875D01*
Y354039D01*
X452555Y354039D01*
Y354199D01*
X452235D01*
Y354359D01*
X451435D01*
Y354519D01*
X451915D01*
Y354679D01*
X451755D01*
X451755Y354839D01*
X451435D01*
Y354999D01*
X451115D01*
Y355159D01*
X450955D01*
Y355319D01*
X450155D01*
Y355479D01*
X449835D01*
Y355639D01*
X450475Y355639D01*
Y355479D01*
X450955D01*
X450955Y355639D01*
X450795D01*
X450795Y355799D01*
X450795Y355959D01*
X450315D01*
Y356119D01*
X449995D01*
Y356279D01*
X449195D01*
Y356439D01*
X449035D01*
Y356599D01*
X449515D01*
Y356439D01*
X449835D01*
Y356599D01*
X449675D01*
Y356759D01*
X449515D01*
Y356918D01*
X449355D01*
Y357079D01*
X449195D01*
Y357239D01*
Y357398D01*
X449035D01*
Y357559D01*
X448875D01*
Y357719D01*
X448715D01*
Y357878D01*
Y358038D01*
X448875D01*
Y357878D01*
D02*
G37*
G36*
X364882Y358518D02*
X364722D01*
Y358358D01*
X364562D01*
Y358199D01*
Y358038D01*
Y357878D01*
X364402D01*
Y357719D01*
Y357559D01*
X364242D01*
Y357398D01*
Y357239D01*
Y357079D01*
X364082D01*
Y356918D01*
Y356759D01*
X363922D01*
Y356599D01*
Y356439D01*
X363763D01*
Y356279D01*
Y356119D01*
X363602D01*
Y355959D01*
X364082D01*
Y356119D01*
X364242D01*
Y356279D01*
X364562D01*
Y356439D01*
X364722D01*
Y356279D01*
Y356119D01*
X364562Y356119D01*
Y355959D01*
X364402D01*
X364402Y355799D01*
Y355639D01*
X364562D01*
Y355799D01*
X365202D01*
Y355959D01*
X366162D01*
Y356119D01*
X366642D01*
X366642Y356279D01*
X366962D01*
Y356439D01*
X367122D01*
Y356599D01*
X367282D01*
Y356759D01*
X367442D01*
Y356918D01*
X367602D01*
Y356759D01*
Y356599D01*
X367442D01*
Y356439D01*
X367282D01*
Y356279D01*
X367122D01*
Y356119D01*
Y355959D01*
X366962D01*
Y355799D01*
Y355639D01*
Y355479D01*
X366802D01*
Y355319D01*
Y355159D01*
X367282D01*
Y355319D01*
X367442D01*
Y355479D01*
X367762D01*
Y355319D01*
Y355159D01*
X367922D01*
Y355319D01*
X368402D01*
Y355479D01*
X368882D01*
Y355639D01*
X369362D01*
X369362Y355799D01*
X369682D01*
Y355959D01*
X370162D01*
Y356119D01*
X370642D01*
Y355959D01*
X370482D01*
X370482Y355799D01*
X370322D01*
Y355639D01*
X370162D01*
Y355479D01*
X369842D01*
Y355319D01*
X369682D01*
Y355159D01*
X369522D01*
Y354999D01*
X369362D01*
Y354839D01*
X369202D01*
Y354679D01*
X369042D01*
Y354519D01*
X368722D01*
Y354359D01*
X368562D01*
Y354199D01*
X368082D01*
Y354039D01*
X367602D01*
Y353879D01*
X367282D01*
Y353719D01*
X366802D01*
Y353559D01*
X366482D01*
Y353399D01*
X366162D01*
Y353239D01*
X365842D01*
Y353079D01*
X365522D01*
Y352919D01*
X365042D01*
Y353079D01*
X365202D01*
X365202Y353239D01*
Y353399D01*
X365362D01*
Y353559D01*
X365522D01*
Y353719D01*
X365682D01*
Y353879D01*
X365842D01*
Y354039D01*
X366002D01*
Y354199D01*
Y354359D01*
X366162D01*
Y354519D01*
X366322D01*
Y354679D01*
X366482D01*
Y354839D01*
X366642D01*
Y354999D01*
X366322D01*
Y354839D01*
X366002D01*
Y354679D01*
X365842D01*
Y354519D01*
X365362D01*
Y354359D01*
X365202D01*
Y354199D01*
X364882D01*
Y354039D01*
X364402D01*
X364402Y353879D01*
X363922D01*
Y353719D01*
X363442D01*
Y353559D01*
X362962D01*
Y353399D01*
X362482D01*
Y353559D01*
X362643D01*
Y353719D01*
X362803D01*
Y353879D01*
Y354039D01*
X362962Y354039D01*
Y354199D01*
X363122D01*
Y354359D01*
X363283D01*
Y354519D01*
X363442D01*
Y354679D01*
X363602D01*
Y354839D01*
Y354999D01*
X363442D01*
Y354839D01*
X363283D01*
Y354679D01*
X362962D01*
Y354519D01*
X362803D01*
X362803Y354359D01*
X362643D01*
Y354199D01*
X362482D01*
Y354039D01*
X362003D01*
Y353879D01*
X361683D01*
Y353719D01*
X361523D01*
Y353879D01*
Y354039D01*
Y354199D01*
X361683D01*
Y354359D01*
Y354519D01*
Y354679D01*
X361843D01*
Y354839D01*
Y354999D01*
X362003D01*
Y355159D01*
Y355319D01*
Y355479D01*
X362163D01*
Y355639D01*
X362323D01*
Y355799D01*
Y355959D01*
Y356119D01*
X362482D01*
Y356279D01*
X362643D01*
Y356439D01*
X362803D01*
Y356599D01*
Y356759D01*
X362962D01*
Y356918D01*
X363122D01*
X363122Y357079D01*
X363283D01*
Y357239D01*
Y357398D01*
X363122D01*
Y357239D01*
X362962D01*
Y357079D01*
X362803D01*
Y356918D01*
X362643D01*
Y356759D01*
X362482D01*
Y356599D01*
X362323D01*
Y356439D01*
X362163D01*
Y356279D01*
X361843D01*
Y356119D01*
X361523D01*
Y355959D01*
X361043D01*
Y355799D01*
X359923D01*
Y355639D01*
X359603D01*
Y355799D01*
X359763D01*
Y355959D01*
X359923D01*
Y356119D01*
X360243D01*
Y356279D01*
X360403D01*
Y356439D01*
X360563D01*
Y356599D01*
X360883D01*
Y356759D01*
X361043D01*
Y356918D01*
X361363D01*
Y357079D01*
X361683D01*
Y357239D01*
X362003D01*
Y357398D01*
X362163D01*
Y357559D01*
X362482D01*
Y357719D01*
X362803D01*
Y357878D01*
X363442D01*
Y358038D01*
X363602D01*
Y358199D01*
X364082D01*
Y358358D01*
X364402D01*
Y358518D01*
X364562D01*
Y358678D01*
X364882D01*
X364882Y358518D01*
D02*
G37*
G36*
X452235Y351159D02*
X452075D01*
Y351319D01*
X452235D01*
X452235Y351159D01*
D02*
G37*
G36*
X466634Y357878D02*
X466794D01*
Y357719D01*
Y357559D01*
X466954D01*
Y357398D01*
Y357239D01*
X467114D01*
Y357079D01*
X467114Y356918D01*
X467274D01*
Y356759D01*
Y356599D01*
X467434D01*
Y356439D01*
Y356279D01*
X467594D01*
Y356119D01*
X467754D01*
Y355959D01*
Y355799D01*
X467914D01*
Y355639D01*
X468074D01*
Y355479D01*
Y355319D01*
X468234D01*
Y355159D01*
Y354999D01*
X468394D01*
Y354839D01*
X468554D01*
Y354679D01*
Y354519D01*
X468714D01*
Y354359D01*
X468874D01*
Y354199D01*
Y354039D01*
X469034D01*
Y353879D01*
X469194D01*
Y353719D01*
X469354D01*
X469353Y353559D01*
Y353399D01*
X469514D01*
Y353239D01*
X469674D01*
X469674Y353079D01*
X469674Y352919D01*
X469834D01*
Y352759D01*
X469994D01*
Y352599D01*
X470154D01*
Y352439D01*
Y352279D01*
X470313D01*
X470313Y352119D01*
X470474D01*
Y351959D01*
X470634D01*
Y352119D01*
X470634Y352279D01*
Y352439D01*
Y352599D01*
Y352759D01*
Y352919D01*
X470474D01*
Y353079D01*
Y353239D01*
Y353399D01*
Y353559D01*
Y353719D01*
Y353879D01*
X470313D01*
Y354039D01*
Y354199D01*
Y354359D01*
X470474D01*
Y354199D01*
X470634D01*
Y354039D01*
Y353879D01*
Y353719D01*
X470634Y353559D01*
X470793D01*
Y353399D01*
Y353239D01*
Y353079D01*
Y352919D01*
Y352759D01*
X470953D01*
Y352599D01*
Y352439D01*
Y352279D01*
X471113D01*
Y352119D01*
Y351959D01*
Y351799D01*
X471273D01*
Y351639D01*
Y351479D01*
Y351319D01*
X471433D01*
Y351159D01*
Y350999D01*
X471593D01*
Y351159D01*
X471753D01*
Y351319D01*
Y351479D01*
X471913D01*
Y351639D01*
Y351799D01*
X472073D01*
Y351959D01*
Y352119D01*
Y352279D01*
X472233D01*
Y352439D01*
Y352599D01*
Y352759D01*
X472393D01*
Y352919D01*
Y353079D01*
Y353239D01*
Y353399D01*
X472553D01*
Y353559D01*
Y353719D01*
Y353879D01*
Y354039D01*
Y354199D01*
X472713D01*
Y354359D01*
Y354519D01*
Y354679D01*
Y354839D01*
X472873D01*
Y354679D01*
Y354519D01*
Y354359D01*
Y354199D01*
Y354039D01*
Y353879D01*
Y353719D01*
Y353559D01*
X472713D01*
Y353399D01*
Y353239D01*
Y353079D01*
Y352919D01*
Y352759D01*
Y352599D01*
X472873D01*
Y352439D01*
Y352279D01*
Y352119D01*
Y351959D01*
Y351799D01*
Y351639D01*
X473033D01*
Y351479D01*
Y351319D01*
Y351159D01*
X473193D01*
Y350999D01*
Y350839D01*
X473353D01*
Y350679D01*
Y350519D01*
Y350359D01*
X473513D01*
Y350199D01*
Y350039D01*
X473673D01*
X473673Y349879D01*
Y349719D01*
X473833D01*
Y349879D01*
X473993D01*
Y350039D01*
Y350199D01*
X473993Y350359D01*
Y350519D01*
X473993Y350679D01*
X473993Y350839D01*
X473993Y350999D01*
Y351159D01*
Y351319D01*
Y351479D01*
Y351639D01*
X473993Y351799D01*
X474153D01*
Y351959D01*
Y352119D01*
X474313D01*
Y351959D01*
Y351799D01*
Y351639D01*
Y351479D01*
Y351319D01*
Y351159D01*
Y350999D01*
Y350839D01*
Y350679D01*
Y350519D01*
Y350359D01*
X474473D01*
Y350199D01*
Y350039D01*
X474473Y349879D01*
Y349719D01*
X474633D01*
Y349559D01*
Y349399D01*
Y349239D01*
Y349079D01*
Y348919D01*
X474793D01*
Y348759D01*
Y348599D01*
Y348439D01*
X474953D01*
Y348279D01*
Y348119D01*
X475113D01*
Y347959D01*
Y347799D01*
Y347639D01*
X475273D01*
Y347479D01*
Y347319D01*
Y347159D01*
X475433D01*
Y346999D01*
Y346839D01*
Y346679D01*
X475593D01*
Y346519D01*
Y346359D01*
X475753D01*
Y346199D01*
Y346040D01*
X475913D01*
Y345880D01*
Y345719D01*
X476073D01*
Y345560D01*
Y345400D01*
X476233D01*
Y345239D01*
Y345080D01*
X476393Y345079D01*
X476393Y344920D01*
Y344760D01*
X476553D01*
Y344600D01*
Y344440D01*
X476713D01*
Y344280D01*
Y344120D01*
X476873D01*
Y343960D01*
Y343800D01*
X477033D01*
X477033Y343640D01*
X477033Y343480D01*
X477193D01*
Y343320D01*
Y343160D01*
Y343000D01*
X477353D01*
Y342840D01*
Y342680D01*
X477513D01*
Y342520D01*
Y342360D01*
Y342200D01*
X477673D01*
Y342040D01*
Y341880D01*
Y341720D01*
X477833D01*
Y341560D01*
Y341400D01*
X477993D01*
Y341240D01*
Y341080D01*
Y340920D01*
X478153D01*
Y340760D01*
Y340600D01*
X478313Y340600D01*
Y340440D01*
Y340280D01*
X478633D01*
Y340440D01*
Y340600D01*
Y340760D01*
X478793D01*
Y340920D01*
Y341080D01*
Y341240D01*
Y341400D01*
X478953D01*
Y341560D01*
Y341720D01*
Y341880D01*
X479113D01*
Y342040D01*
Y342200D01*
Y342360D01*
Y342520D01*
X479273D01*
Y342680D01*
Y342840D01*
Y343000D01*
Y343160D01*
Y343320D01*
X479433D01*
Y343480D01*
Y343640D01*
Y343800D01*
X479593D01*
Y343640D01*
Y343480D01*
Y343320D01*
Y343160D01*
Y343000D01*
Y342840D01*
X479433D01*
Y342680D01*
Y342520D01*
Y342360D01*
Y342200D01*
Y342040D01*
Y341880D01*
Y341720D01*
Y341560D01*
Y341400D01*
Y341240D01*
Y341080D01*
Y340920D01*
Y340760D01*
Y340600D01*
Y340440D01*
Y340280D01*
Y340120D01*
X479593D01*
Y339960D01*
Y339800D01*
Y339640D01*
Y339480D01*
Y339320D01*
X479433Y339320D01*
Y339480D01*
X479113D01*
Y339640D01*
X478633D01*
Y339480D01*
X478313D01*
Y339320D01*
X477993Y339320D01*
Y339160D01*
X477513D01*
Y339320D01*
Y339480D01*
Y339640D01*
X477353D01*
Y339800D01*
X477033Y339800D01*
Y339960D01*
X476713D01*
Y339800D01*
X476393D01*
X476393Y339640D01*
X476073D01*
Y339480D01*
X475113D01*
Y339640D01*
X474953D01*
Y339800D01*
X474793D01*
Y339960D01*
X474633D01*
Y340120D01*
X474473Y340120D01*
Y340280D01*
X474313D01*
Y340440D01*
Y340600D01*
X474153D01*
Y340760D01*
X473993D01*
X473993Y340920D01*
X473993Y341080D01*
X473833D01*
Y341240D01*
Y341400D01*
X473673D01*
Y341560D01*
X473673Y341720D01*
X473513D01*
Y341880D01*
Y342040D01*
X473353D01*
Y342200D01*
Y342360D01*
X473193D01*
Y342520D01*
Y342680D01*
X473033D01*
Y342840D01*
Y343000D01*
X472873D01*
Y343160D01*
Y343320D01*
X472713D01*
Y343480D01*
Y343640D01*
X472553D01*
Y343800D01*
X472393D01*
Y343960D01*
Y344120D01*
X472233D01*
Y344280D01*
Y344440D01*
X472073D01*
Y344600D01*
X471913D01*
Y344760D01*
Y344920D01*
X471753D01*
Y345079D01*
X471593D01*
Y345239D01*
Y345400D01*
X471433D01*
Y345560D01*
Y345719D01*
X471273D01*
Y345880D01*
X471113D01*
Y346040D01*
Y346199D01*
X470953D01*
Y346359D01*
Y346519D01*
X470793D01*
Y346679D01*
X470634D01*
Y346839D01*
Y346999D01*
X470474D01*
Y347159D01*
X470313D01*
Y347319D01*
X470313Y347479D01*
X470154D01*
Y347639D01*
X469994D01*
Y347799D01*
Y347959D01*
X469834D01*
Y348119D01*
Y348279D01*
X469674D01*
Y348439D01*
Y348599D01*
X469514D01*
Y348759D01*
Y348919D01*
X469354D01*
X469353Y349079D01*
X469354Y349239D01*
X469194D01*
Y349399D01*
Y349559D01*
Y349719D01*
X469034D01*
Y349879D01*
Y350039D01*
Y350199D01*
X468874D01*
Y350359D01*
Y350519D01*
Y350679D01*
X468714D01*
X468714Y350839D01*
X468714Y350999D01*
Y351159D01*
Y351319D01*
Y351479D01*
X468554D01*
Y351639D01*
Y351799D01*
Y351959D01*
Y352119D01*
Y352279D01*
Y352439D01*
Y352599D01*
X468394D01*
Y352759D01*
X468394Y352919D01*
X468394Y353079D01*
X468394Y353239D01*
Y353399D01*
Y353559D01*
X468234D01*
Y353719D01*
Y353879D01*
X468234Y354039D01*
Y354199D01*
Y354359D01*
X468074D01*
Y354519D01*
Y354679D01*
X468074Y354839D01*
X467914D01*
X467914Y354999D01*
Y355159D01*
Y355319D01*
X467754D01*
Y355479D01*
Y355639D01*
Y355799D01*
X467594D01*
Y355959D01*
X467434D01*
Y356119D01*
Y356279D01*
X467274D01*
Y356439D01*
Y356599D01*
X467114D01*
Y356759D01*
X466954D01*
Y356918D01*
Y357079D01*
X466794D01*
Y357239D01*
Y357398D01*
X466634D01*
Y357559D01*
Y357719D01*
X466474D01*
Y357878D01*
Y358038D01*
X466634D01*
Y357878D01*
D02*
G37*
G36*
X483592Y328281D02*
Y328121D01*
Y327961D01*
Y327801D01*
X483752D01*
Y327641D01*
Y327481D01*
Y327321D01*
Y327161D01*
Y327001D01*
Y326841D01*
Y326681D01*
Y326521D01*
Y326361D01*
Y326201D01*
Y326041D01*
Y325881D01*
Y325721D01*
Y325561D01*
Y325401D01*
Y325241D01*
Y325081D01*
Y324921D01*
Y324761D01*
Y324601D01*
Y324441D01*
Y324281D01*
Y324121D01*
Y323961D01*
Y323801D01*
Y323641D01*
Y323481D01*
X483912D01*
Y323641D01*
Y323801D01*
X484072D01*
Y323961D01*
Y324121D01*
X484232D01*
Y324281D01*
Y324441D01*
X484392D01*
Y324601D01*
Y324761D01*
Y324921D01*
X484552D01*
Y325081D01*
Y325241D01*
Y325401D01*
X484712D01*
Y325561D01*
Y325721D01*
Y325881D01*
X484872D01*
Y325721D01*
Y325561D01*
Y325401D01*
Y325241D01*
X484712Y325241D01*
Y325081D01*
Y324921D01*
Y324761D01*
Y324601D01*
X484552D01*
Y324441D01*
Y324281D01*
Y324121D01*
Y323961D01*
Y323801D01*
X484392Y323801D01*
Y323641D01*
Y323481D01*
Y323321D01*
Y323161D01*
Y323001D01*
Y322841D01*
X484232D01*
Y322681D01*
Y322521D01*
Y322361D01*
Y322201D01*
Y322042D01*
Y321881D01*
X484072D01*
Y321721D01*
Y321562D01*
Y321402D01*
Y321241D01*
Y321082D01*
Y320922D01*
X483912Y320922D01*
Y320762D01*
Y320602D01*
Y320442D01*
Y320282D01*
Y320122D01*
Y319962D01*
X483752D01*
Y319802D01*
Y319642D01*
Y319482D01*
Y319322D01*
X483592D01*
Y319162D01*
Y319002D01*
Y318842D01*
Y318682D01*
X483432D01*
Y318522D01*
Y318362D01*
Y318202D01*
X483272D01*
Y318042D01*
Y317882D01*
Y317722D01*
X483112D01*
Y317562D01*
Y317402D01*
Y317242D01*
X482952D01*
Y317082D01*
Y316922D01*
Y316762D01*
X482793D01*
Y316602D01*
Y316442D01*
X482632D01*
X482632Y316282D01*
Y316122D01*
X483112D01*
Y316282D01*
X483592D01*
Y316442D01*
X484072D01*
Y316602D01*
X484552D01*
Y316762D01*
X484712D01*
Y316922D01*
X485032D01*
Y316762D01*
X484872D01*
Y316602D01*
X484712D01*
Y316442D01*
X484392D01*
Y316282D01*
X484232D01*
Y316122D01*
X484072D01*
Y315962D01*
X483912D01*
Y315802D01*
Y315642D01*
X483752D01*
Y315482D01*
X483592D01*
Y315322D01*
X483432D01*
Y315162D01*
X483272D01*
Y315002D01*
Y314842D01*
X483112D01*
Y314682D01*
X482952D01*
Y314522D01*
Y314362D01*
X482793D01*
Y314202D01*
X482632D01*
Y314042D01*
X482472D01*
Y313882D01*
Y313722D01*
X482313D01*
Y313562D01*
X482152D01*
Y313402D01*
Y313242D01*
X481992D01*
Y313082D01*
X481833D01*
Y312922D01*
Y312762D01*
X481673D01*
X481673Y312602D01*
X481512D01*
Y312442D01*
X481353D01*
Y312282D01*
Y312122D01*
X481193D01*
Y311962D01*
X481033D01*
Y311802D01*
Y311642D01*
X480873D01*
Y311482D01*
X480713D01*
Y311322D01*
X480553D01*
Y311162D01*
Y311002D01*
X480393D01*
Y310842D01*
X480233D01*
Y310683D01*
X480073D01*
Y310522D01*
X479913D01*
Y310362D01*
Y310203D01*
X480393D01*
Y310362D01*
X480713D01*
Y310522D01*
X481033Y310522D01*
Y310683D01*
X481353D01*
Y310842D01*
X481673D01*
X481673Y310683D01*
X481512D01*
Y310522D01*
X481193D01*
Y310362D01*
X481033D01*
Y310203D01*
X480713D01*
Y310042D01*
X480553D01*
Y309883D01*
X480393D01*
Y309722D01*
X480233D01*
Y309562D01*
X479913D01*
Y309403D01*
X479753D01*
Y309243D01*
X479593D01*
Y309083D01*
X479433D01*
Y308923D01*
X479273D01*
Y308763D01*
X478953D01*
Y308603D01*
X478793D01*
Y308443D01*
X478633D01*
Y308283D01*
X478313Y308283D01*
Y308123D01*
X478153D01*
Y307963D01*
X477993D01*
Y307803D01*
X477673D01*
Y307643D01*
X477513D01*
Y307483D01*
X477193D01*
Y307323D01*
X477033D01*
Y307163D01*
X476873D01*
Y307003D01*
X476553D01*
Y306843D01*
X476233D01*
Y306683D01*
X476073D01*
Y306523D01*
X475753D01*
Y306363D01*
X476393D01*
Y306523D01*
X477193D01*
X477193Y306683D01*
X477833D01*
Y306843D01*
X478313D01*
Y307003D01*
X478793D01*
Y306843D01*
X478473D01*
Y306683D01*
X478153D01*
Y306523D01*
X477833D01*
Y306363D01*
X477513D01*
Y306203D01*
X477353D01*
Y306043D01*
X477033D01*
X477033Y305883D01*
X476873D01*
Y305723D01*
X476553D01*
Y305563D01*
X476393D01*
Y305403D01*
X476073D01*
X476073Y305243D01*
X475913D01*
Y305083D01*
X475753D01*
Y304923D01*
X475433D01*
Y304763D01*
X475273D01*
Y304603D01*
X475113D01*
X475113Y304443D01*
X474793D01*
Y304283D01*
X474633D01*
Y304123D01*
X474473D01*
X474473Y303963D01*
X474153D01*
Y303803D01*
X473993D01*
Y303643D01*
X473833D01*
Y303483D01*
X473513Y303483D01*
Y303323D01*
X473353D01*
Y303163D01*
X473033D01*
Y303003D01*
X472873D01*
Y302843D01*
X472553D01*
Y302683D01*
X472393D01*
Y302523D01*
X472073D01*
Y302363D01*
X471913D01*
Y302203D01*
X471593D01*
Y302043D01*
X471273D01*
Y301883D01*
X470953D01*
Y301723D01*
X470634D01*
Y301563D01*
X470474D01*
Y301723D01*
Y301883D01*
X470793D01*
Y302043D01*
X470953D01*
Y302203D01*
X471113D01*
Y302363D01*
X471433D01*
Y302523D01*
X471593D01*
Y302683D01*
X471753D01*
X471753Y302843D01*
X471913D01*
Y303003D01*
X472073D01*
Y303163D01*
X472233D01*
Y303323D01*
X472553D01*
Y303483D01*
X472713D01*
Y303643D01*
X472873D01*
Y303803D01*
X473033D01*
Y303963D01*
X473193D01*
Y304123D01*
X473353D01*
Y304283D01*
X473513D01*
Y304443D01*
X473673D01*
Y304603D01*
X473833D01*
Y304763D01*
X473993D01*
X473993Y304923D01*
Y305083D01*
X474153D01*
Y305243D01*
X474313D01*
Y305403D01*
X474473D01*
Y305563D01*
X474633D01*
Y305723D01*
X474793D01*
Y305883D01*
X474953D01*
Y306043D01*
Y306203D01*
X475113D01*
X475113Y306363D01*
X475273D01*
Y306523D01*
X475433D01*
Y306683D01*
Y306843D01*
X475593D01*
Y307003D01*
X475753D01*
Y307163D01*
X475913D01*
Y307323D01*
Y307483D01*
X476073D01*
Y307643D01*
X476233D01*
Y307803D01*
Y307963D01*
X476393D01*
Y308123D01*
X476553D01*
Y308283D01*
Y308443D01*
X476713D01*
Y308603D01*
X476873D01*
Y308763D01*
Y308923D01*
X477033D01*
Y309083D01*
Y309243D01*
X477193D01*
X477193Y309403D01*
Y309562D01*
X477353D01*
Y309722D01*
X477513D01*
Y309883D01*
Y310042D01*
X477673D01*
Y310203D01*
Y310362D01*
X477833D01*
Y310522D01*
Y310683D01*
X477993D01*
Y310842D01*
Y311002D01*
X478153D01*
Y311162D01*
Y311322D01*
X478313D01*
X478313Y311482D01*
Y311642D01*
X478473D01*
Y311802D01*
Y311962D01*
X478633D01*
Y312122D01*
Y312282D01*
Y312442D01*
X478793D01*
Y312602D01*
Y312762D01*
X478953D01*
Y312922D01*
Y313082D01*
X479113D01*
Y313242D01*
Y313402D01*
Y313562D01*
X479273D01*
Y313722D01*
Y313882D01*
X479433D01*
Y314042D01*
Y314202D01*
Y314362D01*
X479593D01*
Y314522D01*
Y314682D01*
Y314842D01*
X479753D01*
Y315002D01*
Y315162D01*
Y315322D01*
X479913D01*
Y315482D01*
Y315642D01*
Y315802D01*
X480073D01*
Y315962D01*
Y316122D01*
Y316282D01*
X480233D01*
Y316442D01*
Y316602D01*
Y316762D01*
X480393D01*
Y316922D01*
Y317082D01*
Y317242D01*
X480553D01*
Y317402D01*
Y317562D01*
Y317722D01*
Y317882D01*
X480713D01*
Y318042D01*
Y318202D01*
Y318362D01*
Y318522D01*
X480873D01*
Y318682D01*
Y318842D01*
Y319002D01*
Y319162D01*
X481033D01*
Y319322D01*
Y319482D01*
Y319642D01*
Y319802D01*
Y319962D01*
X481193D01*
Y320122D01*
Y320282D01*
Y320442D01*
Y320602D01*
Y320762D01*
Y320922D01*
X481353D01*
Y321082D01*
Y321242D01*
Y321402D01*
Y321562D01*
Y321721D01*
X481512D01*
Y321881D01*
Y322042D01*
Y322201D01*
Y322361D01*
Y322521D01*
Y322681D01*
Y322841D01*
X481673D01*
Y323001D01*
Y323161D01*
Y323321D01*
Y323481D01*
Y323641D01*
Y323801D01*
Y323961D01*
Y324121D01*
Y324281D01*
Y324441D01*
Y324601D01*
Y324761D01*
Y324921D01*
Y325081D01*
Y325241D01*
Y325401D01*
Y325561D01*
Y325721D01*
Y325881D01*
Y326041D01*
Y326201D01*
Y326361D01*
Y326521D01*
Y326681D01*
Y326841D01*
X481992Y326841D01*
Y327001D01*
X482152D01*
Y327161D01*
Y327321D01*
X482313D01*
Y327481D01*
Y327641D01*
Y327801D01*
Y327961D01*
Y328121D01*
Y328281D01*
Y328441D01*
X483592D01*
Y328281D01*
D02*
G37*
G36*
X479593Y307163D02*
X479273D01*
Y307003D01*
X479113D01*
Y307163D01*
Y307323D01*
X479593D01*
Y307163D01*
D02*
G37*
G36*
X473193Y301883D02*
X473033D01*
Y301723D01*
X472873D01*
Y301883D01*
Y302043D01*
X473193D01*
Y301883D01*
D02*
G37*
G36*
X472713Y301723D02*
X472553D01*
Y301563D01*
X472393D01*
Y301723D01*
Y301883D01*
X472713D01*
Y301723D01*
D02*
G37*
G36*
X472073Y301563D02*
Y301403D01*
X471433D01*
Y301243D01*
X470953D01*
Y301083D01*
X470313D01*
X470313Y300923D01*
X469994D01*
Y300763D01*
X469514D01*
X469514Y300603D01*
X469034D01*
Y300443D01*
X468874D01*
Y300283D01*
X469834D01*
Y300123D01*
X469994D01*
Y300283D01*
X470953D01*
Y300443D01*
X471113D01*
Y300283D01*
X471273D01*
Y300123D01*
X470474D01*
Y299963D01*
X469834D01*
Y299803D01*
X469514D01*
Y299643D01*
X469194D01*
X469194Y299483D01*
X468714D01*
X468714Y299323D01*
X468554D01*
Y299163D01*
X468074D01*
Y299003D01*
X467754D01*
Y298843D01*
X467434D01*
Y298683D01*
X467114D01*
Y298524D01*
X466634D01*
Y298363D01*
X466314D01*
Y298204D01*
X465834D01*
Y298043D01*
X465514D01*
X465514Y297883D01*
X465034D01*
Y297724D01*
X464554D01*
Y297563D01*
X463914D01*
Y297404D01*
X463114D01*
Y297244D01*
X462314D01*
X462314Y297084D01*
X461194D01*
Y296924D01*
X461034D01*
Y296764D01*
X460874D01*
Y296604D01*
X462154D01*
Y296444D01*
X461194D01*
Y296284D01*
X459274D01*
Y296124D01*
X457994D01*
Y295964D01*
X456075D01*
Y295804D01*
X452395D01*
Y295644D01*
X453195D01*
Y295484D01*
X453835D01*
Y295324D01*
X452715D01*
Y295484D01*
X451915D01*
Y295644D01*
X447595D01*
Y295804D01*
X444556D01*
Y295964D01*
X443436D01*
Y296124D01*
X442476D01*
Y296284D01*
X441836D01*
Y296444D01*
X441356D01*
Y296284D01*
X441676D01*
Y296124D01*
Y295964D01*
X441516D01*
Y296124D01*
X441036D01*
Y296284D01*
X440556D01*
Y296444D01*
X439756D01*
Y296604D01*
X439116D01*
Y296764D01*
X438476Y296764D01*
Y296924D01*
X437996D01*
Y297084D01*
X437356D01*
Y297244D01*
X436876D01*
Y297404D01*
X436236D01*
Y297563D01*
X435756D01*
Y297724D01*
X435596D01*
X435596Y297563D01*
X435756D01*
Y297404D01*
X435916D01*
Y297244D01*
X436236D01*
Y297084D01*
X436396D01*
Y296924D01*
X436556D01*
Y296764D01*
X436396D01*
Y296924D01*
X436076Y296924D01*
Y297084D01*
X435596D01*
X435596Y297244D01*
X434796Y297244D01*
Y297404D01*
X434156Y297404D01*
Y297563D01*
X433837D01*
X433837Y297724D01*
X433677D01*
Y297883D01*
X433357D01*
Y298043D01*
Y298204D01*
X433197Y298204D01*
Y298363D01*
X432877D01*
Y298524D01*
X432717D01*
Y298683D01*
X432877D01*
Y298524D01*
X433357D01*
Y298363D01*
X433837D01*
Y298204D01*
X434477Y298204D01*
X434477Y298043D01*
X435117D01*
Y297883D01*
X435756D01*
Y297724D01*
X436556D01*
Y297564D01*
X437036Y297563D01*
Y297404D01*
X437836D01*
Y297244D01*
X438636D01*
Y297084D01*
X439596D01*
Y296924D01*
X440716D01*
Y296764D01*
X441836Y296764D01*
Y296604D01*
X442956D01*
Y296444D01*
X444396D01*
Y296284D01*
X446156D01*
Y296124D01*
X453035D01*
X453035Y296284D01*
X455275D01*
Y296444D01*
X456715D01*
Y296604D01*
X457835D01*
Y296764D01*
X458795D01*
Y296924D01*
X459114D01*
Y296764D01*
X459274D01*
Y296924D01*
X459754Y296924D01*
Y297084D01*
X460394D01*
Y297244D01*
X461034D01*
Y297404D01*
X461674D01*
Y297563D01*
X462154D01*
Y297724D01*
X462634D01*
Y297883D01*
X463114D01*
X463114Y298043D01*
X463594Y298043D01*
Y298204D01*
X464074Y298204D01*
Y298363D01*
X464554D01*
X464554Y298524D01*
X464874D01*
Y298683D01*
X465194D01*
Y298843D01*
X465674D01*
Y299003D01*
X465994D01*
Y299163D01*
X466314D01*
Y299323D01*
X466634D01*
Y299483D01*
X466954D01*
Y299643D01*
X467274D01*
Y299803D01*
X467594D01*
Y299963D01*
X467914D01*
X467914Y300123D01*
X468074D01*
Y300283D01*
X468394D01*
Y300443D01*
X468554D01*
Y300603D01*
X468874D01*
X468874Y300763D01*
X469194D01*
Y300923D01*
X469354D01*
X469353Y301083D01*
X469674D01*
Y301243D01*
X469834D01*
Y301403D01*
X470154D01*
Y301563D01*
X470474D01*
Y301403D01*
X471273D01*
Y301563D01*
X471913D01*
Y301723D01*
X472073D01*
Y301563D01*
D02*
G37*
G36*
X441996Y295964D02*
X442156D01*
Y295804D01*
X441836D01*
Y295964D01*
Y296124D01*
X441996D01*
Y295964D01*
D02*
G37*
%LPC*%
G36*
X362482Y396755D02*
X361843D01*
Y396595D01*
X362482D01*
Y396755D01*
D02*
G37*
G36*
X409039Y379477D02*
X408879D01*
Y379317D01*
X409039D01*
Y379477D01*
D02*
G37*
G36*
X422637Y376597D02*
X422318D01*
Y376437D01*
X422637D01*
Y376597D01*
D02*
G37*
G36*
X417998Y379477D02*
X417838D01*
Y379317D01*
X417998D01*
Y379477D01*
D02*
G37*
G36*
X414798Y365718D02*
X414638D01*
Y365558D01*
X414798D01*
X414798Y365718D01*
D02*
G37*
G36*
X363442Y357559D02*
X363283D01*
Y357398D01*
X363442D01*
Y357559D01*
D02*
G37*
G36*
X363763Y355159D02*
X363602D01*
Y354999D01*
X363763D01*
Y355159D01*
D02*
G37*
G36*
X479913Y310203D02*
X479753D01*
Y310042D01*
X479913D01*
Y310203D01*
D02*
G37*
G36*
X470474Y301403D02*
X470313D01*
Y301243D01*
X470474D01*
Y301403D01*
D02*
G37*
G36*
X460554Y296924D02*
X460394D01*
Y296764D01*
X460554D01*
Y296924D01*
D02*
G37*
%LPD*%
D15*
X290000Y157500D02*
D03*
Y242500D02*
D03*
X410000Y157500D02*
D03*
Y242500D02*
D03*
X290000Y37500D02*
D03*
Y122500D02*
D03*
X410000Y37500D02*
D03*
Y122500D02*
D03*
D16*
X335000Y230000D02*
D03*
Y170000D02*
D03*
Y200000D02*
D03*
X290000Y185000D02*
D03*
Y215000D02*
D03*
X240750Y230000D02*
D03*
Y170000D02*
D03*
X455000Y230000D02*
D03*
Y170000D02*
D03*
Y200000D02*
D03*
X410000Y185000D02*
D03*
Y215000D02*
D03*
X360750Y230000D02*
D03*
Y170000D02*
D03*
X335000Y110000D02*
D03*
Y50000D02*
D03*
Y80000D02*
D03*
X290000Y65000D02*
D03*
Y95000D02*
D03*
X240750Y110000D02*
D03*
Y50000D02*
D03*
X455000Y110000D02*
D03*
Y50000D02*
D03*
Y80000D02*
D03*
X410000Y65000D02*
D03*
Y95000D02*
D03*
X360750Y110000D02*
D03*
Y50000D02*
D03*
D17*
X250000Y429200D02*
D03*
Y309200D02*
D03*
X275400D02*
D03*
X300800D02*
D03*
D18*
X250000Y454600D02*
D03*
Y480000D02*
D03*
Y334600D02*
D03*
Y360000D02*
D03*
X275400Y334600D02*
D03*
Y360000D02*
D03*
X457200Y488000D02*
D03*
X300800Y334600D02*
D03*
Y360000D02*
D03*
D19*
X15000Y15000D02*
D03*
Y40400D02*
D03*
Y65800D02*
D03*
Y91200D02*
D03*
Y116600D02*
D03*
Y142000D02*
D03*
Y167400D02*
D03*
Y192800D02*
D03*
Y218200D02*
D03*
Y243600D02*
D03*
X15000Y269000D02*
D03*
X15000Y294400D02*
D03*
Y319800D02*
D03*
Y345200D02*
D03*
Y370600D02*
D03*
Y396000D02*
D03*
Y421400D02*
D03*
Y446800D02*
D03*
Y472200D02*
D03*
X15000Y497600D02*
D03*
X192800D02*
D03*
Y472200D02*
D03*
Y446800D02*
D03*
Y421400D02*
D03*
Y396000D02*
D03*
Y370600D02*
D03*
Y345200D02*
D03*
Y319800D02*
D03*
Y294400D02*
D03*
Y269000D02*
D03*
Y243600D02*
D03*
Y218200D02*
D03*
Y192800D02*
D03*
Y167400D02*
D03*
Y142000D02*
D03*
Y116600D02*
D03*
Y91200D02*
D03*
Y65800D02*
D03*
Y40400D02*
D03*
D20*
Y15000D02*
D03*
D21*
X482600Y488000D02*
D03*
M02*
