G04*
G04 #@! TF.GenerationSoftware,Altium Limited,Altium Designer,21.5.1 (32)*
G04*
G04 Layer_Color=32896*
%FSLAX44Y44*%
%MOMM*%
G71*
G04*
G04 #@! TF.SameCoordinates,FA4849B1-0F6B-47E3-B241-1F84AE2CF7D8*
G04*
G04*
G04 #@! TF.FilePolarity,Positive*
G04*
G01*
G75*
%ADD19C,0.1524*%
D19*
X39976Y34063D02*
Y25937D01*
X35913D01*
X34559Y27292D01*
Y32708D01*
X35913Y34063D01*
X39976D01*
X31851D02*
X29142D01*
X30496D01*
Y25937D01*
X31851D01*
X29142D01*
X25080D02*
Y34063D01*
X19663Y25937D01*
Y34063D01*
X65309Y62709D02*
X66663Y64063D01*
X69372D01*
X70726Y62709D01*
Y57292D01*
X69372Y55937D01*
X66663D01*
X65309Y57292D01*
Y60000D01*
X68018D01*
X62601Y55937D02*
Y64063D01*
X57184Y55937D01*
Y64063D01*
X54475D02*
Y55937D01*
X50413D01*
X49058Y57292D01*
Y62709D01*
X50413Y64063D01*
X54475D01*
X49476Y94063D02*
Y85937D01*
X45413D01*
X44059Y87291D01*
Y92709D01*
X45413Y94063D01*
X49476D01*
X37288D02*
X39996D01*
X41351Y92709D01*
Y87291D01*
X39996Y85937D01*
X37288D01*
X35934Y87291D01*
Y92709D01*
X37288Y94063D01*
X33225D02*
Y87291D01*
X31871Y85937D01*
X29163D01*
X27808Y87291D01*
Y94063D01*
X25100D02*
X19683D01*
X22391D01*
Y85937D01*
X115976Y13563D02*
Y8146D01*
X113267Y5437D01*
X110559Y8146D01*
Y13563D01*
X107851D02*
Y5437D01*
X103788D01*
X102434Y6792D01*
Y12208D01*
X103788Y13563D01*
X107851D01*
X99725D02*
Y5437D01*
X95662D01*
X94308Y6792D01*
Y12208D01*
X95662Y13563D01*
X99725D01*
M02*
