G04*
G04 #@! TF.GenerationSoftware,Altium Limited,Altium Designer,21.5.1 (32)*
G04*
G04 Layer_Physical_Order=2*
G04 Layer_Color=16711680*
%FSLAX44Y44*%
%MOMM*%
G71*
G04*
G04 #@! TF.SameCoordinates,FA4849B1-0F6B-47E3-B241-1F84AE2CF7D8*
G04*
G04*
G04 #@! TF.FilePolarity,Positive*
G04*
G01*
G75*
%ADD17C,0.1270*%
%ADD18C,0.6000*%
G36*
X16750Y84000D02*
X4750D01*
Y96000D01*
X16750D01*
Y84000D01*
D02*
G37*
G36*
Y24000D02*
X4750D01*
Y36000D01*
X16750D01*
Y24000D01*
D02*
G37*
G36*
X105000Y97500D02*
X27500D01*
Y94376D01*
X27168Y94239D01*
X25761Y92832D01*
X25000Y90995D01*
Y89005D01*
X25761Y87168D01*
X27168Y85761D01*
X27500Y85624D01*
Y82500D01*
X105000D01*
Y67500D01*
X27500D01*
Y64377D01*
X27168Y64239D01*
X25761Y62832D01*
X25000Y60995D01*
Y59005D01*
X25761Y57168D01*
X27168Y55761D01*
X27500Y55624D01*
Y52500D01*
X105000D01*
Y37500D01*
X27500D01*
Y34376D01*
X27168Y34239D01*
X25761Y32832D01*
X25000Y30995D01*
Y29005D01*
X25761Y27168D01*
X27168Y25761D01*
X27500Y25624D01*
Y22500D01*
X105000D01*
Y12500D01*
X12500D01*
Y22625D01*
X16750D01*
X17722Y23028D01*
X18125Y24000D01*
Y36000D01*
X17722Y36972D01*
X16750Y37375D01*
X12500D01*
Y82626D01*
X16750D01*
X17722Y83028D01*
X18125Y84000D01*
Y96000D01*
X17722Y96972D01*
X16750Y97375D01*
X12500D01*
Y107500D01*
X105000D01*
Y97500D01*
D02*
G37*
G36*
X117961Y2039D02*
X2039D01*
Y5354D01*
X3006Y6000D01*
X4995D01*
X6832Y6762D01*
X8239Y8168D01*
X9000Y10006D01*
Y11995D01*
X9338Y12500D01*
X10624D01*
X10761Y12168D01*
X12168Y10761D01*
X14005Y10000D01*
X15995D01*
X17832Y10761D01*
X18196Y11125D01*
X41804D01*
X42168Y10761D01*
X44005Y10000D01*
X45995D01*
X47832Y10761D01*
X48196Y11125D01*
X71804D01*
X72168Y10761D01*
X74005Y10000D01*
X75995D01*
X77832Y10761D01*
X78196Y11125D01*
X101804D01*
X102168Y10761D01*
X104005Y10000D01*
X105995D01*
X107832Y10761D01*
X109239Y12168D01*
X110000Y14005D01*
Y15995D01*
X109239Y17832D01*
X107832Y19239D01*
X106375Y19843D01*
Y22500D01*
X105972Y23472D01*
X105000Y23875D01*
X28875D01*
Y25624D01*
X28770Y25876D01*
Y26150D01*
X28577Y26343D01*
X28472Y26596D01*
X28219Y26700D01*
X28026Y26893D01*
X27946Y26927D01*
X27500Y27373D01*
Y32627D01*
X27946Y33073D01*
X28026Y33106D01*
X28219Y33300D01*
X28472Y33404D01*
X28577Y33657D01*
X28770Y33850D01*
Y34124D01*
X28875Y34376D01*
Y36125D01*
X105000D01*
X105972Y36528D01*
X106375Y37500D01*
Y40157D01*
X107832Y40761D01*
X109239Y42168D01*
X110000Y44005D01*
Y45995D01*
X109239Y47832D01*
X107832Y49239D01*
X106375Y49843D01*
Y52500D01*
X105972Y53472D01*
X105000Y53875D01*
X28875D01*
Y55624D01*
X28770Y55876D01*
Y56150D01*
X28577Y56343D01*
X28472Y56596D01*
X28219Y56700D01*
X28026Y56894D01*
X27946Y56927D01*
X27500Y57373D01*
Y62627D01*
X27946Y63074D01*
X28026Y63106D01*
X28219Y63300D01*
X28472Y63404D01*
X28577Y63657D01*
X28770Y63850D01*
Y64124D01*
X28875Y64377D01*
Y66125D01*
X105000D01*
X105972Y66528D01*
X106375Y67500D01*
Y70157D01*
X107832Y70761D01*
X109239Y72168D01*
X110000Y74005D01*
Y75995D01*
X109239Y77832D01*
X107832Y79239D01*
X106375Y79843D01*
Y82500D01*
X105972Y83472D01*
X105000Y83875D01*
X28875D01*
Y85624D01*
X28770Y85876D01*
Y86150D01*
X28577Y86343D01*
X28472Y86596D01*
X28219Y86700D01*
X28026Y86894D01*
X27946Y86926D01*
X27500Y87373D01*
Y92627D01*
X27946Y93073D01*
X28026Y93106D01*
X28219Y93300D01*
X28472Y93404D01*
X28577Y93657D01*
X28770Y93850D01*
Y94124D01*
X28875Y94376D01*
Y96125D01*
X105000D01*
X105972Y96528D01*
X106375Y97500D01*
Y100157D01*
X107832Y100761D01*
X109239Y102168D01*
X110000Y104005D01*
Y105995D01*
X109239Y107832D01*
X107832Y109239D01*
X105995Y110000D01*
X104005D01*
X102168Y109239D01*
X101804Y108875D01*
X78196D01*
X77832Y109239D01*
X75995Y110000D01*
X74005D01*
X72168Y109239D01*
X71804Y108875D01*
X48196D01*
X47832Y109239D01*
X45995Y110000D01*
X44005D01*
X42168Y109239D01*
X41804Y108875D01*
X18196D01*
X17832Y109239D01*
X15995Y110000D01*
X14005D01*
X12168Y109239D01*
X10761Y107832D01*
X10624Y107500D01*
X9338D01*
X9000Y108006D01*
Y109995D01*
X8239Y111832D01*
X6832Y113239D01*
X4995Y114000D01*
X3006D01*
X2039Y114646D01*
Y117961D01*
X117961D01*
Y2039D01*
D02*
G37*
D17*
X4000Y11000D02*
X9750Y16750D01*
Y30000D01*
Y90000D02*
Y103250D01*
X4000Y109000D02*
X9750Y103250D01*
X4000Y79000D02*
Y80280D01*
X2635Y81645D02*
Y98355D01*
X4000Y99720D02*
Y101000D01*
X2635Y81645D02*
X4000Y80280D01*
X2635Y98355D02*
X4000Y99720D01*
X2635Y21645D02*
X4000Y20280D01*
X2635Y38355D02*
X4000Y39720D01*
Y19000D02*
Y20280D01*
X2635Y21645D02*
Y38355D01*
X4000Y39720D02*
Y41000D01*
X3500Y3500D02*
X21635D01*
X4000Y49000D02*
Y71000D01*
D18*
Y11000D02*
D03*
X3500Y3500D02*
D03*
Y116500D02*
D03*
X4000Y109000D02*
D03*
X15000Y15000D02*
D03*
X116000Y116000D02*
D03*
X90000Y115000D02*
D03*
X60000D02*
D03*
X30000D02*
D03*
X116000Y4000D02*
D03*
X90000Y5000D02*
D03*
X60000D02*
D03*
X30000D02*
D03*
X105000Y15000D02*
D03*
Y45000D02*
D03*
Y75000D02*
D03*
Y105000D02*
D03*
X90000Y90000D02*
D03*
X75000Y105000D02*
D03*
X60000Y90000D02*
D03*
X45000Y105000D02*
D03*
X15000D02*
D03*
X30000Y90000D02*
D03*
Y60000D02*
D03*
X15000Y75000D02*
D03*
X60000Y60000D02*
D03*
X45000Y75000D02*
D03*
X75000D02*
D03*
X90000Y60000D02*
D03*
X75000Y45000D02*
D03*
X90000Y30000D02*
D03*
X75000Y15000D02*
D03*
X60000Y30000D02*
D03*
X45000Y15000D02*
D03*
Y45000D02*
D03*
X30000Y30000D02*
D03*
X4000Y101000D02*
D03*
Y79000D02*
D03*
Y71000D02*
D03*
Y49000D02*
D03*
Y41000D02*
D03*
Y19000D02*
D03*
X15000Y45000D02*
D03*
M02*
