M48
;Layer_Color=9474304
;FILE_FORMAT=4:4
METRIC,LZ
;TYPE=PLATED
T1F00S00C0.3000
%
T01
X000035Y000035
X00004Y00011
Y00019
X00015Y00015
X0003Y00005
Y0003
X00015Y00045
X00004Y00041
Y00049
Y00071
Y00079
X00015Y00075
Y00105
X00004Y00101
Y00109
X000035Y001165
X0003Y00115
Y0009
Y0006
X0006
Y0009
Y00115
X00075Y00105
X0009Y00115
X00105Y00105
X00116Y00116
X00105Y00075
Y00045
X0009Y0006
Y0009
X00075Y00075
X00045
Y00105
Y00045
X00075
X0009Y0003
Y00005
X00105Y00015
X00116Y00004
X00075Y00015
X0006Y00005
Y0003
X00045Y00015
M30
